<svg xmlns="http://www.w3.org/2000/svg" xml:space="preserve" id="pattern" x="0" y="0" version="1.1" viewBox="0 0 192 192">
  <path fill="#000000" d="M20.9 37.3c.9-2.6-.6-5.2-2.1-7.4a16 16 0 0 1-3.8-7 9.6 9.6 0 0 1 8.4-10.7c3.1-.4 6.3.8 8.3 3.2 2 2.2 2.3 5.3 1.4 7.9-1 2.7-3 4.7-4.7 6.7a8 8 0 0 0-1.9 7.2h-.1a7.6 7.6 0 0 1 1.6-7.6c1.7-2.2 3.6-4.1 4.3-6.6a7 7 0 0 0-1.1-7.1 9 9 0 0 0-6.7-3.3 8.9 8.9 0 0 0-9.1 10.3c.1 2.6 2 4.8 3.5 6.9 1.5 2.1 2.9 4.9 2 7.5z"/>
  <path fill="#000000" d="M22.8 37c.3-3-.6-6-1.8-8.8-.1-.3 0-.9.3-1.1.3-.4 1-.4 1.3-.1.4.3.2 1.1-.2 1.3-.7.2-1.1-.4-1.1-.9.2-1.1 1.4-1.2 2.2-1.1.4 0 .9.3 1 .9s-.3 1.1-1.1 1c-.7-.3-.6-1.1-.2-1.4.3-.3.7-.6 1.1-.7.7-.2 1.9-.6 2.6.6.2.3.1 1.1-.3 1.4-.4.4-1.6 0-1.6-.7 0-.2.1-.7.6-.9.3 0 .7 0 .9.2.6.3.6 1 .4 1.3-.8 3-1.4 5.9-2.5 8.9v-.1c.4-3 1.1-6 1.7-8.9.2-.7-.4-.8-.3-.6 0 .2.7 0 .3-.4-.2-1-3.1.1-2.5.7.3 0 .4-.8-.2-.8-.7-.2-1.6 0-1.6.6 0 .2.2.4.3.4.2 0 .3-.4 0-.6-.3-.4-1.1.2-.9.9 1.3 2.8 1.9 5.9 1.6 8.9zm-2.2 1.3c1.8-.2 3.7-.2 5.6 0h.4s.1-.1.1.2c0 .1 0 0 0 0l-.7.3-1.3.3-2.7.4-.7.1H21v-.2c-.1-.2 0 0 0-.1h1.7l2.7.2h1.3l.2.2c0 .6-.2.3-.1.4h-.1l-1.4.1-2.7.4h-1.1v.4-.1c.2-.3 0-.6 0-.4-.1 0 0 0 0 0h1.3l2.8.1h.4l.2.1c0-.1.6.4 0 .7v.1H24l-2.5.5s.1.1.2-.4c-.2-.4-.3-.2-.3-.2h1.2l1.4.1 1.3.1.7.1h.7l.1.3-.1.2h-.2l-5.6.6v-.1l5.6-.9-.1.2v.2h.1-2.6l-1.3-.1h-1.4l-.3-.3c0-.6.2-.3.2-.4 1.1-.4 1.9-.4 2.8-.6h1.4l.7-.1h-.3c-.3.3.2.9.1.8.1 0 0 0 0 0h-.4l-2.8-.3h-1.3l-.4-.2s-.3-.1-.1-.4l.1-.2h.7l.7-.1L25 40l1.4-.1s-.1-.2 0 .4h-1.1l-2.7-.3-1.4-.1h-.3l-.2-.1c0-.4.2-.3.1-.3h.4l.7-.2 2.8-.3 1.2-.3.7-.1s.1 0 0 0c0 .3.1.1 0 .1h-.4c-1.8-.3-3.6-.4-5.5-.1v-.3h-.1zm2.1 4.6c.3.4.8.7 1.1.6l.6-.2c.2 0 .3-.1.6-.4.3.3.1.8 0 1.1-.3.3-.7.4-1.1.2-.7-.1-1.1-.7-1.2-1.1V43zm-5.8-12.3-2.7 1.8c-.7.8-1.4 1.3-2.5 2 .4-1.1 1.2-2 2.2-2.6 1-.5 2-1 3-1.2zm-1.3-1.8-1.1.7c-.4.3-.9.3-1.4.1.3-.6.8-.8 1.2-.8l1.4-.1-.1.1zm-1-2.9-3.3 1.3c-1 .6-2 1-3.3 1.2 1-1.1 2.1-1.7 3.2-1.9a19 19 0 0 1 3.6-.9v.1l-.2.2zm-.7-2.8-1.8.3c-.7.1-1.2 0-1.8-.3.6-.4 1.1-.6 1.8-.3l1.8.2v.1zm-.4-2.4-3.8.1c-1.2.1-2.5 0-3.7-.4 1.2-.3 2.5-.4 3.8-.2l3.8.4-.1.1zm.3-3.1-1.3-.3c-.6 0-.9-.2-1.1-.8.6-.2 1-.1 1.3.2l1.1.8v.1zm1.8-2.3-4-2.3c-1.3-.9-2.7-1.7-3.7-2.9a12 12 0 0 1 4 2.3l3.7 2.8v.1zm2.2-2.1c-.4-.1-.9-.3-1.1-.7-.6-.2-.8-.8-.7-1.3h.1c.6.2.8.4 1 .9l.7 1.1zm2.2-1.4-1.1-3c-.5-.9-.7-2-.7-3 .8.9 1.1 1.8 1.2 2.9.3.9.6 1.9.7 2.9l-.1.2zm3.1-.4-.4-1.6c-.1-.4 0-.9.4-1.3h.1c.2.6.3 1 .1 1.4l-.2 1.2v.3zm3.1.3.6-4c0-1.3.4-2.6 1.1-3.8.1 1.4 0 2.7-.6 4l-1.1 3.8zm2.8 1 .6-1.4c.1-.6.6-.9 1.1-1.1 0 .7-.1 1.1-.6 1.4L29 12.7zm2.4 1.2 3.3-2a8 8 0 0 1 3.7-1.4c-1 1-2.1 1.7-3.3 2l-3.6 1.4h-.1zm2 3.3 1.6-.8c.4-.3 1.1-.4 1.7-.3-.3.7-.9.9-1.4.9l-1.7.3-.2-.1zm.8 3.1 3.9-1.6a8.9 8.9 0 0 1 3.9-1.2c-2.2 1.8-5.1 2.2-7.8 2.9v-.1zm.1 2.9h1.8c.6-.1 1.1 0 1.6.6a2 2 0 0 1-1.8 0l-1.6-.6zm-.7 2.3c1.1.3 2.5.8 3.6 1.4 1.2.5 2.3 1.4 3 2.6-1.2-.6-2.2-1.1-3.3-2l-3.3-2zm-1 2 1 .2c.3 0 .6.2.6.8-.4.2-.8 0-.9-.2l-.7-.8zm-1.1 2.1 2 1.4a4 4 0 0 1 1.7 1.9c-1-.2-1.6-.7-2.1-1.4a10 10 0 0 1-1.6-1.9zm85.4 7.7c.9-2.6-.6-5.2-2.1-7.4a16 16 0 0 1-3.8-7 9.6 9.6 0 0 1 8.4-10.7c3.1-.4 6.3.8 8.3 3.2 2 2.2 2.3 5.3 1.4 7.9-1 2.7-3 4.7-4.7 6.7a8 8 0 0 0-1.9 7.2h-.1a7.6 7.6 0 0 1 1.6-7.6c1.7-2.2 3.6-4.1 4.3-6.6a7 7 0 0 0-1.1-7.1 9 9 0 0 0-6.7-3.3 8.9 8.9 0 0 0-9.1 10.3c.1 2.6 2 4.8 3.5 6.9 1.5 2.1 2.9 4.9 2 7.5z"/>
  <path fill="#000000" d="M118.8 37c.3-3-.6-6-1.8-8.8-.1-.3 0-.9.3-1.1.3-.4 1-.4 1.3-.1.4.3.2 1.1-.2 1.3-.7.2-1.1-.4-1.1-.9.2-1.1 1.4-1.2 2.2-1.1.4 0 .9.3 1 .9.1.6-.3 1.1-1.1 1-.7-.3-.6-1.1-.2-1.4.3-.3.7-.6 1.1-.7.7-.2 1.9-.6 2.6.6.2.3.1 1.1-.3 1.4-.4.4-1.6 0-1.6-.7 0-.2.1-.7.6-.9.3 0 .7 0 .9.2.6.3.6 1 .4 1.3-.8 3-1.4 5.9-2.5 8.9v-.1c.4-3 1.1-6 1.7-8.9.2-.7-.4-.8-.3-.6 0 .2.7 0 .3-.4-.2-1-3.1.1-2.5.7.3 0 .4-.8-.2-.8-.7-.2-1.6 0-1.6.6 0 .2.2.4.3.4.2 0 .3-.4 0-.6-.3-.4-1.1.2-.9.9 1.3 2.8 1.9 5.9 1.6 8.9zm-2.2 1.3c1.8-.2 3.7-.2 5.6 0h.4s.1-.1.1.2c0 .1 0 0 0 0l-.8.3-1.3.3-2.7.4-.7.1h-.2v-.2c-.1-.2 0 0 0-.1h1.7l2.7.2h1.3l.2.2c0 .6-.2.3-.1.4h-.1l-1.4.1-2.7.4h-1.1v.4-.1c.2-.3 0-.6 0-.4-.1 0 0 0 0 0h1.3l2.8.1h.4l.2.1c0-.1.6.4 0 .7v.1H120l-2.6.6s.1.1.2-.4c-.2-.4-.3-.2-.3-.2h1.2l1.4.1 1.3.1.7.1h.7l.1.3-.1.2h-.2l-5.6.6v-.1l5.6-.9-.1.2v.2h.1-2.6l-1.3-.1h-1.4l-.3-.3c0-.6.2-.3.2-.4 1.1-.4 1.9-.4 2.8-.6h1.4l.7-.1h-.3c-.3.3.2.9.1.8.1 0 0 0 0 0h-.4l-2.8-.3h-1.3l-.2-.1s-.3-.1-.1-.4l.1-.2h.7l.7-.1 2.7-.3 1.4-.1s-.1-.2 0 .4h-1.1l-2.7-.2-1.4-.1h-.3l-.2-.1c0-.4.2-.3.1-.3h.4l.7-.2 2.8-.3 1.2-.3.7-.1s.1 0 0 0c0 .3.1.1 0 .1h-.4c-1.8-.3-3.6-.4-5.5-.1v-.6h-.2zm2.1 4.6c.3.4.8.7 1.1.6l.6-.2c.2 0 .3-.1.6-.4.3.3.1.8 0 1.1-.3.3-.7.4-1.1.2-.7-.1-1.1-.7-1.2-1.1V43zm-5.8-12.3-2.7 1.8c-.7.8-1.4 1.3-2.5 2 .4-1.1 1.2-2 2.2-2.6 1-.5 2-1 3-1.2zm-1.3-1.8-1.1.7c-.4.3-.9.3-1.4.1.3-.6.8-.8 1.2-.8l1.4-.1-.1.1zm-1-2.9-3.3 1.3c-1 .6-2 1-3.3 1.2 1-1.1 2.1-1.7 3.2-1.9a19 19 0 0 1 3.6-.9v.1l-.2.2zm-.7-2.8-1.8.3c-.7.1-1.2 0-1.8-.3.6-.4 1.1-.6 1.8-.3l1.8.2v.1zm-.4-2.4-3.8.1c-1.2.1-2.5 0-3.7-.4 1.2-.3 2.5-.4 3.8-.2l3.8.4-.1.1zm.3-3.1-1.3-.3c-.6 0-.9-.2-1.1-.8.6-.2 1-.1 1.3.2l1.1.8v.1zm1.8-2.3-4-2.3c-1.3-.9-2.7-1.7-3.7-2.9a12 12 0 0 1 4 2.3l3.7 2.8v.1zm2.2-2.1c-.4-.1-.9-.3-1.1-.7-.6-.2-.8-.8-.7-1.3h.1c.6.2.8.4 1 .9l.7 1.1zm2.2-1.4-1.1-3c-.5-.9-.7-2-.7-3 .8.9 1.1 1.8 1.2 2.9.3.9.6 1.9.7 2.9l-.1.2zm3.1-.4-.4-1.6c-.1-.4 0-.9.4-1.3h.1c.2.6.3 1 .1 1.4l-.2 1.2v.3zm3.1.3.6-4c0-1.3.4-2.6 1.1-3.8.1 1.4 0 2.7-.6 4l-1.1 3.8zm2.8 1 .6-1.4c.1-.6.6-.9 1.1-1.1 0 .7-.1 1.1-.6 1.4l-1.1 1.1zm2.4 1.2 3.3-2a8 8 0 0 1 3.7-1.4c-1 1-2.1 1.7-3.3 2l-3.6 1.4h-.1zm2 3.3 1.6-.8c.4-.3 1.1-.4 1.7-.3-.3.7-.9.9-1.4.9l-1.7.3-.2-.1zm.8 3.1 3.9-1.6a8.9 8.9 0 0 1 3.9-1.2c-2.2 1.8-5.1 2.2-7.8 2.9v-.1zm.1 2.9h1.8c.6-.1 1.1 0 1.6.6a2 2 0 0 1-1.8 0l-1.6-.6zm-.7 2.3c1.1.3 2.5.8 3.6 1.4 1.2.5 2.3 1.4 3 2.6-1.2-.6-2.2-1.1-3.3-2l-3.3-2zm-1 2 1 .2c.3 0 .6.2.6.8-.4.2-.8 0-.9-.2l-.7-.8zm-1.1 2.1 2 1.4a4 4 0 0 1 1.7 1.9c-1-.2-1.6-.7-2.1-1.4a10 10 0 0 1-1.6-1.9zM20.9 131.1c.9-2.6-.6-5.2-2.1-7.4a16 16 0 0 1-3.8-7 9.6 9.6 0 0 1 8.4-10.7c3.1-.4 6.3.8 8.3 3.2 2 2.2 2.3 5.3 1.4 7.9-1 2.7-3 4.7-4.7 6.7a8 8 0 0 0-1.9 7.2h-.1a7.6 7.6 0 0 1 1.6-7.6c1.7-2.2 3.6-4.1 4.3-6.6a7 7 0 0 0-1.1-7.1 9 9 0 0 0-6.7-3.3 8.9 8.9 0 0 0-9.1 10.3c.1 2.6 2 4.8 3.5 6.9 1.5 2.2 2.9 5 2 7.5z"/>
  <path fill="#000000" d="M22.8 130.8c.3-3-.6-6-1.8-8.8-.1-.3 0-.9.3-1.1.3-.4 1-.4 1.3-.1.4.3.2 1.1-.2 1.3-.7.2-1.1-.4-1.1-.9.2-1.1 1.4-1.2 2.2-1.1.4 0 .9.3 1 .9s-.3 1.1-1.1 1c-.7-.3-.6-1.1-.2-1.4.3-.3.7-.6 1.1-.7.7-.2 1.9-.6 2.6.6.2.3.1 1.1-.3 1.4-.4.4-1.6 0-1.6-.7 0-.2.1-.7.6-.9.3 0 .7 0 .9.2.6.3.6 1 .4 1.3-.8 3-1.4 5.9-2.5 8.9v-.1c.4-3 1.1-6 1.7-8.9.2-.7-.4-.8-.3-.6 0 .2.7 0 .3-.4-.2-1-3.1.1-2.5.7.3 0 .4-.8-.2-.8-.7-.2-1.6 0-1.6.6 0 .2.2.4.3.4.2 0 .3-.4 0-.6-.3-.4-1.1.2-.9.9 1.3 2.8 1.9 5.9 1.6 8.9zm-2.2 1.3c1.8-.2 3.7-.2 5.6 0h.4s.1-.1.1.2c0 .1 0 0 0 0l-.8.3-1.3.3-2.7.4-.7.1H21v-.2c-.1-.2 0 0 0-.1h1.7l2.7.2h1.3l.2.2c0 .6-.2.3-.1.4h-.1l-1.4.1-2.7.4h-1.1v.1-.1c.2-.3 0-.6 0-.4-.1 0 0 0 0 0h1.3l2.8.1h.4l.2.1c0-.1.6.4 0 .7v.1H24l-2.6.6s.1.1.2-.4c-.2-.4-.3-.2-.3-.2h1.2l1.4.1 1.3.1.7.1h.7l.1.3-.1.2h-.2l-5.6.6v-.1l5.6-.9-.1.2v.2h.1-2.6l-1.3-.1h-1.4l-.3-.3c0-.6.2-.3.2-.4 1.1-.4 1.9-.4 2.8-.6h1.4l.7-.1h-.3c-.3.3.2.9.1.8.1 0 0 0 0 0h-.4l-2.8-.3h-1.3l-.2-.1s-.3-.1-.1-.4l.1-.2h.7l.7-.1 2.7-.3 1.4-.1s-.1-.2 0 .4h-1.1l-2.7-.2-1.4-.1H21l-.2-.1c0-.4.2-.3.1-.3h.4l.7-.2 2.8-.3 1.2-.3.7-.1s.1 0 0 0c0 .3.1.1 0 .1h-.4c-1.8-.3-3.6-.4-5.5-.1v-.3h-.2zm2.1 4.6c.3.4.8.7 1.1.6l.6-.2c.2 0 .3-.1.6-.4.3.3.1.8 0 1.1-.3.3-.7.4-1.1.2-.7-.1-1.1-.7-1.2-1.1v-.1zm-5.8-12.2-2.7 1.8c-.7.8-1.4 1.3-2.5 2 .4-1.1 1.2-2 2.2-2.6 1-.6 2-1 3-1.2zm-1.3-1.8-1.1.7c-.4.3-.9.3-1.4.1.3-.6.8-.8 1.2-.8l1.4-.1-.1.1zm-1-2.9-3.3 1.3c-1 .6-2 1-3.3 1.2 1-1.1 2.1-1.7 3.2-1.9a19 19 0 0 1 3.6-.9v.1l-.2.2zm-.7-2.8-1.8.3c-.7.1-1.2 0-1.8-.3.6-.4 1.1-.6 1.8-.3l1.8.2v.1zm-.4-2.5-3.8.1c-1.2.1-2.5 0-3.7-.4 1.2-.3 2.5-.4 3.8-.2l3.8.4-.1.1zm.3-3.1-1.3-.3c-.6 0-.9-.2-1.1-.8.6-.2 1-.1 1.3.2l1.1.8v.1zm1.8-2.2-4-2.3c-1.3-.9-2.7-1.7-3.7-2.9a12 12 0 0 1 4 2.3l3.7 2.8v.1zm2.2-2.1c-.4-.1-.9-.3-1.1-.7-.6-.2-.8-.8-.7-1.3h.1c.6.2.8.4 1 .9l.7 1.1zm2.2-1.5-1.1-3c-.5-.9-.7-2-.7-3 .8.9 1.1 1.8 1.2 2.9.3.9.6 1.9.7 2.9l-.1.2zm3.1-.3-.4-1.6c-.1-.4 0-.9.4-1.3h.1c.2.6.3 1 .1 1.4l-.2 1.2v.3zm3.1.2.6-4c0-1.3.4-2.6 1.1-3.8.1 1.4 0 2.7-.6 4l-1.1 3.8zm2.8 1 .6-1.4c.1-.6.6-.9 1.1-1.1 0 .7-.1 1.1-.6 1.4l-1.1 1.1zm2.4 1.2 3.3-2a8 8 0 0 1 3.7-1.4c-1 1-2.1 1.7-3.3 2l-3.6 1.4h-.1zm2 3.4 1.6-.8c.4-.3 1.1-.4 1.7-.3-.3.7-.9.9-1.4.9l-1.7.3-.2-.1zm.8 3.1 3.9-1.6a8.9 8.9 0 0 1 3.9-1.2c-2.2 1.8-5.1 2.2-7.8 2.9v-.1zm.1 2.9h1.8c.6-.1 1.1 0 1.6.6a2 2 0 0 1-1.8 0l-1.6-.6zm-.7 2.2c1.1.3 2.5.8 3.6 1.4 1.2.5 2.3 1.4 3 2.6-1.2-.6-2.2-1.1-3.3-2l-3.3-2zm-1 2 1 .2c.3 0 .6.2.6.8-.4.2-.8 0-.9-.2l-.7-.8zm-1.1 2.1 2 1.4a4 4 0 0 1 1.7 1.9c-1-.2-1.6-.7-2.1-1.4a7.7 7.7 0 0 1-1.6-1.9zm85.4 7.7c.9-2.6-.6-5.2-2.1-7.4a16 16 0 0 1-3.8-7 9.6 9.6 0 0 1 8.4-10.7c3.1-.4 6.3.8 8.3 3.2 2 2.2 2.3 5.3 1.4 7.9-1 2.7-3 4.7-4.7 6.7a8 8 0 0 0-1.9 7.2h-.1a7.6 7.6 0 0 1 1.6-7.6c1.7-2.2 3.6-4.1 4.3-6.6a7 7 0 0 0-1.1-7.1 9 9 0 0 0-6.7-3.3 8.9 8.9 0 0 0-9.1 10.3c.1 2.6 2 4.8 3.5 6.9 1.5 2.2 2.9 5 2 7.5z"/>
  <path fill="#000000" d="M118.8 130.8c.3-3-.6-6-1.8-8.8-.1-.3 0-.9.3-1.1.3-.4 1-.4 1.3-.1.4.3.2 1.1-.2 1.3-.7.2-1.1-.4-1.1-.9.2-1.1 1.4-1.2 2.2-1.1.4 0 .9.3 1 .9.1.6-.3 1.1-1.1 1-.7-.3-.6-1.1-.2-1.4.3-.3.7-.6 1.1-.7.7-.2 1.9-.6 2.6.6.2.3.1 1.1-.3 1.4-.4.4-1.6 0-1.6-.7 0-.2.1-.7.6-.9.3 0 .7 0 .9.2.6.3.6 1 .4 1.3-.8 3-1.4 5.9-2.5 8.9v-.1c.4-3 1.1-6 1.7-8.9.2-.7-.4-.8-.3-.6 0 .2.7 0 .3-.4-.2-1-3.1.1-2.5.7.3 0 .4-.8-.2-.8-.7-.2-1.6 0-1.6.6 0 .2.2.4.3.4.2 0 .3-.4 0-.6-.3-.4-1.1.2-.9.9 1.3 2.8 1.9 5.9 1.6 8.9zm-2.2 1.3c1.8-.2 3.7-.2 5.6 0h.4s.1-.1.1.2c0 .1 0 0 0 0l-.8.3-1.3.3-2.7.4-.7.1h-.2v-.2c-.1-.2 0 0 0-.1h1.7l2.7.2h1.3l.2.2c0 .6-.2.3-.1.4h-.1l-1.4.1-2.7.4h-1.1v.1-.1c.2-.3 0-.6 0-.4-.1 0 0 0 0 0h1.3l2.8.1h.4l.2.1c0-.1.6.4 0 .7v.1H120l-2.6.6s.1.1.2-.4c-.2-.4-.3-.2-.3-.2h1.2l1.4.1 1.3.1.7.1h.7l.1.3-.1.2h-.2l-5.6.6v-.1l5.6-.9-.1.2v.2h.1-2.6l-1.3-.1h-1.4l-.3-.3c0-.6.2-.3.2-.4 1.1-.4 1.9-.4 2.8-.6h1.4l.7-.1h-.3c-.3.3.2.9.1.8.1 0 0 0 0 0h-.4l-2.8-.3h-1.3l-.2-.1s-.3-.1-.1-.4l.1-.2h.7l.7-.1 2.7-.3 1.4-.1s-.1-.2 0 .4h-1.1l-2.7-.2-1.4-.1h-.3l-.2-.1c0-.4.2-.3.1-.3h.4l.7-.2 2.8-.3 1.2-.3.7-.1s.1 0 0 0c0 .3.1.1 0 .1h-.4c-1.8-.3-3.6-.4-5.5-.1v-.3h-.2zm2.1 4.6c.3.4.8.7 1.1.6l.6-.2c.2 0 .3-.1.6-.4.3.3.1.8 0 1.1-.3.3-.7.4-1.1.2-.7-.1-1.1-.7-1.2-1.1v-.1zm-5.8-12.2-2.7 1.8c-.7.8-1.4 1.3-2.5 2 .4-1.1 1.2-2 2.2-2.6 1-.6 2-1 3-1.2zm-1.3-1.8-1.1.7c-.4.3-.9.3-1.4.1.3-.6.8-.8 1.2-.8l1.4-.1-.1.1zm-1-2.9-3.3 1.3c-1 .6-2 1-3.3 1.2 1-1.1 2.1-1.7 3.2-1.9a19 19 0 0 1 3.6-.9v.1l-.2.2zm-.7-2.8-1.8.3c-.7.1-1.2 0-1.8-.3.6-.4 1.1-.6 1.8-.3l1.8.2v.1zm-.4-2.5-3.8.1c-1.2.1-2.5 0-3.7-.4 1.2-.3 2.5-.4 3.8-.2l3.8.4-.1.1zm.3-3.1-1.3-.3c-.6 0-.9-.2-1.1-.8.6-.2 1-.1 1.3.2l1.1.8v.1zm1.8-2.2-4-2.3c-1.3-.9-2.7-1.7-3.7-2.9a12 12 0 0 1 4 2.3l3.7 2.8v.1zm2.2-2.1c-.4-.1-.9-.3-1.1-.7-.6-.2-.8-.8-.7-1.3h.1c.6.2.8.4 1 .9l.7 1.1zm2.2-1.5-1.1-3c-.5-.9-.7-2-.7-3 .8.9 1.1 1.8 1.2 2.9.3.9.6 1.9.7 2.9l-.1.2zm3.1-.3-.4-1.6c-.1-.4 0-.9.4-1.3h.1c.2.6.3 1 .1 1.4l-.2 1.2v.3zm3.1.2.6-4c0-1.3.4-2.6 1.1-3.8.1 1.4 0 2.7-.6 4l-1.1 3.8zm2.8 1 .6-1.4c.1-.6.6-.9 1.1-1.1 0 .7-.1 1.1-.6 1.4l-1.1 1.1zm2.4 1.2 3.3-2a8 8 0 0 1 3.7-1.4c-1 1-2.1 1.7-3.3 2l-3.6 1.4h-.1zm2 3.4 1.6-.8c.4-.3 1.1-.4 1.7-.3-.3.7-.9.9-1.4.9l-1.7.3-.2-.1zm.8 3.1 3.9-1.6a8.9 8.9 0 0 1 3.9-1.2c-2.2 1.8-5.1 2.2-7.8 2.9v-.1zm.1 2.9h1.8c.6-.1 1.1 0 1.6.6a2 2 0 0 1-1.8 0l-1.6-.6zm-.7 2.2c1.1.3 2.5.8 3.6 1.4 1.2.5 2.3 1.4 3 2.6-1.2-.6-2.2-1.1-3.3-2l-3.3-2zm-1 2 1 .2c.3 0 .6.2.6.8-.4.2-.8 0-.9-.2l-.7-.8zm-1.1 2.1 2 1.4a4 4 0 0 1 1.7 1.9c-1-.2-1.6-.7-2.1-1.4a7.7 7.7 0 0 1-1.6-1.9z"/>
  <path fill="#FFFFFF" d="M70.1 86.4c.9-2.6-.6-5.2-2.1-7.4a16 16 0 0 1-3.8-7 9.6 9.6 0 0 1 8.4-10.7c3.1-.4 6.3.8 8.3 3.2 2 2.2 2.3 5.3 1.4 7.9-1 2.7-3 4.7-4.7 6.7a8 8 0 0 0-1.9 7.2h-.1a7.6 7.6 0 0 1 1.6-7.6c1.7-2.2 3.6-4.1 4.3-6.6a7 7 0 0 0-1.1-7.1 9 9 0 0 0-6.7-3.3A8.9 8.9 0 0 0 64.6 72c.1 2.6 2 4.8 3.5 6.9 1.4 2.1 2.9 4.9 2 7.5z" />
  <path fill="#FFFFFF" d="M72 86c.3-3-.6-6-1.8-8.8-.1-.3 0-.9.3-1.1.3-.4 1-.4 1.3-.1.4.3.2 1.1-.2 1.3-.7.2-1.1-.4-1.1-.9.2-1.1 1.4-1.2 2.2-1.1.4 0 .9.3 1 .9.1.6-.3 1.1-1.1 1-.7-.3-.6-1.1-.2-1.4.3-.3.7-.6 1.1-.7.7-.2 1.9-.6 2.6.6.2.3.1 1.1-.3 1.4-.4.4-1.6 0-1.6-.7 0-.2.1-.7.6-.9.3 0 .7 0 .9.2.6.3.6 1 .4 1.3-.8 3-1.4 5.9-2.5 8.9v-.1c.4-3 1.1-6 1.7-8.9.2-.7-.4-.8-.3-.6 0 .2.7 0 .3-.4-.2-1-3.1.1-2.5.7.3 0 .4-.8-.2-.8-.7-.2-1.6 0-1.6.6 0 .2.2.4.3.4.2 0 .3-.4 0-.6-.3-.4-1.1.2-.9.9 1.3 2.8 1.9 5.9 1.6 8.9zm-2.3 1.4c1.8-.2 3.7-.2 5.6 0h.4s.1-.1.1.2c0 .1 0 0 0 0l-.8.3-1.3.3-2.7.4-.7.1h-.2v-.2c-.1-.2 0 0 0-.1h1.7l2.7.2h1.3l.2.2c0 .6-.2.3-.1.4h-.1l-1.4.1-2.7.4h-1.1v.3-.1c.2-.3 0-.6 0-.4-.1 0 0 0 0 0H72l2.8.1h.4l.2.1c0-.1.6.4 0 .7v.1h-2.2l-2.6.5s.1.1.2-.4c-.2-.4-.3-.2-.3-.2h1.2l1.4.1 1.3.1.7.1h.7l.2.3-.1.2h-.2l-5.6.6v-.1l5.6-.9-.2.2v.2h.1H73l-1.3-.1h-1.4l-.3-.3c0-.6.2-.3.2-.4 1.1-.4 1.9-.4 2.8-.6h1.4l.7-.1h-.3c-.3.3.2.9.1.8.1 0 0 0 0 0h-.4l-2.8-.3h-1.3l-.3-.2s-.3-.1-.1-.4l.1-.2h.7l.7-.1 2.7-.3 1.4-.1s-.1-.2 0 .4h-1.1l-2.8-.3-1.4-.1H70l-.2-.1c0-.4.2-.3.1-.3h.4l.7-.2 2.8-.3 1.2-.3.7-.1s.1 0 0 0c0 .3.1.1 0 .1h-.4c-1.8-.3-3.6-.4-5.5-.1v-.2h-.1zm2.1 4.5c.3.4.8.7 1.1.6l.6-.2c.2 0 .3-.1.6-.4.3.3.1.8 0 1.1-.3.3-.7.4-1.1.2-.7-.1-1.1-.7-1.2-1.1V92zM66 79.7l-2.7 1.8c-.7.8-1.4 1.3-2.5 2 .4-1.1 1.2-2 2.2-2.6 1-.6 2-1 3-1.2zm-1.3-1.8-1.1.7c-.4.3-.9.3-1.4.1.3-.6.8-.8 1.2-.8l1.4-.1-.1.1zm-1-2.9-3.3 1.3c-1 .6-2 1-3.3 1.2 1-1.1 2.1-1.7 3.2-1.9a19 19 0 0 1 3.6-.9v.1l-.2.2zm-.7-2.8-1.8.3c-.7.1-1.2 0-1.8-.3.6-.4 1.1-.6 1.8-.3l1.8.2v.1zm-.4-2.4-3.8.1c-1.2.1-2.5 0-3.7-.4 1.2-.3 2.5-.4 3.8-.2l3.8.4-.1.1zm.3-3.2-1.3-.3c-.6 0-.9-.2-1.1-.8.6-.2 1-.1 1.3.2l1.1.8v.1zm1.8-2.2-4-2.3c-1.3-.9-2.7-1.7-3.7-2.9a12 12 0 0 1 4 2.3l3.7 2.8v.1zm2.2-2.1c-.4-.1-.9-.3-1.1-.7-.6-.2-.8-.8-.7-1.3h.1c.6.2.8.4 1 .9l.7 1.1zm2.3-1.5-1.1-3c-.5-.9-.7-2-.7-3 .8.9 1.1 1.8 1.2 2.9.3.9.6 1.9.7 2.9l-.1.2zm3-.3-.4-1.6c-.1-.4 0-.9.4-1.3h.1c.2.6.3 1 .1 1.4l-.2 1.2v.3zm3.1.2.6-4c0-1.3.4-2.6 1.1-3.8.1 1.4 0 2.7-.6 4l-1.1 3.8zm2.8 1 .6-1.4c.1-.6.6-.9 1.1-1.1 0 .7-.1 1.1-.6 1.4l-1.1 1.1zm2.4 1.3 3.3-2a8 8 0 0 1 3.7-1.4c-1 1-2.1 1.7-3.3 2L80.6 63h-.1zm2 3.3 1.6-.8c.4-.3 1.1-.4 1.7-.3-.3.7-.9.9-1.4.9l-1.7.3-.2-.1zm.8 3.1 3.9-1.6a8.9 8.9 0 0 1 3.9-1.2c-2.2 1.8-5.1 2.2-7.8 2.9v-.1zm.1 2.9h1.8c.6-.1 1.1 0 1.6.6a2 2 0 0 1-1.8 0l-1.6-.6zm-.6 2.2c1.1.3 2.5.8 3.6 1.4 1.2.5 2.3 1.4 3 2.6-1.2-.6-2.2-1.1-3.3-2l-3.3-2zm-1 2.1 1 .2c.3 0 .6.2.6.8-.4.2-.8 0-.9-.2l-.7-.8zm-1.2 2.1 2 1.4a4 4 0 0 1 1.7 1.9c-1-.2-1.6-.7-2.1-1.4-.5-.6-1.1-1.1-1.6-1.9zm85.5 7.7c.9-2.6-.6-5.2-2.1-7.4a16 16 0 0 1-3.8-7 9.6 9.6 0 0 1 8.4-10.7c3.1-.4 6.3.8 8.3 3.2 2 2.2 2.3 5.3 1.4 7.9-1 2.7-3 4.7-4.7 6.7a8 8 0 0 0-1.9 7.2h-.1a7.6 7.6 0 0 1 1.6-7.6c1.7-2.2 3.6-4.1 4.3-6.6a7 7 0 0 0-1.1-7.1 9 9 0 0 0-6.7-3.3 8.9 8.9 0 0 0-9.1 10.3c.1 2.6 2 4.8 3.5 6.9 1.4 2.1 2.9 4.9 2 7.5z" />
  <path fill="#FFFFFF" d="M168 86c.3-3-.6-6-1.8-8.8-.1-.3 0-.9.3-1.1.3-.4 1-.4 1.3-.1.4.3.2 1.1-.2 1.3-.7.2-1.1-.4-1.1-.9.2-1.1 1.4-1.2 2.2-1.1.4 0 .9.3 1 .9.1.6-.3 1.1-1.1 1-.7-.3-.6-1.1-.2-1.4.3-.3.7-.6 1.1-.7.7-.2 1.9-.6 2.6.6.2.3.1 1.1-.3 1.4-.4.4-1.6 0-1.6-.7 0-.2.1-.7.6-.9.3 0 .7 0 .9.2.6.3.6 1 .4 1.3-.8 3-1.4 5.9-2.5 8.9v-.1c.4-3 1.1-6 1.7-8.9.2-.7-.4-.8-.3-.6 0 .2.7 0 .3-.4-.2-1-3.1.1-2.5.7.3 0 .4-.8-.2-.8-.7-.2-1.6 0-1.6.6 0 .2.2.4.3.4.2 0 .3-.4 0-.6-.3-.4-1.1.2-.9.9 1.3 2.8 1.9 5.9 1.6 8.9zm-2.3 1.4c1.8-.2 3.7-.2 5.6 0h.4s.1-.1.1.2c0 .1 0 0 0 0l-.8.3-1.3.3-2.7.4-.7.1h-.2v-.2c-.1-.2 0 0 0-.1h1.7l2.7.2h1.3l.2.2c0 .6-.2.3-.1.4h-.1l-1.4.1-2.7.4h-1.1v.3-.1c.2-.3 0-.6 0-.4-.1 0 0 0 0 0h1.3l2.8.1h.4l.2.1c0-.1.6.4 0 .7v.1h-2.2l-2.6.6s.1.1.2-.4c-.2-.4-.3-.2-.3-.2h1.2l1.4.1 1.3.1.7.1h.7l.3.2-.1.2h-.2l-5.6.6v-.1l5.6-.9-.1.2v.2h.1-2.6l-1.3-.1h-1.4l-.3-.3c0-.6.2-.3.2-.4 1.1-.4 1.9-.4 2.8-.6h1.4l.7-.1h-.3c-.3.3.2.9.1.8.1 0 0 0 0 0h-.4l-2.8-.3h-1.3l-.2-.1s-.3-.1-.1-.4l.1-.2h.7l.7-.1 2.7-.3 1.4-.1s-.1-.2 0 .4h-1.1l-2.7-.2-1.4-.1h-.3l-.2-.1c0-.4.2-.3.1-.3h.4l.7-.2 2.8-.3 1.2-.3.7-.1s.1 0 0 0c0 .3.1.1 0 .1h-.4c-1.8-.3-3.6-.4-5.5-.1v-.4h-.4zm2.1 4.5c.3.4.8.7 1.1.6l.6-.2c.2 0 .3-.1.6-.4.3.3.1.8 0 1.1-.3.3-.7.4-1.1.2-.7-.1-1.1-.7-1.2-1.1V92zM162 79.7l-2.7 1.8c-.7.8-1.4 1.3-2.5 2 .4-1.1 1.2-2 2.2-2.6 1-.6 2-1 3-1.2zm-1.3-1.8-1.1.7c-.4.3-.9.3-1.4.1.3-.6.8-.8 1.2-.8l1.4-.1-.1.1zm-1-2.9-3.3 1.3c-1 .6-2 1-3.3 1.2 1-1.1 2.1-1.7 3.2-1.9a19 19 0 0 1 3.6-.9v.1l-.2.2zm-.7-2.8-1.8.3c-.7.1-1.2 0-1.8-.3.6-.4 1.1-.6 1.8-.3l1.8.2v.1zm-.4-2.4-3.8.1c-1.2.1-2.5 0-3.7-.4 1.2-.3 2.5-.4 3.8-.2l3.8.4-.1.1zm.3-3.2-1.3-.3c-.6 0-.9-.2-1.1-.8.6-.2 1-.1 1.3.2l1.1.8v.1zm1.8-2.2-4-2.3c-1.3-.9-2.7-1.7-3.7-2.9a12 12 0 0 1 4 2.3l3.7 2.8v.1zm2.2-2.1c-.4-.1-.9-.3-1.1-.7-.6-.2-.8-.8-.7-1.3h.1c.6.2.8.4 1 .9l.7 1.1zm2.3-1.5-1.1-3c-.5-.9-.7-2-.7-3 .8.9 1.1 1.8 1.2 2.9.3.9.6 1.9.7 2.9l-.1.2zm3-.3-.4-1.6c-.1-.4 0-.9.4-1.3h.1c.2.6.3 1 .1 1.4l-.2 1.2v.3zm3.1.2.6-4c0-1.3.4-2.6 1.1-3.8.1 1.4 0 2.7-.6 4l-1.1 3.8zm2.8 1 .6-1.4c.1-.6.6-.9 1.1-1.1 0 .7-.1 1.1-.6 1.4l-1.1 1.1zm2.4 1.3 3.3-2a8 8 0 0 1 3.7-1.4c-1 1-2.1 1.7-3.3 2l-3.6 1.4h-.1zm2 3.3 1.6-.8c.4-.3 1.1-.4 1.7-.3-.3.7-.9.9-1.4.9l-1.7.3-.2-.1zm.8 3.1 3.9-1.6a8.9 8.9 0 0 1 3.9-1.2c-2.2 1.8-5.1 2.2-7.8 2.9v-.1zm.1 2.9h1.8c.6-.1 1.1 0 1.6.6a2 2 0 0 1-1.8 0l-1.6-.6zm-.6 2.2c1.1.3 2.5.8 3.6 1.4 1.2.5 2.3 1.4 3 2.6-1.2-.6-2.2-1.1-3.3-2l-3.3-2zm-1 2.1 1 .2c.3 0 .6.2.6.8-.4.2-.8 0-.9-.2l-.7-.8zm-1.2 2.1 2 1.4a4 4 0 0 1 1.7 1.9c-1-.2-1.6-.7-2.1-1.4-.5-.6-1.1-1.1-1.6-1.9zM70.1 179.1c.9-2.6-.6-5.2-2.1-7.4a16 16 0 0 1-3.8-7 9.6 9.6 0 0 1 8.4-10.7c3.1-.4 6.3.8 8.3 3.2 2 2.2 2.3 5.3 1.4 7.9-1 2.7-3 4.7-4.7 6.7a8 8 0 0 0-1.9 7.2h-.1a7.6 7.6 0 0 1 1.6-7.6c1.7-2.2 3.6-4.1 4.3-6.6a7 7 0 0 0-1.1-7.1 9 9 0 0 0-6.7-3.3 8.9 8.9 0 0 0-9.1 10.3c.1 2.6 2 4.8 3.5 6.9 1.4 2.2 2.9 5 2 7.5z" />
  <path fill="#FFFFFF" d="M72 178.8c.3-3-.6-6-1.8-8.8-.1-.3 0-.9.3-1.1.3-.4 1-.4 1.3-.1.4.3.2 1.1-.2 1.3-.7.2-1.1-.4-1.1-.9.2-1.1 1.4-1.2 2.2-1.1.4 0 .9.3 1 .9.1.6-.3 1.1-1.1 1-.7-.3-.6-1.1-.2-1.4.3-.3.7-.6 1.1-.7.7-.2 1.9-.6 2.6.6.2.3.1 1.1-.3 1.4-.4.4-1.6 0-1.6-.7 0-.2.1-.7.6-.9.3 0 .7 0 .9.2.6.3.6 1 .4 1.3-.8 3-1.4 5.9-2.5 8.9v-.1c.4-3 1.1-6 1.7-8.9.2-.7-.4-.8-.3-.6 0 .2.7 0 .3-.4-.2-1-3.1.1-2.5.7.3 0 .4-.8-.2-.8-.7-.2-1.6 0-1.6.6 0 .2.2.4.3.4.2 0 .3-.4 0-.6-.3-.4-1.1.2-.9.9 1.3 2.8 1.9 5.9 1.6 8.9zm-2.3 1.3c1.8-.2 3.7-.2 5.6 0h.4s.1-.1.1.2c0 .1 0 0 0 0l-.8.3-1.3.3-2.7.4-.7.1h-.2v-.2c-.1-.2 0 0 0-.1h1.7l2.7.2h1.3l.2.2c0 .6-.2.3-.1.4h-.1l-1.4.1-2.7.4h-1.1v.1-.1c.2-.3 0-.6 0-.4-.1 0 0 0 0 0H72l2.8.1h.4l.2.1c0-.1.6.4 0 .7v.1h-2.2l-2.6.6s.1.1.2-.4c-.2-.4-.3-.2-.3-.2h1.2l1.4.1 1.3.1.7.1h.7l.1.3-.1.2h-.2l-5.6.6v-.1l5.6-.9-.1.2v.2h.1H73l-1.3-.1h-1.4l-.3-.3c0-.6.2-.3.2-.4 1.1-.4 1.9-.4 2.8-.6h1.4l.7-.1h-.3c-.3.3.2.9.1.8.1 0 0 0 0 0h-.4l-2.8-.3h-1.3l-.2-.1s-.3-.1-.1-.4l.1-.2h.7l.7-.1 2.7-.3 1.4-.1s-.1-.2 0 .4h-1.1l-2.7-.2-1.4-.1h-.3l-.2-.1c0-.4.2-.3.1-.3h.4l.5-.3 2.8-.3 1.2-.3.7-.1s.1 0 0 0c0 .3.1.1 0 .1h-.4c-1.8-.3-3.6-.4-5.5-.1v-.2h-.1zm2.1 4.6c.3.4.8.7 1.1.6l.6-.2c.2 0 .3-.1.6-.4.3.3.1.8 0 1.1-.3.3-.7.4-1.1.2-.7-.1-1.1-.7-1.2-1.1v-.1zM66 172.5l-2.7 1.8c-.7.8-1.4 1.3-2.5 2 .4-1.1 1.2-2 2.2-2.6 1-.6 2-1 3-1.2zm-1.3-1.8-1.1.7c-.4.3-.9.3-1.4.1.3-.6.8-.8 1.2-.8l1.4-.1-.1.1zm-1-2.9-3.3 1.3c-1 .6-2 1-3.3 1.2 1-1.1 2.1-1.7 3.2-1.9a19 19 0 0 1 3.6-.9v.1l-.2.2zM63 165l-1.8.3c-.7.1-1.2 0-1.8-.3.6-.4 1.1-.6 1.8-.3l1.8.2v.1zm-.4-2.5-3.8.1c-1.2.1-2.5 0-3.7-.4 1.2-.3 2.5-.4 3.8-.2l3.8.4-.1.1zm.3-3.1-1.3-.3c-.6 0-.9-.2-1.1-.8.6-.2 1-.1 1.3.2l1.1.8v.1zm1.8-2.2-4-2.3c-1.3-.9-2.7-1.7-3.7-2.9a12 12 0 0 1 4 2.3l3.7 2.8v.1zm2.2-2.1c-.4-.1-.9-.3-1.1-.7-.6-.2-.8-.8-.7-1.3h.1c.6.2.8.4 1 .9l.7 1.1zm2.3-1.5-1.1-3c-.5-.9-.7-2-.7-3 .8.9 1.1 1.8 1.2 2.9.3.9.6 1.9.7 2.9l-.1.2zm3-.3-.4-1.6c-.1-.4 0-.9.4-1.3h.1c.2.6.3 1 .1 1.4l-.2 1.2v.3zm3.1.2.6-4c0-1.3.4-2.6 1.1-3.8.1 1.4 0 2.7-.6 4l-1.1 3.8zm2.8 1 .6-1.4c.1-.6.6-.9 1.1-1.1 0 .7-.1 1.1-.6 1.4l-1.1 1.1zm2.4 1.2 3.3-2a8 8 0 0 1 3.7-1.4c-1 1-2.1 1.7-3.3 2l-3.6 1.4h-.1zm2 3.4 1.6-.8c.4-.3 1.1-.4 1.7-.3-.3.7-.9.9-1.4.9l-1.7.3-.2-.1zm.8 3.1 3.9-1.6a8.9 8.9 0 0 1 3.9-1.2c-2.2 1.8-5.1 2.2-7.8 2.9v-.1zm.1 2.9h1.8c.6-.1 1.1 0 1.6.6a2 2 0 0 1-1.8 0l-1.6-.6zm-.6 2.2c1.1.3 2.5.8 3.6 1.4 1.2.5 2.3 1.4 3 2.6-1.2-.6-2.2-1.1-3.3-2l-3.3-2zm-1 2 1 .2c.3 0 .6.2.6.8-.4.2-.8 0-.9-.2l-.7-.8zm-1.2 2.1 2 1.4a4 4 0 0 1 1.7 1.9c-1-.2-1.6-.7-2.1-1.4-.5-.5-1.1-1.1-1.6-1.9zm85.5 7.7c.9-2.6-.6-5.2-2.1-7.4a16 16 0 0 1-3.8-7 9.6 9.6 0 0 1 8.4-10.7c3.1-.4 6.3.8 8.3 3.2 2 2.2 2.3 5.3 1.4 7.9-1 2.7-3 4.7-4.7 6.7a8 8 0 0 0-1.9 7.2h-.1a7.6 7.6 0 0 1 1.6-7.6c1.7-2.2 3.6-4.1 4.3-6.6a7 7 0 0 0-1.1-7.1 9 9 0 0 0-6.7-3.3 8.9 8.9 0 0 0-9.1 10.3c.1 2.6 2 4.8 3.5 6.9 1.4 2.2 2.9 5 2 7.5z" />
  <path fill="#FFFFFF" d="M168 178.8c.3-3-.6-6-1.8-8.8-.1-.3 0-.9.3-1.1.3-.4 1-.4 1.3-.1.4.3.2 1.1-.2 1.3-.7.2-1.1-.4-1.1-.9.2-1.1 1.4-1.2 2.2-1.1.4 0 .9.3 1 .9.1.6-.3 1.1-1.1 1-.7-.3-.6-1.1-.2-1.4.3-.3.7-.6 1.1-.7.7-.2 1.9-.6 2.6.6.2.3.1 1.1-.3 1.4-.4.4-1.6 0-1.6-.7 0-.2.1-.7.6-.9.3 0 .7 0 .9.2.6.3.6 1 .4 1.3-.8 3-1.4 5.9-2.5 8.9v-.1c.4-3 1.1-6 1.7-8.9.2-.7-.4-.8-.3-.6 0 .2.7 0 .3-.4-.2-1-3.1.1-2.5.7.3 0 .4-.8-.2-.8-.7-.2-1.6 0-1.6.6 0 .2.2.4.3.4.2 0 .3-.4 0-.6-.3-.4-1.1.2-.9.9 1.3 2.8 1.9 5.9 1.6 8.9zm-2.3 1.3c1.8-.2 3.7-.2 5.6 0h.4s.1-.1.1.2c0 .1 0 0 0 0l-.8.3-1.3.3-2.7.4-.7.1h-.2v-.2c-.1-.2 0 0 0-.1h1.7l2.7.2h1.3l.2.2c0 .6-.2.3-.1.4h-.1l-1.4.1-2.7.4h-1.1v.1-.1c.2-.3 0-.6 0-.4-.1 0 0 0 0 0h1.3l2.8.1h.4l.2.1c0-.1.6.4 0 .7v.1h-2.2l-2.6.6s.1.1.2-.4c-.2-.4-.3-.2-.3-.2h1.2l1.4.1 1.3.1.7.1h.7l.1.3-.1.2h-.2l-5.6.6v-.1l5.6-.9-.1.2v.2h.1-2.6l-1.3-.1h-1.4l-.3-.3c0-.6.2-.3.2-.4 1.1-.4 1.9-.4 2.8-.6h1.4l.7-.1h-.3c-.3.3.2.9.1.8.1 0 0 0 0 0h-.4l-2.8-.3h-1.3l-.2-.1s-.3-.1-.1-.4l.1-.2h.7l.7-.1 2.7-.3 1.4-.1s-.1-.2 0 .4h-1.1l-2.7-.2-1.4-.1h-.3l-.2-.1c0-.4.2-.3.1-.3h.4l.7-.2 2.8-.3 1.2-.3.7-.1s.1 0 0 0c0 .3.1.1 0 .1h-.4c-1.8-.3-3.6-.4-5.5-.1v-.3h-.2zm2.1 4.6c.3.4.8.7 1.1.6l.6-.2c.2 0 .3-.1.6-.4.3.3.1.8 0 1.1-.3.3-.7.4-1.1.2-.7-.1-1.1-.7-1.2-1.1v-.1zm-5.8-12.2-2.7 1.8c-.7.8-1.4 1.3-2.5 2 .4-1.1 1.2-2 2.2-2.6 1-.6 2-1 3-1.2zm-1.3-1.8-1.1.7c-.4.3-.9.3-1.4.1.3-.6.8-.8 1.2-.8l1.4-.1-.1.1zm-1-2.9-3.3 1.3c-1 .6-2 1-3.3 1.2 1-1.1 2.1-1.7 3.2-1.9a19 19 0 0 1 3.6-.9v.1l-.2.2zm-.7-2.8-1.8.3c-.7.1-1.2 0-1.8-.3.6-.4 1.1-.6 1.8-.3l1.8.2v.1zm-.4-2.5-3.8.1c-1.2.1-2.5 0-3.7-.4 1.2-.3 2.5-.4 3.8-.2l3.8.4-.1.1zm.3-3.1-1.3-.3c-.6 0-.9-.2-1.1-.8.6-.2 1-.1 1.3.2l1.1.8v.1zm1.8-2.2-4-2.3c-1.3-.9-2.7-1.7-3.7-2.9a12 12 0 0 1 4 2.3l3.7 2.8v.1zm2.2-2.1c-.4-.1-.9-.3-1.1-.7-.6-.2-.8-.8-.7-1.3h.1c.6.2.8.4 1 .9l.7 1.1zm2.3-1.5-1.1-3c-.5-.9-.7-2-.7-3 .8.9 1.1 1.8 1.2 2.9.3.9.6 1.9.7 2.9l-.1.2zm3-.3-.4-1.6c-.1-.4 0-.9.4-1.3h.1c.2.6.3 1 .1 1.4l-.2 1.2v.3zm3.1.2.6-4c0-1.3.4-2.6 1.1-3.8.1 1.4 0 2.7-.6 4l-1.1 3.8zm2.8 1 .6-1.4c.1-.6.6-.9 1.1-1.1 0 .7-.1 1.1-.6 1.4l-1.1 1.1zm2.4 1.2 3.3-2a8 8 0 0 1 3.7-1.4c-1 1-2.1 1.7-3.3 2l-3.6 1.4h-.1zm2 3.4 1.6-.8c.4-.3 1.1-.4 1.7-.3-.3.7-.9.9-1.4.9l-1.7.3-.2-.1zm.8 3.1 3.9-1.6a8.9 8.9 0 0 1 3.9-1.2c-2.2 1.8-5.1 2.2-7.8 2.9v-.1zm.1 2.9h1.8c.6-.1 1.1 0 1.6.6a2 2 0 0 1-1.8 0l-1.6-.6zm-.6 2.2c1.1.3 2.5.8 3.6 1.4 1.2.5 2.3 1.4 3 2.6-1.2-.6-2.2-1.1-3.3-2l-3.3-2zm-1 2 1 .2c.3 0 .6.2.6.8-.4.2-.8 0-.9-.2l-.7-.8zm-1.2 2.1 2 1.4a4 4 0 0 1 1.7 1.9c-1-.2-1.6-.7-2.1-1.4-.5-.5-1.1-1.1-1.6-1.9z" />
</svg>