<svg width="192px" height="192px" xmlns="http://www.w3.org/2000/svg" xml:space="preserve" viewBox="0 0 40 40">
  <title>Downloaded from https://www.dreamstale.com/downloads/light-bulb-free-svg-clipart/</title>
  <path fill="currentcolor" d="M15.8 31.6c.8-2.3-.5-4.7-1.9-6.6-1.4-1.8-3-3.8-3.4-6.3a8.6 8.6 0 0 1 15-6.7c1.8 2 2.1 4.8 1.3 7.1-.9 2.4-2.7 4.2-4.2 6a7.3 7.3 0 0 0-1.7 6.5h-.1a7 7 0 0 1 1.4-6.8c1.5-2 3.2-3.7 3.9-5.9.8-2.2.5-4.7-1-6.4a8.1 8.1 0 0 0-6-3 8 8 0 0 0-8.2 9.2C11 21 12.7 23 14 24.9c1.3 1.9 2.6 4.4 1.8 6.7z" />
  <path fill="currentcolor" d="M17.5 31.3c.3-2.7-.5-5.4-1.6-7.9-.1-.3 0-.8.3-1 .3-.4.9-.4 1.2-.1.4.3.2 1-.2 1.2-.6.2-1-.4-1-.8.2-1 1.3-1.1 2-1 .4 0 .8.3.9.8.1.5-.3 1-1 .9-.6-.3-.5-1-.2-1.3a2 2 0 0 1 1-.6c.6-.2 1.7-.5 2.3.5.2.3.1 1-.3 1.3-.4.4-1.4 0-1.4-.6 0-.2.1-.6.5-.8.3 0 .6 0 .8.2.5.3.5.9.4 1.2-.7 2.7-1.3 5.3-2.2 8v-.1c.4-2.7 1-5.4 1.5-8 .2-.6-.4-.7-.3-.5 0 .2.6 0 .3-.4-.2-.9-2.8.1-2.2.6.3 0 .4-.7-.2-.7-.6-.2-1.4 0-1.4.5 0 .2.2.4.3.4.2 0 .3-.4 0-.5-.3-.4-1 .2-.8.8a15 15 0 0 1 1.4 8l-.1-.1zm-2 1.2c1.6-.2 3.3-.2 5 0h.4s.1-.1.1.2c0 .1 0 0 0 0l-.7.3-1.2.3-2.4.4-.6.1h-.2v-.2c-.1-.2 0 0 0-.1h1.5l2.4.2H21l.2.2c0 .5-.2.3-.1.4H21l-1.3.1-2.4.4h-1v.1-.1c.2-.3 0-.5 0-.4-.1 0 0 0 0 0h1.2l2.5.1h.4l.2.1c0-.1.5.4 0 .6v.1h-2l-2.3.5s.1.1.2-.4c-.2-.4-.3-.2-.3-.2h1.1l1.3.1 1.2.1.6.1h.6l.1.3-.1.2h-.2l-5 .5v-.1l5-.8-.1.2v.2h.1-2.3l-1.2-.1H16l-.3-.3c0-.5.2-.3.2-.4 1-.4 1.7-.4 2.5-.5h1.3l.6-.1H20c-.3.3.2.8.1.7.1 0 0 0 0 0h-.4l-2.5-.3H16l-.2-.1s-.3-.1-.1-.4l.1-.2h.6l.6-.1 2.4-.3 1.3-.1s-.1-.2 0 .4h-1l-2.4-.2-1.3-.1h-.3l-.2-.1c0-.4.2-.3.1-.3h.4l.6-.2 2.5-.3c.4 0 .7-.2 1.1-.3l.6-.1s.1 0 0 0c0 .3.1.1 0 .1h-.4a16 16 0 0 0-4.9-.1v-.1zm1.9 4.1c.3.4.7.6 1 .5.3 0 .4-.1.5-.2.2 0 .3-.1.5-.4.3.3.1.7 0 1a1 1 0 0 1-1 .2c-.6-.1-1-.6-1.1-1v-.1zm-5.2-11-2.4 1.6c-.6.7-1.3 1.2-2.2 1.8a4 4 0 0 1 2-2.3c.8-.5 1.7-.9 2.6-1.1zM11 24l-1 .6c-.4.3-.8.3-1.3.1.3-.5.7-.7 1.1-.7l1.3-.1zm-.9-2.6-3 1.2c-.9.5-1.8.9-3 1.1C5 22.7 6 22.2 7 22c1-.4 2.1-.6 3.2-.8v.1zm-.6-2.5-1.6.3c-.6.1-1.1 0-1.6-.3.5-.4 1-.5 1.6-.3l1.6.2v.1zm-.4-2.2-3.4.1c-1.1.1-2.2 0-3.3-.4 1.1-.3 2.2-.4 3.4-.2l3.4.4zm.3-2.8-1.2-.3c-.5 0-.8-.2-1-.7.5-.2.9-.1 1.2.2l1 .7zm1.6-2L7.4 9.8C6.2 9 5 8.3 4.1 7.2c1.4.5 2.6 1.2 3.6 2.1l3.3 2.5v.1zm2-1.9c-.4-.1-.8-.3-1-.6-.5-.2-.7-.7-.6-1.2h.1c.5.2.7.4.9.8l.6 1zm2-1.3L14 6a6 6 0 0 1-.6-2.7c.7.8 1 1.6 1.1 2.6.3.8.5 1.7.6 2.6zm2.7-.3L17.3 7c-.1-.4 0-.8.4-1.2h.1c.2.5.3.9.1 1.3l-.2 1.1zm2.8.2L21 5a7 7 0 0 1 1-3.4c.1 1.3 0 2.4-.5 3.6l-1 3.4zm2.5.9.5-1.3c.1-.5.5-.8 1-1 0 .6-.1 1-.5 1.3l-1 1zm2.2 1.1 3-1.8c1-.7 2.1-1.1 3.3-1.3-.9.9-1.9 1.5-3 1.8l-3.2 1.3zm1.8 3 1.4-.7c.4-.3 1-.4 1.5-.3-.3.6-.8.8-1.3.8l-1.5.3zm.7 2.8 3.5-1.4a8 8 0 0 1 3.5-1.1c-2 1.6-4.6 2-7 2.6zm.1 2.6h1.6c.5-.1 1 0 1.4.5-.6.3-1 .3-1.6 0l-1.4-.5zm-.6 2c1 .3 2.2.7 3.2 1.3a6 6 0 0 1 2.7 2.3c-1.1-.5-2-1-3-1.8l-3-1.8zm-.9 1.8.9.2c.3 0 .5.2.5.7-.4.2-.7 0-.8-.2l-.6-.7zm-1 1.9 1.8 1.3c.7.4 1.2 1 1.5 1.7-.9-.2-1.4-.6-1.9-1.3-.5-.5-1-1-1.4-1.7z" />
</svg>
