<svg xmlns="http://www.w3.org/2000/svg" xml:space="preserve" width="686.861px" height="185.581px" x="0px" y="0px" viewBox="0 0 686.861 185.581">
  <path d="M49.8 102.7c0-.5 0-.8.2-1.1.2-.3.5-.5 1-.5 1.2 0 2.3-.3 3.5-.6 1.2-.3 1.8-.9 2-1.6l5.6-38v-.6c0-.8-.3-1.5-.8-1.8-.6-.4-1.2-.7-2-.8a23 23 0 0 0-2-.3c-.8 0-1.2-.3-1.2-.7V56l.5-1c.3-.5.7-.8 1.1-.8h17.8c.4 0 .6.3.7.7.1.5.2.9.1 1.1 0 .8-.6 1.2-1.4 1.3l-3.5.6c-1.2.3-1.8.9-2 1.7l-5.5 38v.6c0 .8.2 1.4.8 1.8.5.3 1.1.6 2 .7a165.5 165.5 0 0 0 2.9.5c.2.2.3.4.3.7v.4l-.5 1.1c-.3.5-.6.7-1 .7H50.6a.8.8 0 0 1-.7-.5l-.1-1zm26.5-.3c0-.8.4-1.2 1.2-1.3l2.6-.3 2.4-.7c.6-.3 1-.7 1-1.2l5.8-38c.1-1-.2-1.8-.8-2.3S87 58 86 57.7l-2.5-.3c-.7 0-1-.3-1-.8v-.5c0-.2.1-.6.4-1 .3-.5.6-.8 1-.8h16.7c5.3 0 9.7.7 13 2s6 2.9 7.9 5a17 17 0 0 1 3.8 6.7 30.8 30.8 0 0 1-2.6 22.6 25 25 0 0 1-10.6 10 36.3 36.3 0 0 1-16.8 3.6h-18c-.4 0-.7-.2-.9-.7-.1-.5-.2-.8-.1-1zm14.6-3.6.4 1.1c.2.3.7.5 1.4.6l4.2.2a23 23 0 0 0 11.3-2.7 18 18 0 0 0 7.5-8.3 34 34 0 0 0 2.6-14.6c0-6.2-1.6-10.7-4.7-13.5-3.2-2.8-8-4.2-14.2-4.2H97l-6.1 41.4zm57.6 5.4c-.4 0-.6-.2-.8-.7-.1-.5-.2-.8-.1-1 0-.9.4-1.3 1.2-1.4 1.4 0 2.7-.3 4-.6 1.3-.3 2-.9 2-1.6l5.6-38c.1-1-.1-1.8-.7-2.3a7 7 0 0 0-2.3-.9l-2.6-.3c-.8 0-1.1-.3-1.1-.8s.1-1 .4-1.5c.2-.5.6-.8 1-.8h35.7l-.2 12.3c-.1.4-.3.7-.7.9l-1 .3c-.4 0-.7 0-1-.3-.2-.1-.3-.4-.3-.9a18 18 0 0 0-1.3-5.1 9 9 0 0 0-1.9-2.9 4 4 0 0 0-3-1.2h-13.2l-3 20.8h9c.5-.1 1-.6 1.6-1.4A28.7 28.7 0 0 0 178 72c0-.5.3-.8.7-1l1.2-.2.8.3c.4.2.5.5.5 1l-1.8 15.5c0 .4-.2.7-.6 1a3 3 0 0 1-1.1.2c-.4 0-.8 0-1.1-.2-.4-.2-.6-.5-.6-1s0-1.2-.2-2.3c-.1-1-.4-2-.7-2.8-.4-.9-1-1.3-1.6-1.3h-8.7l-2.4 16c0 1 .4 1.9 1.3 2.4 1 .6 2.2 1 3.5 1.2l3.5.3c.4 0 .7.1 1 .3.2.1.2.5.2 1l-.3 1.1c-.2.5-.4.7-.8.7h-22.3zm55.8 31c-.9 0-1.9-.2-3-.6a14 14 0 0 1-6.1-5.5 29 29 0 0 1-2.8-13.1 28.1 28.1 0 0 1 2.8-13.1 12.3 12.3 0 0 1 6.2-5.5c1-.4 2-.6 3-.6v1.7l-1.7.3c-.6.3-1.3.7-2 1.4s-1.4 1.6-2 2.9c-.7 1.3-1.2 3-1.6 5a57.2 57.2 0 0 0 0 15.7c.4 2 1 3.8 1.6 5a9.8 9.8 0 0 0 2 3 6 6 0 0 0 2 1.3l1.6.4v1.7zm7.9-6.6c-.6 0-1.1 0-1.7-.3-.6-.1-1-.5-1.4-1a4 4 0 0 1-.6-2.3 11 11 0 0 1 .1-1.4L211 110h-2.2c-.2 0-.3-.1-.3-.3l-.1-.5c0-.3 0-.6.2-.7l.4-.4c.8 0 1.5-.3 2.1-.6a6 6 0 0 0 1.7-1.8c.6-.8 1.1-2 1.7-3.4.1-.3.4-.5.8-.5h.7c.3 0 .4.1.4.3l-1 5.8h4.9c.3 0 .4.2.4.5s0 .6-.2 1l-.5.6h-5l-2.1 12.3a6.7 6.7 0 0 0-.1 1.6c0 1 .1 1.6.5 1.9.3.2.7.4 1.2.4l1.5-.3 1.2-.6.7-.2s.2 0 .3.3l.3.6-.2.4a9.6 9.6 0 0 1-6 2.3z"/>
  <path d="M219.1 137.4c-1.2 0-2-.3-2.7-1-.5-.7-.8-1.4-.8-2 0-.5.1-1 .4-1.3l1-1 .9-.3c.6 0 1 .2 1 .5l1 3a2 2 0 0 0 1.1-.3c.4-.1.7-.5 1-1s.7-1.3 1-2.4l.9-4.6 2.4-15.3c0-.6-.2-1-.5-1.3a3 3 0 0 0-1.3-.5l-1.2-.2a.7.7 0 0 1-.4-.6l.2-.7c.1-.3.3-.4.5-.4a105.3 105.3 0 0 1 7 0v.6l-2.7 17.8c-.3 1.9-.8 3.6-1.6 5.3s-1.8 3-3 4.1a6.2 6.2 0 0 1-4.2 1.6zm10-33.5a2 2 0 0 1-1.5-.6c-.4-.4-.6-1-.6-1.6 0-1 .3-1.8.9-2.4.5-.7 1.2-1 2-1 .7 0 1.3.2 1.6.6.4.4.6 1 .6 1.7 0 .9-.3 1.7-.9 2.3-.6.7-1.3 1-2 1zm5.7 31.3v-1.7l1.6-.4a6 6 0 0 0 2-1.3 17.3 17.3 0 0 0 3.6-8 55.6 55.6 0 0 0 0-15.6 22 22 0 0 0-1.6-5.1 9.8 9.8 0 0 0-2-3 6 6 0 0 0-2-1.3 5 5 0 0 0-1.6-.3v-1.7c.9 0 1.9.2 3 .6a14 14 0 0 1 6.1 5.5 28.6 28.6 0 0 1 2.8 13.1 29 29 0 0 1-2.8 13 14 14 0 0 1-3 3.6 10 10 0 0 1-3.2 2 8 8 0 0 1-3 .6zM265 94.6l.6-5h32.6l-.6 5H265zm1.3-14.9.6-5h32.6l-.6 5h-32.6zM327 95.8a9538.3 9538.3 0 0 1 6-39.7c0-.8-.3-1.3-.9-1.7s-1.2-.5-2-.6-1.4-.4-2-.6c-.6-.2-.9-.6-.9-1.2l.3-1c.2-.6.5-.8.8-.9a319.3 319.3 0 0 1 12-.1l.2.8a177.2 177.2 0 0 1-1.1 7.6 11109.3 11109.3 0 0 0-6 40.6c0 .6.1 1 .4 1.3.3.4.9.5 1.6.5.5 0 1.2 0 2-.3l1.6-.3c.2 0 .4 0 .6.2.1 0 .2.4.2.9 0 .3 0 .6-.2.9 0 .2-.3.5-.6.6a57 57 0 0 1-8.3 1.9c-1.4 0-2.3-.3-3-.7s-1-1-1-1.7l-.3-1.7v-1.4c.2-.5.3-1.6.6-3.4zm19.3-6.5a22.8 22.8 0 0 1 5-14.2c1.5-2 3.5-3.6 5.7-4.8a16 16 0 0 1 7.6-1.7c3.2 0 5.9.7 8 2 2 1.4 3.4 3.3 4.4 5.6s1.4 5 1.4 8a26 26 0 0 1-2.2 10.5c-1.5 3.2-3.5 5.7-6.2 7.6s-6 2.9-9.8 2.9c-3.2 0-5.8-.7-7.8-2s-3.6-3.3-4.6-5.7-1.5-5.1-1.5-8.2zm13.8 12.8c2 0 3.6-.5 5-1.7 1.3-1.1 2.4-2.6 3.3-4.5s1.4-4 1.8-6.3.6-4.7.6-7c0-3.3-.4-5.9-1.2-8-.8-2-2.5-3-5-3-2 0-3.7.6-5 1.7s-2.6 2.7-3.4 4.5c-.9 2-1.5 4-1.9 6.3s-.5 4.6-.5 6.9c0 3.3.4 6 1.2 8 .8 2 2.5 3.1 5.1 3.1zm37.5 18.9c-3 0-5.9-.4-8.3-1.4-2.5-1-4.4-2.2-5.8-3.8s-2-3.4-2-5.4c0-2.2.5-4 1.6-5.4s2.5-2.4 4.5-3.2l-1-1.6c-.3-.6-.3-1.3-.3-2a7 7 0 0 1 1.9-5.1c1.2-1.2 2.8-2.1 4.8-2.7a9.1 9.1 0 0 1-3.4-2.4c-1-1-1.6-2.1-2.1-3.3a8.5 8.5 0 0 1-.7-3.2 12 12 0 0 1 4.3-9.5c2.7-2.3 6.6-3.4 11.5-3.4 4.4 0 7.7 1.2 9.8 3.5a13 13 0 0 1 3-2.4 7.6 7.6 0 0 1 3.8-1.1c1.6 0 2.7.4 3.4 1.1s1 1.9 1 3.3c0 1.3-.3 2.3-1 3-.7.6-1.4.9-2.2.9-.8 0-1.5-.4-2-1a11.5 11.5 0 0 1-1.7-2.8c-.2-.4-.6-.4-1.3 0l-1.8.9c.3.2.6.7 1 1.5.3.8.4 1.7.4 2.6a13.3 13.3 0 0 1-6.8 11.7c-2.3 1.2-5 1.8-8.4 1.8a35 35 0 0 1-4-.3c-.9.3-1.7.8-2.5 1.6s-1.2 1.7-1.2 2.5.3 1.5 1 2.1 1.7.9 2.9 1l8.6.9c3.7.4 6.5 1.2 8.4 2.4s2.8 3 2.8 5.7c0 3.2-.8 5.8-2.5 7.8s-4 3.5-6.8 4.4-5.7 1.4-8.9 1.4zm.4-3.3c2.1 0 4.2-.3 6-.7s3.6-1.3 4.8-2.4a6 6 0 0 0 1.9-4.6 3 3 0 0 0-1.6-2.8c-1.1-.7-2.5-1.1-4-1.4l-5-.7-4.6-.5c-1 0-2-.2-3-.4l-2.7-.8c-.8.6-1.3 1.4-1.5 2.4-.3 1-.4 2-.4 3.4 0 2 .5 3.8 1.5 5 1 1.2 2.3 2.1 3.8 2.7 1.5.5 3.1.8 4.8.8zm2.1-29.5c3 0 5-1 6.2-2.7 1.1-1.8 1.7-4.2 1.7-7.2 0-1.8-.5-3.3-1.5-4.6-1-1.3-2.6-2-4.7-2-2.2 0-4 .5-5.1 1.5-1.2 1-2 2.2-2.4 3.7s-.6 3-.6 4.7c0 1.8.5 3.4 1.6 4.6 1 1.3 2.7 2 4.8 2zm25.3 29.7.1-.5c0-.3.2-.5.5-.7a39.3 39.3 0 0 0 8-6.2 18 18 0 0 0 3-4 8.5 8.5 0 0 0 1-4 5 5 0 0 0-.6-2.3c-.5-.7-1.3-1-2.3-1-1 0-1.8.1-2.4.4-.5.4-.9.9-1.1 1.4a118.9 118.9 0 0 0-1.4 2.7c-.2.2-.5.4-1 .4-.3 0-.7-.2-1.1-.4-.5-.2-.7-.6-.7-1.2 0-.4.2-.8.5-1.4.4-.6.9-1 1.6-1.6a11 11 0 0 1 6-1.7c2 0 3.7.5 5 1.5a5 5 0 0 1 1.7 3.8 7 7 0 0 1-1 3.5c-.7 1.2-1.6 2.3-2.7 3.4a26.4 26.4 0 0 1-7.4 5h10l-.6 2.9h-15zm42.3-1.7c-1.5 0-3.2-.4-5-1-1.8-.8-3.7-1.9-5.5-3.4s-3.5-3.6-5-6.2-2.7-5.6-3.6-9.3-1.4-8-1.4-13 .5-9.4 1.4-13 2.1-6.9 3.6-9.4c1.5-2.6 3.2-4.6 5-6.2a17.4 17.4 0 0 1 10.5-4.3v2.9a9.2 9.2 0 0 0-6.3 2.9 16.9 16.9 0 0 0-3.3 5 35 35 0 0 0-2.6 8.6c-.7 3.6-1 8.1-1 13.5s.3 9.8 1 13.4c.6 3.6 1.5 6.5 2.6 8.7s2.2 3.8 3.4 5c1.2 1.1 2.4 1.9 3.5 2.3s2 .5 2.7.5v3zm3.8-12a.8.8 0 0 1-.7-.5l-.2-1c0-1 .4-1.5 1.3-1.6l2.5-.3c.9-.2 1.7-.5 2.4-.9s1.2-1 1.3-1.7l6.2-36.3v-.5c0-1-.2-1.7-.8-2.2-.6-.6-1.3-1-2.2-1.3-.8-.3-1.5-.4-2.2-.5-1 0-1.5-.5-1.4-1.3 0-.2.1-.6.4-1 .3-.5.6-.8 1-.8h12.4l21.2 38.9h.4l5.2-32.4v-.4a2 2 0 0 0-1.2-2 8 8 0 0 0-2.7-.7l-2.5-.3c-.7 0-1-.3-1-.8 0-.4.1-1 .4-1.5s.7-.8 1-.8h16.4c.4 0 .7.3.8.7.2.5.2.9.2 1.1-.2.8-.7 1.2-1.5 1.3-.7 0-1.5.2-2.4.4a7 7 0 0 0-2.5.8 3 3 0 0 0-1.4 2.2l-6.5 39.4v1.1l-.1 1.5c-.1 1-.4 1.6-1 2a3 3 0 0 1-1.6.5l-1.2-.3a2 2 0 0 1-.9-.5l-22.3-41.7h-.6L482 98.4c-.1.8.2 1.3 1 1.7s1.8.6 2.9.7a118.8 118.8 0 0 1 3.5.5c.2.2.3.4.3.7 0 .8-.1 1.3-.4 1.7s-.7.5-1 .5h-16.7zm55.5 14.6 27.3-71.7h4.8l-27.4 71.7h-4.8zm69-41.5L592.8 98v.8c0 .6 0 1 .4 1.4.3.4.8.5 1.6.5.5 0 1.1 0 1.9-.3l1.6-.3c.2 0 .4 0 .6.2.2 0 .3.4.3.9 0 .7-.3 1.2-.9 1.5a21.4 21.4 0 0 1-8.2 1.9c-1.4 0-2.4-.3-3-.7s-1-1-1.1-1.7l-.2-1.7v-1.4l3.4-22.6.1-.4v-.5c0-.9-.2-1.5-.8-1.8a5 5 0 0 0-2.4-.4c-1.3 0-2.7.3-4.1 1s-3 1.6-4.2 2.6a17 17 0 0 0-3 3l-3.9 24.2h-6.7l4.2-27.3.1-.6V76c0-1.1-.3-1.9-.9-2.3a4 4 0 0 0-2-.8l-1.8-.3-.5-.5c-.2-.2-.2-.5-.1-1l.3-1c.2-.3.4-.5.7-.5a172.7 172.7 0 0 1 10.7-.3c.2 0 .4 0 .6.2.3.2.3.6.2 1.2l-.9 6a102.3 102.3 0 0 1 5.3-4.8c1.2-.9 2.6-1.7 4.1-2.3s3-1 4.7-1c1.2 0 2.4.2 3.5.6s2 1 2.7 2c.7 1 1 2.4 1 4.2v2zm4.7 60.1c-1.2 0-2-.3-2.6-1-.6-.7-1-1.4-1-2 0-.5.2-1 .5-1.3l1-1c.4-.2.6-.3 1-.3.5 0 .8.2 1 .5l1 3c.4 0 .7-.1 1-.3.4-.1.8-.5 1.1-1 .3-.5.7-1.3 1-2.4l.8-4.6 2.5-15.3c0-.6-.2-1-.6-1.3a3 3 0 0 0-1.2-.5l-1.2-.2c-.3-.1-.4-.3-.4-.6s0-.5.2-.7c0-.3.2-.4.4-.4a105.3 105.3 0 0 1 7 0l.1.6-2.8 17.8c-.3 1.9-.8 3.6-1.6 5.3-.8 1.7-1.8 3-3 4.1a6.2 6.2 0 0 1-4.2 1.6zm10-33.5a2 2 0 0 1-1.5-.6c-.4-.4-.6-1-.6-1.6 0-1 .3-1.8.9-2.4.5-.7 1.3-1 2.1-1 .7 0 1.2.2 1.5.6.4.4.6 1 .6 1.7 0 .9-.3 1.7-.9 2.3-.5.7-1.2 1-2 1zm7 12.3v-3c.8 0 1.7-.1 2.8-.5s2.3-1.2 3.5-2.3c1.2-1.2 2.4-2.8 3.4-5s2-5.1 2.6-8.7c.7-3.6 1-8.1 1-13.4s-.3-9.9-1-13.5a35 35 0 0 0-2.6-8.7c-1-2.2-2.2-3.8-3.4-5-1.2-1.1-2.4-1.9-3.5-2.3s-2-.5-2.8-.5v-3c1.6 0 3.2.4 5 1a21.6 21.6 0 0 1 10.5 9.5c1.5 2.6 2.7 5.7 3.7 9.4s1.3 8 1.3 13-.4 9.4-1.3 13-2.2 6.9-3.7 9.4-3.1 4.6-5 6.2-3.6 2.6-5.4 3.3c-1.9.7-3.5 1-5 1z"/>
</svg>