<svg xmlns="http://www.w3.org/2000/svg" xml:space="preserve" width="1084.147px" height="191.958px" x="0px" y="0px" viewBox="0 0 1084.147 191.958">
  <path d="M52 98.3c0-.4 0-.8.2-1s.6-.5 1-.5c1.7-.1 3.3-.4 4.7-.8s2.2-1.2 2.4-2.5l6-40.4h-8.5c-1 0-2 .4-2.8 1.3s-1.7 2-2.4 3.3L51 61.4l-.8 2.7c-.2.4-.4.7-.8.9s-.8.2-1.1.2c-.3 0-.6 0-1-.3s-.6-.5-.6-.9a56 56 0 0 1 1.7-8.7A70 70 0 0 1 50 50h39.3c0 2.3-.2 4.7-.4 7s-.4 4.7-.4 7c0 .4-.4.7-1 1s-1 .2-1.2.2c-.9 0-1.3-.4-1.2-1.1a41 41 0 0 0-.4-6.4c-.3-1.3-.7-2.3-1.2-3.3s-1.3-1.3-2.4-1.3h-7.6l-5.9 40.3c-.1 1 .2 1.7 1 2.2s1.9.7 3 .9l3.3.3c.4 0 .8.1 1 .3s.2.5.1 1c0 .3-.2.6-.4 1s-.6.8-1 .8H53c-.3 0-.6-.2-.8-.6l-.2-1zm36.7 1.6c-.4 0-.7-.2-.8-.7l-.1-1.1c0-.8.4-1.2 1.2-1.3 1.4-.1 2.7-.3 4-.6s2-.9 2-1.7l5.6-38c.1-1-.1-1.7-.7-2.2s-1.4-.8-2.3-1l-2.7-.2c-.7 0-1-.3-1-.8s0-1 .3-1.5.7-.8 1.1-.8H131l-.2 12.3c-.1.4-.4.7-.8.9l-1 .3-.9-.3c-.2-.1-.3-.5-.3-.9l-.3-2-1-3.1c-.2-1-1.1-2.1-2-3s-1.7-1.1-3-1.1h-13.2l-3 20.7h9c.6 0 1.1-.5 1.7-1.3s1-1.7 1.3-2.7l.8-2.1c.1-.5.3-.8.8-1s.8-.2 1.1-.2l1 .3c.3.2.4.5.4 1l-1.8 15.5c0 .4-.2.7-.7.9l-1 .3c-.4 0-.8 0-1.2-.3s-.5-.4-.6-.9L116 81c-.1-1-.4-2-.8-2.8-.4-1-.9-1.3-1.5-1.3h-8.8l-2.3 16c-.1 1 .3 1.8 1.3 2.4s2.1 1 3.5 1.2l3.5.3c.4 0 .7 0 .9.2s.3.6.3 1l-.3 1.2c-.1.5-.5.7-.9.7H88.7zm62.6-3.9c0-1.5.5-2.7 1.4-3.8s2.2-1.5 3.7-1.5c1.4 0 2.4.5 3.1 1.4s1.1 2 1.1 3.2c0 1.5-.5 2.8-1.5 3.8s-2.1 1.5-3.5 1.5c-1.5 0-2.6-.5-3.3-1.4s-1-2-1-3.3zm35.2 2.4c0-.5.1-.9.3-1.2s.5-.4 1-.4c1.2 0 2.3-.3 3.5-.6s1.8-.9 2-1.7l5.6-38V56c0-.9-.3-1.5-.8-1.9s-1.2-.6-2-.7L194 53c-.7 0-1-.3-1-.7v-.6c0-.3.1-.6.4-1.1s.7-.7 1-.7h17.8c.4 0 .7.2.8.7l.1 1c0 .9-.6 1.3-1.4 1.4-1.1 0-2.3.3-3.5.6s-1.9.8-2 1.6l-5.5 38v.6c0 .9.2 1.5.8 1.8s1.1.7 1.9.8l2.1.3.9.2c.2.1.3.3.3.7v.4l-.5 1c-.2.5-.6.8-1 .8h-17.8a.8.8 0 0 1-.7-.5l-.2-1zM213 98c0-.7.5-1.1 1.3-1.2l2.6-.3c1-.1 1.7-.4 2.3-.7s1-.7 1.1-1.3l5.8-38c.1-1-.2-1.7-.8-2.2s-1.5-.8-2.4-1l-2.5-.2c-.7 0-1-.3-1-.8v-.5c0-.3.1-.6.4-1.1s.6-.7 1-.7h16.7c5.3 0 9.7.6 13 1.9s6 3 7.9 5 3 4.3 3.8 6.8 1 4.8 1 7.2c0 5.9-1.2 11-3.6 15.3s-6 7.7-10.6 10.1-10.2 3.6-16.8 3.6h-18.1c-.4 0-.7-.2-.9-.7s-.2-.8-.1-1.1zm14.7-3.5.4 1c.1.3.7.5 1.4.7s2.2.1 4.2.1c4.3 0 8.1-.8 11.3-2.6s5.7-4.6 7.5-8.3 2.6-8.6 2.6-14.6c0-6.2-1.6-10.7-4.7-13.5s-8-4.2-14.2-4.2h-2.4l-6.1 41.4zm57.6 5.4c-.4 0-.6-.2-.8-.7s-.2-.8-.1-1.1c0-.8.4-1.2 1.2-1.3 1.4-.1 2.7-.3 4-.6s2-.9 2-1.7l5.6-38c.1-1-.1-1.7-.7-2.2s-1.4-.8-2.3-1l-2.6-.2c-.8 0-1.1-.3-1.1-.8s.1-1 .4-1.5.6-.8 1-.8h35.7l-.2 12.3c-.1.4-.4.7-.7.9s-.7.3-1 .3c-.4 0-.7-.1-1-.3s-.3-.5-.3-.9l-.3-2s-.5-2-1-3.1c-.2-1-1.1-2.1-2-3s-1.7-1.1-3-1.1H305l-3 20.7h9c.5 0 1-.5 1.6-1.3s1-1.7 1.4-2.7l.8-2.1c0-.5.3-.8.7-1s.8-.2 1.2-.2l.8.3c.3.2.5.5.5 1l-1.8 15.5c0 .4-.2.7-.6.9l-1.1.3c-.4 0-.8 0-1.1-.3s-.6-.4-.6-.9 0-1.3-.2-2.3-.4-2-.8-2.8-.8-1.3-1.5-1.3h-8.8l-2.3 16c0 1 .4 1.8 1.3 2.4s2.2 1 3.5 1.2l3.5.3c.4 0 .7 0 1 .2s.2.6.2 1l-.3 1.2c-.1.5-.4.7-.8.7h-22.3zm55.8 30.9c-.9 0-1.9-.2-3-.6a13.9 13.9 0 0 1-6.1-5.5c-.8-1.5-1.5-3.3-2-5.5a34 34 0 0 1 0-15.1c.5-2.2 1.2-4 2-5.5a14 14 0 0 1 3-3.6c1-.9 2-1.5 3.2-2 1-.3 2-.5 2.9-.5v1.7c-.4 0-1 0-1.6.3s-1.3.7-2 1.3-1.4 1.7-2 3c-.7 1.2-1.2 3-1.6 5a55.6 55.6 0 0 0 0 15.7c.4 2 1 3.8 1.6 5a9.8 9.8 0 0 0 2 3 6 6 0 0 0 2 1.3l1.6.3v1.7zm9.9-6.3c-1.6 0-3-.4-3.9-1.2a6.7 6.7 0 0 1-2-3.1 15.7 15.7 0 0 1 .2-9 14 14 0 0 1 2.2-4.2c1-1.2 2-2.2 3.3-2.9 1.3-.7 2.7-1 4.3-1 1.2 0 2.2.1 3 .3a8 8 0 0 1 2.2.8l.4-3 .6-5v-.4c0-.5-.2-.8-.6-1l-1.5-.5-1.3-.2c-.3-.1-.4-.3-.4-.6v-.3l.2-.5.5-.4a74.1 74.1 0 0 1 7.4 0c.1.2.2.4.1.7l-3.8 27.4v.5c0 .3 0 .5.2.7.2.2.5.3 1 .3.3 0 .6 0 1-.2s.8-.2 1-.2l.4.1.1.6v.5c-.1.1-.3.3-.5.3a31 31 0 0 1-4.9 1.1c-.8 0-1.3-.1-1.7-.4-.4-.2-.6-.5-.8-.9s-.1-.6-.1-.8l.2-1.5a8.2 8.2 0 0 1-6.8 4zm1.2-2.4c.6 0 1.3-.2 2-.7.9-.4 1.6-1 2.4-1.6.7-.6 1.2-1.3 1.6-2l1.5-10.1c-.3-.9-.9-1.5-1.7-2a6 6 0 0 0-2.9-.7c-1.2 0-2.3.4-3.1 1.2-.8.7-1.5 1.7-2 2.9a22.5 22.5 0 0 0-1 10c.2.8.6 1.5 1 2.1.5.6 1.3.9 2.2.9zm19.9 2c-.8 0-1.3-.1-1.7-.4-.3-.2-.6-.6-.7-1V121l2.5-13.2a7.2 7.2 0 0 0 0-.6c0-.6-.1-1-.4-1.3l-1-.4-1-.1-.4-.3v-.6c0-.1 0-.3.2-.5l.4-.4a100.6 100.6 0 0 1 6.5 0c.1.1.2.3.1.6l-3 16.6c0 .3.2.6.3.8s.5.3 1 .3c.3 0 .6 0 1-.2s.8-.2 1-.2l.4.1.1.6c0 .4-.1.6-.5.8l-2 .8c-.7.2-1.7.3-2.8.3zm2.9-24.5a2 2 0 0 1-1.6-.6c-.3-.5-.5-1-.5-1.7 0-.9.3-1.7.8-2.4a3 3 0 0 1 2.1-1c.7 0 1.2.2 1.6.7.4.4.5 1 .5 1.6 0 1-.2 1.7-.8 2.4-.6.7-1.3 1-2.1 1zm6.4 22.1a3 3 0 0 1 3-3.1c.8 0 1.5.3 2 .8s1 1.4 1 2.4a8 8 0 0 1-.6 2.6 14.5 14.5 0 0 1-4.7 6.6l-.6.1c-.2 0-.4 0-.7-.2s-.4-.3-.4-.5c0-.3.2-.6.6-1 .6-.6 1.2-1.3 1.7-2.1s.8-1.9 1-3c-.6-.2-1-.5-1.5-.9-.5-.3-.8-1-.8-1.7zm25.6 2.6-1.7-.3c-.5-.2-1-.5-1.4-1a4 4 0 0 1-.5-2.3 9.5 9.5 0 0 1 0-1.4l2.5-13.7h-2.3l-.3-.3v-.5l.1-.8.5-.3c.8 0 1.5-.3 2-.7.7-.3 1.2-.9 1.8-1.7.5-.8 1-2 1.6-3.4.2-.3.4-.5.8-.5h.8c.2 0 .4.1.4.3l-1 5.8h4.9c.2 0 .4.2.4.5l-.2 1-.5.6h-5l-2.2 12.3a6.3 6.3 0 0 0 0 1.5c0 1 0 1.7.4 2 .4.2.8.4 1.2.4.6 0 1-.1 1.6-.3l1.2-.6.6-.3.4.3.2.6c0 .2 0 .3-.2.5a9.7 9.7 0 0 1-6 2.3z"/>
  <path d="M414 133c-1.2 0-2.1-.3-2.7-1-.6-.6-.9-1.3-.9-2 0-.5.2-.9.4-1.3l1-.9 1-.3c.5 0 .9.2 1 .5l1 3c.4 0 .8-.1 1.1-.3s.7-.5 1-1c.4-.5.7-1.3 1-2.5.3-1 .6-2.6.8-4.5l2.5-15.3c0-.7-.2-1.1-.6-1.3a3 3 0 0 0-1.2-.5l-1.2-.2c-.3-.1-.4-.3-.4-.7 0-.2 0-.4.2-.7l.4-.4a105.1 105.1 0 0 1 7 0l.1.6-2.7 17.9c-.3 1.8-.9 3.6-1.7 5.3-.8 1.7-1.8 3-3 4a6.2 6.2 0 0 1-4.1 1.7zm10-33.4a2 2 0 0 1-1.6-.6c-.3-.5-.5-1-.5-1.7 0-.9.3-1.7.8-2.4a3 3 0 0 1 2.1-1c.7 0 1.2.2 1.6.7.3.4.5 1 .5 1.6 0 1-.3 1.7-.8 2.4-.6.7-1.3 1-2.1 1zm5.6 31.2v-1.7c.5 0 1 0 1.7-.3a6 6 0 0 0 2-1.3c.7-.7 1.4-1.7 2-3s1.1-3 1.5-5c.4-2.1.6-4.7.6-7.9s-.2-5.7-.6-7.8c-.4-2-.9-3.8-1.5-5s-1.3-2.3-2-3a5.4 5.4 0 0 0-3.7-1.6v-1.7c1 0 2 .2 3 .6a13.2 13.2 0 0 1 6.1 5.5c.9 1.5 1.6 3.3 2 5.5a31.8 31.8 0 0 1 0 15.2 16.2 16.2 0 0 1-5 9 11 11 0 0 1-3.1 2c-1 .3-2 .5-3 .5zm30.9-56.9v-5.2h32.7V74h-32.7zm0 18.2v-5.2h32.7v5.2h-32.7zm65.9 6.2c0-.4 0-.8.3-1s.5-.5 1-.5c1.7-.1 3.2-.4 4.6-.8s2.3-1.2 2.4-2.5l6-40.4h-8.4c-1 0-2 .4-2.9 1.3s-1.7 2-2.3 3.3l-1.7 3.7-.9 2.7c-.1.4-.4.7-.8.9s-.7.2-1 .2c-.3 0-.7 0-1.1-.3s-.6-.5-.5-.9a56 56 0 0 1 1.7-8.7 70 70 0 0 1 1.6-5.3h39.3c0 2.3-.1 4.7-.4 7s-.3 4.7-.3 7c-.1.4-.4.7-1 1s-1 .2-1.2.2c-1 0-1.3-.4-1.3-1.1a41 41 0 0 0-.4-6.4c-.2-1.3-.6-2.3-1.2-3.3s-1.3-1.3-2.3-1.3H548l-6 40.3c0 1 .2 1.7 1 2.2s1.9.7 3 .9l3.3.3c.5 0 .8.1 1 .3s.3.5.2 1c0 .3-.2.6-.5 1s-.5.8-1 .8h-21.5c-.4 0-.7-.2-.8-.6l-.3-1zm54.1 1.6c-.4 0-.7-.2-.8-.7l-.1-1.1c0-.8.4-1.2 1.2-1.3 1.4-.1 2.7-.3 4-.6s2-.9 2-1.7l5.6-38c.1-1-.1-1.7-.7-2.2s-1.4-.8-2.3-1l-2.7-.2c-.7 0-1-.3-1-.8s0-1 .3-1.5.7-.8 1.1-.8h35.7l-.2 12.3c-.1.4-.4.7-.8.9l-1 .3-.9-.3c-.3-.2-.3-.5-.3-.9l-.3-2-1-3.1c-.2-1-1.1-2.1-2-3s-1.7-1.1-3-1.1h-13.2l-3 20.7h9c.6 0 1.1-.5 1.7-1.3s1-1.7 1.3-2.7l.8-2.1c.1-.5.3-.8.8-1s.8-.2 1.1-.2l1 .3c.3.2.4.5.4 1l-1.8 15.5c0 .4-.2.7-.7.9l-1 .3c-.4 0-.8 0-1.2-.3s-.5-.4-.6-.9l-.1-2.3c-.1-1-.4-2-.8-2.8s-.9-1.3-1.5-1.3h-8.8l-2.3 16c0 1 .3 1.8 1.3 2.4s2.2 1 3.5 1.2l3.5.3c.4 0 .7 0 1 .2s.2.6.2 1l-.3 1.2c-.1.5-.5.7-.9.7h-22.2zm55.8 30.9c-1 0-1.9-.2-3-.6a13.2 13.2 0 0 1-6.1-5.5c-.9-1.5-1.5-3.3-2-5.5a34 34 0 0 1 0-15.1c.5-2.2 1.2-4 2-5.5a14 14 0 0 1 3-3.6c1-.9 2-1.5 3.1-2 1.1-.3 2-.5 3-.5v1.7c-.4 0-1 0-1.6.3s-1.4.7-2 1.3-1.4 1.7-2 3c-.7 1.2-1.2 3-1.6 5a44 44 0 0 0 0 15.6c.4 2.2 1 3.9 1.5 5.1a9.8 9.8 0 0 0 2 3 6 6 0 0 0 2 1.3l1.7.3v1.7zm9.9-6.3c-1.7 0-3-.4-3.9-1.2a6 6 0 0 1-2-3.1 15.7 15.7 0 0 1 .2-9 12 12 0 0 1 2.2-4.2c.9-1.2 2-2.2 3.3-2.9 1.3-.7 2.7-1 4.2-1 1.3 0 2.3.1 3.1.3a8 8 0 0 1 2.2.8l.4-3 .6-5v-.4c0-.5-.2-.8-.6-1l-1.5-.5-1.3-.2c-.3-.1-.4-.3-.4-.6v-.3c0-.1 0-.3.2-.5l.4-.4a73.8 73.8 0 0 1 7.5 0v.7l-3.7 27.4v.5c0 .3 0 .5.2.7.2.2.5.3 1 .3.2 0 .6 0 1-.2s.8-.2 1-.2l.3.1c.2 0 .2.3.2.6l-.1.5a30.7 30.7 0 0 1-5.3 1.5c-.8 0-1.4-.2-1.7-.5-.4-.2-.7-.5-.8-.9l-.1-.8.2-1.5a8.2 8.2 0 0 1-6.8 4zm1.1-2.4a4 4 0 0 0 2.2-.7c.8-.4 1.5-1 2.2-1.6.8-.6 1.3-1.3 1.7-2l1.5-10.1c-.3-.9-.9-1.5-1.8-2a6 6 0 0 0-2.8-.7c-1.3 0-2.3.4-3.1 1.2-.9.7-1.5 1.7-2 2.9a22.5 22.5 0 0 0-1 10c.2.8.5 1.5 1 2.1.5.6 1.2.9 2.1.9zm20 2c-.8 0-1.4-.1-1.7-.4-.4-.2-.6-.6-.7-1l-.1-1v-.7l2.6-13.2a7.4 7.4 0 0 0 0-.6c0-.6-.1-1-.4-1.3l-1-.4-1.1-.1-.3-.3v-.6l.1-.5.4-.4a100.7 100.7 0 0 1 6.6 0c.1.1.2.3.1.6l-3 16.6c0 .3.1.6.3.8.2.2.5.3 1 .3.2 0 .6 0 1-.2s.8-.2 1-.2l.4.1.1.6c0 .4-.2.6-.5.8l-2 .8c-.8.2-1.7.3-2.8.3zm2.9-24.5a2 2 0 0 1-1.6-.6c-.4-.5-.5-1-.5-1.7 0-.9.2-1.7.8-2.4a3 3 0 0 1 2.1-1c.7 0 1.2.2 1.6.7.3.4.5 1 .5 1.6 0 1-.3 1.7-.8 2.4-.6.7-1.3 1-2.1 1zm6.4 22.1a3 3 0 0 1 3-3.1c.8 0 1.5.3 2 .8s.9 1.4.9 2.4a8 8 0 0 1-.5 2.6 14.6 14.6 0 0 1-4.7 6.6l-.6.1c-.2 0-.4 0-.7-.2-.3-.2-.4-.3-.4-.5 0-.3.2-.6.6-1 .6-.6 1.1-1.3 1.6-2.1a6 6 0 0 0 1-3l-1.5-.9c-.5-.4-.7-1-.7-1.7zm25.7 2.6-1.8-.3c-.5-.2-1-.5-1.4-1a4 4 0 0 1-.5-2.3 11.8 11.8 0 0 1 0-1.4l2.5-13.7h-2.3l-.3-.3v-.5l.1-.8c.1-.2.3-.2.5-.3.7 0 1.4-.3 2-.7.6-.3 1.2-.9 1.8-1.7.5-.8 1-2 1.6-3.4.1-.3.4-.5.8-.5h.7c.3 0 .4.1.4.3l-1 5.8h5c.2 0 .3.2.3.5s0 .6-.2 1a1 1 0 0 1-.5.6h-4.9l-2.2 12.3a6.3 6.3 0 0 0-.1 1.5c0 1 .2 1.7.5 2 .4.2.8.4 1.2.4.6 0 1-.1 1.5-.3l1.3-.6.6-.3.4.3.2.6c0 .2 0 .3-.2.5a9.7 9.7 0 0 1-6 2.3z"/>
  <path d="M709.1 133c-1.2 0-2-.3-2.6-1-.6-.6-.9-1.3-.9-2 0-.5.1-.9.4-1.3l1-.9a2 2 0 0 1 1-.3c.5 0 .9.2 1 .5l1 3c.4 0 .7-.1 1-.3.4-.1.8-.5 1.1-1a9 9 0 0 0 1-2.5c.3-1 .6-2.6.8-4.5l2.5-15.3c0-.7-.2-1.1-.6-1.3a3 3 0 0 0-1.2-.5l-1.2-.2c-.3-.1-.4-.3-.4-.7 0-.2 0-.4.2-.7s.2-.4.4-.4a105.1 105.1 0 0 1 7 0l.1.6-2.8 17.9c-.3 1.8-.8 3.6-1.6 5.3-.8 1.7-1.8 3-3 4a6.2 6.2 0 0 1-4.2 1.7zm10-33.4a2 2 0 0 1-1.5-.6c-.4-.5-.5-1-.5-1.7 0-.9.2-1.7.8-2.4a3 3 0 0 1 2.1-1c.7 0 1.2.2 1.6.7.3.4.5 1 .5 1.6 0 1-.3 1.7-.9 2.4-.5.7-1.2 1-2 1zm5.7 31.2v-1.7c.4 0 1 0 1.6-.3a6 6 0 0 0 2-1.3 17.3 17.3 0 0 0 3.6-8c.4-2 .6-4.7.6-7.9s-.2-5.7-.6-7.8c-.4-2-1-3.8-1.5-5a9.9 9.9 0 0 0-2-3 6 6 0 0 0-2-1.3 5 5 0 0 0-1.7-.3v-1.7c1 0 1.9.2 3 .6a13.2 13.2 0 0 1 6.1 5.5c.8 1.5 1.5 3.3 2 5.5a34 34 0 0 1 0 15.1c-.5 2.2-1.2 4-2 5.5a14 14 0 0 1-3 3.6c-1 .9-2 1.5-3.1 2-1.1.3-2 .5-3 .5zm71.1-63.1-13 12.6L793.7 93l-3.5 3.3-11-13-13.7 13-3-3.3 13.6-12.5-11.4-12.9 3.6-3.4 11.5 13.1 13.2-13 2.9 3.3zm25.7 30.7c0-.5 0-.9.2-1.2s.5-.4 1-.4c1.2 0 2.4-.3 3.5-.6s1.9-.9 2-1.7l5.6-38V56c0-.9-.2-1.5-.8-1.9s-1.2-.6-2-.7l-2-.3c-.8 0-1.2-.3-1.2-.7V52l.1-.3c0-.3.2-.6.5-1.1s.6-.7 1-.7h17.8c.4 0 .6.2.8.7s.1.8 0 1c0 .9-.5 1.3-1.3 1.4-1.2 0-2.4.3-3.6.6s-1.8.8-2 1.6l-5.5 38v.6c0 .9.2 1.5.8 1.8s1.2.7 2 .8l2 .3 1 .2c.2.1.2.3.2.7v.4c0 .3-.2.6-.5 1s-.6.8-1 .8h-17.7c-.4 0-.6-.2-.7-.5l-.2-1zM848 98c0-.7.5-1.1 1.4-1.2l2.5-.3c.9-.1 1.7-.4 2.4-.7s1-.7 1-1.3l5.8-38c.1-1-.1-1.7-.8-2.2s-1.5-.8-2.4-1l-2.4-.2c-.8 0-1.1-.3-1.1-.8v-.5c0-.3.2-.6.4-1.1s.7-.7 1-.7h16.7c5.4 0 9.7.6 13.1 1.9s6 3 7.8 5 3.1 4.3 3.8 6.8 1 4.8 1 7.2c0 5.9-1.2 11-3.6 15.3s-6 7.7-10.6 10.1-10.2 3.6-16.8 3.6h-18c-.5 0-.8-.2-1-.7s-.2-.8-.1-1.1zm14.7-3.5.5 1c.2.3.6.5 1.4.7s2.1.1 4.1.1c4.4 0 8.1-.8 11.3-2.6s5.7-4.6 7.5-8.3 2.7-8.6 2.7-14.6c0-6.2-1.6-10.7-4.8-13.5s-8-4.2-14.1-4.2h-2.5l-6 41.4zm57.7 5.4c-.4 0-.7-.2-.8-.7l-.2-1.1c0-.8.4-1.2 1.2-1.3 1.4-.1 2.8-.3 4-.6s2-.9 2.1-1.7l5.6-38c0-1-.2-1.7-.8-2.2s-1.4-.8-2.3-1l-2.6-.2c-.7 0-1.1-.3-1.1-.8s.1-1 .4-1.5.6-.8 1-.8h35.7l-.2 12.3c0 .4-.3.7-.7.9l-1 .3c-.3 0-.7-.1-1-.3s-.3-.5-.2-.9l-.4-2s-.5-2-1-3.1c-.2-1-1-2.1-1.9-3s-1.8-1.1-3-1.1H940l-3 20.7h9c.5 0 1.1-.5 1.6-1.3l1.4-2.7.8-2.1c0-.5.3-.8.7-1s.8-.2 1.2-.2l.9.3c.4.2.5.5.4 1l-1.7 15.5c0 .4-.3.7-.7.9l-1 .3c-.5 0-.8 0-1.2-.3s-.6-.4-.6-.9l-.1-2.3c-.1-1-.4-2-.8-2.8s-1-1.3-1.6-1.3h-8.7l-2.3 16c-.1 1 .3 1.8 1.3 2.4s2.1 1 3.5 1.2l3.5.3c.4 0 .7 0 .9.2s.3.6.2 1l-.3 1.2c-.2.5-.4.7-.8.7h-22.2zm55.7 30.9c-.9 0-1.8-.2-2.9-.6a13.2 13.2 0 0 1-6.1-5.5c-.9-1.5-1.6-3.3-2.1-5.5a34 34 0 0 1 0-15.1c.5-2.2 1.2-4 2.1-5.5A14 14 0 0 1 970 95c1-.9 2.1-1.5 3.2-2 1-.3 2-.5 3-.5v1.7c-.5 0-1 0-1.7.3s-1.3.7-2 1.3-1.4 1.7-2 3c-.6 1.2-1.1 3-1.5 5a44 44 0 0 0 0 15.6c.4 2.2.9 3.9 1.5 5.1a9.8 9.8 0 0 0 2 3 6 6 0 0 0 2 1.3l1.6.3v1.7zm7.9-6.5-1.7-.3c-.6-.2-1-.5-1.4-1a4 4 0 0 1-.5-2.3 11.8 11.8 0 0 1 0-1.4l2.5-13.7h-2.3c-.2 0-.2-.1-.3-.3v-.5l.1-.8c.1-.2.3-.2.5-.3.7 0 1.4-.3 2-.7.6-.3 1.2-.9 1.8-1.7.5-.8 1-2 1.6-3.4.1-.3.4-.5.8-.5h.7c.3 0 .4.1.4.3l-1 5.8h5c.2 0 .3.2.3.5s0 .6-.2 1a1 1 0 0 1-.5.6H987l-2.2 12.3a6.3 6.3 0 0 0-.1 1.5c0 1 .2 1.7.5 2 .4.2.8.4 1.2.4l1.5-.3 1.3-.6.6-.3.4.3.2.6c0 .2 0 .3-.2.5a9.7 9.7 0 0 1-6 2.3z"/>
  <path d="M991 133c-1.3 0-2.2-.3-2.7-1-.6-.6-1-1.3-1-2 0-.5.2-.9.5-1.3l1-.9.9-.3c.6 0 1 .2 1 .5l1.1 3c.4 0 .7-.1 1-.3.4-.1.8-.5 1.1-1a9 9 0 0 0 1-2.5c.3-1 .6-2.6.8-4.5l2.4-15.3c0-.7-.1-1.1-.5-1.3a3 3 0 0 0-1.2-.5l-1.2-.2c-.3-.1-.4-.3-.4-.7 0-.2 0-.4.2-.7s.2-.4.4-.4a105.1 105.1 0 0 1 7 0l.1.6-2.8 17.9c-.3 1.8-.8 3.6-1.6 5.3-.8 1.7-1.8 3-3 4a6.2 6.2 0 0 1-4.2 1.7zm10-33.4a2 2 0 0 1-1.6-.6c-.4-.5-.6-1-.6-1.7 0-.9.3-1.7.9-2.4.5-.6 1.2-1 2.1-1 .7 0 1.2.2 1.5.7.4.4.6 1 .6 1.6 0 1-.3 1.7-.9 2.4-.5.7-1.2 1-2 1zm5.6 31.2v-1.7c.4 0 1 0 1.6-.3a6 6 0 0 0 2-1.3 17.3 17.3 0 0 0 3.6-8c.4-2 .6-4.7.6-7.9s-.2-5.7-.6-7.8c-.4-2-1-3.8-1.5-5a9.9 9.9 0 0 0-2-3 6 6 0 0 0-2-1.3 5 5 0 0 0-1.7-.3v-1.7c.9 0 1.9.2 3 .6a13.9 13.9 0 0 1 6.1 5.5c.8 1.5 1.5 3.3 2 5.5a34 34 0 0 1 0 15.1c-.5 2.2-1.2 4-2 5.5a14 14 0 0 1-3 3.6c-1 .9-2 1.5-3.1 2-1.1.3-2.1.5-3 .5z"/>
</svg>