<svg xmlns="http://www.w3.org/2000/svg" xml:space="preserve" id="Layer_1" x="0" y="0" style="enable-background:new 0 0 450 375.11" version="1.1" viewBox="0 0 450 375.11">
  <style>
    .st1{fill:#74bdff;stroke:#767676;stroke-width:.5;stroke-miterlimit:10}
  </style>
  <path d="M-.43 0h450v375.11h-450z" style="fill:#e2e2e2"/>
  <circle cx="323.86" cy="100.74" r="4.63" class="st1"/>
  <circle cx="377.77" cy="180.7" r="4.63" class="st1"/>
  <circle cx="377.77" cy="302.89" r="4.63" class="st1"/>
  <circle cx="316.23" cy="264.01" r="4.63" class="st1"/>
  <circle cx="292.23" cy="226.01" r="4.63" class="st1"/>
  <path d="M120.33 49.82h9.78v9.78h-9.78zm32.56 82.86h9.78v9.78h-9.78zm-57.9 43.13h9.78v9.78h-9.78zm84.71 0h9.78v9.78h-9.78z" style="fill:#d15761;stroke:#767676;stroke-width:.5;stroke-miterlimit:10"/>
  <path d="M83.02 36.43v280.78l318.87.26" style="fill:none;stroke:#3d3d3d;stroke-width:2;stroke-miterlimit:10"/>
  <path d="m79.63 40.42 3.39-3.4 3.39 3.4v-2.88l-3.39-3.39-3.39 3.39zM397.9 320.86l3.4-3.39-3.39-3.39h2.88l3.38 3.39-3.39 3.39z" style="fill:#3d3d3d"/>
  <path d="m49.83 189.97 1.61-2.78h2.11l-2.59 4.16 2.67 4.29h-2.09l-1.69-2.89-1.68 2.89h-2.11l2.67-4.29-2.58-4.16h2.09l1.59 2.78zm9.43 5.67h-4.78v-.98l2.23-2.04c.59-.54.88-.98.88-1.33 0-.22-.07-.4-.21-.54s-.35-.21-.62-.21c-.3 0-.54.09-.71.26s-.26.4-.26.68h-1.45c0-.6.22-1.11.66-1.5.44-.4 1.01-.6 1.71-.6.74 0 1.32.17 1.73.5s.61.8.61 1.4c0 .56-.28 1.1-.83 1.63l-.77.68-1.09.88h2.9v1.17zm182.61 144.55 1.61-2.78h2.11l-2.59 4.16 2.67 4.29h-2.09l-1.69-2.89-1.68 2.89h-2.11l2.67-4.29-2.58-4.16h2.09l1.59 2.78zm8.05 5.67h-1.45v-4.46l-1.57.38v-1.13l2.87-.93h.15v6.14z"/>
  <path d="m133.35 40.46 158.88 277.01M162.67 40.46l68.48 277.01M194.76 42.46 311.6 317.39M211.02 43.79l-31.32 273.5m17.21.01 95.32-274.84m-57.09 1.33 8.46 273.68m24.8-273.02 9.31 272.92M336.9 43.79 231.15 317.47" style="fill:none;stroke:#767676;stroke-miterlimit:10"/>
</svg>