<svg xmlns="http://www.w3.org/2000/svg" xml:space="preserve" style="enable-background:new 0 0 777 790" viewBox="0 0 777 790">
  <style>
    .DIAGRAM_arrow_x002D_basic{fill:none;stroke:#767676;stroke-width:2;stroke-miterlimit:10}.st2{fill:#767676}.st3{fill:#fff}.st4{font-family:&quot;Roboto-Bold&quot;}.st5{font-size:16px}.st6{fill:#8764cd}.st7{font-size:20px}.st8{font-family:&quot;Roboto-Regular&quot;}.st9{fill:none}.st10{font-size:13px}
  </style>
  <path id="DIAGRAM_x5F_background" d="M0 0h777v790H0z" style="fill:#e2e2e2"/>
  <g id="DIAGRAM_x5F_drawing">
    <path d="M258 269v102.6" class="DIAGRAM_arrow_x002D_basic"/>
    <path d="M248.4 357.93a.995.995 0 0 1 1.38.31l8.22 12.9 8.22-12.9c.3-.47.92-.61 1.38-.31.46.3.6.92.31 1.38l-9.06 14.23c-.18.29-.5.46-.84.46s-.66-.18-.84-.46l-9.06-14.23a.972.972 0 0 1-.16-.54c-.01-.33.15-.65.45-.84z" class="st2"/>
    <path d="M348 214h107.6" class="DIAGRAM_arrow_x002D_basic"/>
    <path d="M441.93 223.6a.995.995 0 0 1 .31-1.38l12.9-8.22-12.9-8.22a.995.995 0 0 1-.31-1.38c.3-.46.92-.6 1.38-.31l14.23 9.06c.29.18.46.5.46.84s-.18.66-.46.84l-14.23 9.06c-.17.11-.35.16-.54.16a.955.955 0 0 1-.84-.45z" class="st2"/>
    <path d="M353 434h107.6" class="DIAGRAM_arrow_x002D_basic"/>
    <path d="M446.93 443.6a.995.995 0 0 1 .31-1.38l12.9-8.22-12.9-8.22c-.47-.3-.61-.92-.31-1.38s.92-.6 1.38-.31l14.23 9.06c.29.18.46.5.46.84s-.18.66-.46.84l-14.23 9.06c-.17.11-.35.16-.54.16a.955.955 0 0 1-.84-.45z" class="st2"/>
    <path d="M258 489v102.6" class="DIAGRAM_arrow_x002D_basic"/>
    <path d="M248.4 577.93a.995.995 0 0 1 1.38.31l8.22 12.9 8.22-12.9c.3-.47.92-.61 1.38-.31.46.3.6.92.31 1.38l-9.06 14.23c-.18.29-.5.46-.84.46s-.66-.18-.84-.46l-9.06-14.23a.972.972 0 0 1-.16-.54c-.01-.33.15-.65.45-.84z" class="st2"/>
    <g class="DIAGRAM_box_x002D_text__basic">
      <path d="M169 160h178v108H169z" class="st3"/>
      <path d="M346 161v106H170V161h176m2-2H168v110h180V159z" class="st2"/>
    </g>
    <text class="st4 st5" transform="translate(178 184)">Sexo</text>
    <path d="M466 162h174v104H466z" class="st3"/>
    <path d="M637 165v98H469v-98h168m6-6H463v110h180V159z" class="st6"/>
    <text class="st4 st5" transform="translate(473 184)">Não</text>
    <path d="M466 382h174v104H466z" class="st3"/>
    <path d="M637 385v98H469v-98h168m6-6H463v110h180V379z" class="st6"/>
    <text class="st4 st5" transform="translate(473 404)">Não</text>
    <g class="DIAGRAM_box_x002D_text__basic">
      <path d="M169 380h178v108H169z" class="st3"/>
      <path d="M346 381v106H170V381h176m2-2H168v110h180V379z" class="st2"/>
    </g>
    <text class="st4 st5" transform="translate(178 404)">Idade</text>
    <path d="M171 602h174v104H171z" class="st3"/>
    <path d="M342 605v98H174v-98h168m6-6H168v110h180V599z" class="st6"/>
    <text class="st4 st5" transform="translate(178 624)">Sim</text>
  </g>
  <g id="DIAGRAM_x5F_text">
    <text transform="translate(168 88)"><tspan x="0" y="0" class="st4 st7">Árvore de decisão final</tspan><tspan x="0" y="25" class="st2 st8 st7">gerada pelo CART</tspan></text>
    <path d="M259 304h55v40h-55z" class="st9"/>
    <text class="st2 st8 st10" transform="translate(269 329)">F</text>
    <path d="M259 517h55v40h-55z" class="st9"/>
    <text class="st2 st8 st10" transform="translate(269 542)">&gt;60</text>
    <path d="M348 214h115v30.39H348z" class="st9"/>
    <text class="st2 st8 st10" transform="translate(399.825 230.864)">M</text>
    <path d="M348 436h115v30.39H348z" class="st9"/>
    <text class="st2 st8 st10" transform="translate(394.483 452.864)">≤60</text>
  </g>
</svg>