<svg xmlns="http://www.w3.org/2000/svg" xml:space="preserve" style="enable-background:new 0 0 777 899" viewBox="0 0 777 899">
  <style>
    .DIAGRAM_arrow_x002D_basic{fill:none;stroke:#767676;stroke-width:2;stroke-miterlimit:10}.st2{fill:#767676}.st3{fill:#fff}.st4{font-family:&quot;Roboto-Bold&quot;}.st5{font-size:16px}.st6{fill:#8764cd}.st7{font-size:20px}.st8{font-family:&quot;Roboto-Regular&quot;}.st9{fill:none}.st10{font-size:13px}
  </style>
  <path id="DIAGRAM_x5F_background" d="M0 0h777v899H0z" style="fill:#e2e2e2"/>
  <g id="DIAGRAM_x5F_drawing">
    <path d="M258 327v102.6" class="DIAGRAM_arrow_x002D_basic"/>
    <path d="M248.4 415.93a.995.995 0 0 1 1.38.31l8.22 12.9 8.22-12.9c.3-.47.92-.61 1.38-.31.46.3.6.92.31 1.38l-9.06 14.23c-.18.29-.5.46-.84.46s-.66-.18-.84-.46l-9.06-14.23a.972.972 0 0 1-.16-.54c-.01-.33.15-.65.45-.84z" class="st2"/>
    <path d="M348 272h107.6" class="DIAGRAM_arrow_x002D_basic"/>
    <path d="M441.93 281.6a.995.995 0 0 1 .31-1.38l12.9-8.22-12.9-8.22a.995.995 0 0 1-.31-1.38c.3-.46.92-.6 1.38-.31l14.23 9.06c.29.18.46.5.46.84s-.18.66-.46.84l-14.23 9.06c-.17.11-.35.16-.54.16a.955.955 0 0 1-.84-.45z" class="st2"/>
    <path d="M353 492h107.6" class="DIAGRAM_arrow_x002D_basic"/>
    <path d="M446.93 501.6a.995.995 0 0 1 .31-1.38l12.9-8.22-12.9-8.22c-.47-.3-.61-.92-.31-1.38s.92-.6 1.38-.31l14.23 9.06c.29.18.46.5.46.84s-.18.66-.46.84l-14.23 9.06c-.17.11-.35.16-.54.16a.955.955 0 0 1-.84-.45z" class="st2"/>
    <path d="M258 547v102.6" class="DIAGRAM_arrow_x002D_basic"/>
    <path d="M248.4 635.93a.995.995 0 0 1 1.38.31l8.22 12.9 8.22-12.9c.3-.47.92-.61 1.38-.31.46.3.6.92.31 1.38l-9.06 14.23c-.18.29-.5.46-.84.46s-.66-.18-.84-.46l-9.06-14.23a.972.972 0 0 1-.16-.54c-.01-.33.15-.65.45-.84z" class="st2"/>
    <g class="DIAGRAM_box_x002D_text__basic">
      <path d="M169 218h178v108H169z" class="st3"/>
      <path d="M346 219v106H170V219h176m2-2H168v110h180V217z" class="st2"/>
    </g>
    <text class="st4 st5" transform="translate(178 242)">Sexo</text>
    <path d="M466 220h174v104H466z" class="st3"/>
    <path d="M637 223v98H469v-98h168m6-6H463v110h180V217z" class="st6"/>
    <text class="st4 st5" transform="translate(473 242)">Não</text>
    <path d="M466 440h174v104H466z" class="st3"/>
    <path d="M637 443v98H469v-98h168m6-6H463v110h180V437z" class="st6"/>
    <text class="st4 st5" transform="translate(473 462)">Não</text>
    <g class="DIAGRAM_box_x002D_text__basic">
      <path d="M169 438h178v108H169z" class="st3"/>
      <path d="M346 439v106H170V439h176m2-2H168v110h180V437z" class="st2"/>
    </g>
    <text class="st4 st5" transform="translate(178 462)">Idade</text>
    <path d="M171 660h174v104H171z" class="st3"/>
    <path d="M342 663v98H174v-98h168m6-6H168v110h180V657z" class="st6"/>
    <text class="st4 st5" transform="translate(178 682)">Sim</text>
  </g>
  <g id="DIAGRAM_x5F_text">
    <text transform="translate(168 114)"><tspan x="0" y="0" class="st4 st7">Árvore de decisão</tspan><tspan x="0" y="25" class="st2 st8 st7">trabalhadores analfabetos como pessoa  </tspan><tspan x="0" y="50" class="st2 st8 st7">que executa serviço doméstico ou não.</tspan></text>
    <path d="M259 362h55v40h-55z" class="st9"/>
    <text class="st2 st8 st10" transform="translate(269 387)">F</text>
    <path d="M259 575h55v40h-55z" class="st9"/>
    <text class="st2 st8 st10" transform="translate(269 600)">&gt;60</text>
    <path d="M348 272h115v30.39H348z" class="st9"/>
    <text class="st2 st8 st10" transform="translate(399.825 288.864)">M</text>
    <path d="M348 494h115v30.39H348z" class="st9"/>
    <text class="st2 st8 st10" transform="translate(394.483 510.864)">≤60</text>
  </g>
</svg>