<svg xmlns="http://www.w3.org/2000/svg" xml:space="preserve" id="Layer_1" x="0" y="0" style="enable-background:new 0 0 450 215.68" version="1.1" viewBox="0 0 450 215.68">
  <style>
    .st1{fill:none;stroke:#767676;stroke-miterlimit:10}.st2{fill:#767676}.st3,.st4{fill:#74bdff;stroke:#767676;stroke-width:.5;stroke-miterlimit:10}.st4{fill:#d15761}.st6{fill:none}.st7{font-family:&quot;Roboto-Regular&quot;}.st8{font-size:14.4026px}
  </style>
  <path d="M0 0h450v215.68H0z" style="fill:#e2e2e2"/>
  <path d="M148.7 20.33V160.2" class="st1"/>
  <path d="m147.01 22.32 1.69-1.7 1.7 1.7v-1.44l-1.7-1.7-1.69 1.7z" class="st2"/>
  <path d="M307.27 160.2H148.7" class="st1"/>
  <path d="m305.28 158.5 1.7 1.7-1.7 1.69h1.44l1.7-1.69-1.7-1.7z" class="st2"/>
  <circle cx="157.87" cy="110.37" r="4.63" class="st3"/>
  <circle cx="167.13" cy="148.78" r="4.63" class="st3"/>
  <circle cx="176.39" cy="124.97" r="4.63" class="st3"/>
  <circle cx="193.94" cy="138.54" r="4.63" class="st3"/>
  <circle cx="223.36" cy="139.52" r="4.63" class="st3"/>
  <circle cx="181.02" cy="105.74" r="4.63" class="st3"/>
  <circle cx="203.49" cy="115.42" r="4.63" class="st3"/>
  <path d="M213.59 44.92h9.78v9.78h-9.78zm-17.93 25.47h9.78v9.78h-9.78zm40.51 2.44h9.78v9.78h-9.78zm-8.18 28.72h9.78v9.78h-9.78zm24.16 23.53h9.78v9.78h-9.78zm31.81-14.97h9.78v9.78h-9.78z" class="st4"/>
  <path d="M141.58 54.79 275.9 165.34" style="fill:none;stroke:#767676;stroke-width:.5;stroke-miterlimit:10"/>
  <circle cx="172.5" cy="61.48" r="2.31"/>
  <circle cx="243.07" cy="47.49" r="2.31"/>
  <path d="M172.66 43.59h17.08v16.55h-17.08z" class="st6"/>
  <text class="st7 st8" transform="translate(172.66 54.4)">B</text>
  <path d="M243.31 29.28h17.08v16.55h-17.08z" class="st6"/>
  <text class="st7 st8" transform="translate(243.3 40.09)">A</text>
  <circle cx="231.92" cy="184.56" r="4.63" class="st3"/>
  <path d="M242.97 179.67h9.78v9.78h-9.78z" class="st4"/>
  <path d="m202.59 187.23 1.77-5.7h1.39l-3.06 8.78c-.47 1.27-1.23 1.9-2.26 1.9l-.25-.02-.49-.09v-1.05l.35.03c.44 0 .78-.09 1.03-.27.25-.18.45-.5.61-.98l.29-.77-2.71-7.53h1.42l1.91 5.7zm10.72.9a3.42 3.42 0 0 1-2.86-1.53 2.96 2.96 0 0 1-.45-1.61v-2.07c0-.6.15-1.13.45-1.61a3.42 3.42 0 0 1 2.86-1.53h4.39v1.15h-4.39c-.37 0-.72.09-1.02.28s-.55.43-.73.74c-.18.31-.27.64-.27.99v.43h6.41v1.15h-6.41v.43a2.07 2.07 0 0 0 1 1.73c.31.19.65.28 1.02.28h4.39v1.15h-4.39zm12.86 3.58c-.83-.23-1.46-.62-1.87-1.16s-.63-1.25-.63-2.13v-1.4c0-1.14-.5-1.71-1.49-1.71v-1.02c.99 0 1.49-.57 1.49-1.7v-1.46c.01-.86.22-1.55.63-2.08s1.04-.91 1.87-1.15l.27.81c-.98.31-1.47 1.13-1.47 2.45v1.42c0 1.06-.39 1.8-1.17 2.22.78.42 1.17 1.17 1.17 2.24v1.45c.01 1.29.5 2.09 1.47 2.4l-.27.82zm12.06-.54-.74-.51a3.4 3.4 0 0 0 .69-1.9v-1.17h1.27v1.02c0 .47-.12.95-.35 1.42-.22.48-.51.86-.87 1.14zm16.28-.27c.95-.31 1.44-1.08 1.48-2.33v-1.55c0-1.08.42-1.82 1.27-2.22-.85-.38-1.27-1.12-1.27-2.21v-1.43c0-1.32-.49-2.14-1.47-2.45l.27-.81a3.6 3.6 0 0 1 1.87 1.14c.42.53.63 1.22.63 2.09v1.48c0 1.12.5 1.68 1.49 1.68v1.02c-.99 0-1.49.57-1.49 1.71v1.42c0 .88-.21 1.59-.64 2.12-.42.53-1.05.91-1.87 1.15l-.27-.81z"/>
</svg>