<svg xmlns="http://www.w3.org/2000/svg" xml:space="preserve" style="enable-background:new 0 0 1456 487" viewBox="0 0 1456 487">
  <style>
    .st1{fill:#fff}.st2{fill:#767676}.st3{font-family:&quot;Roboto-Bold&quot;}.st4{font-size:16px}.st5{fill:#f14600}.st6{font-family:&quot;Courier&quot;}.st7{fill:#00808b}.st8{stroke:#767676;stroke-width:2;stroke-miterlimit:10}.st8,.st9{fill:none}.st10{font-family:&quot;Roboto-Regular&quot;}.st11{font-size:13.619px}.st12{font-family:&quot;Roboto-Italic&quot;}.st13{font-size:20px}.st14{fill:#8764cd}.st15{fill:none;stroke:#8764cd;stroke-width:6;stroke-miterlimit:10}.st16{font-size:13px}
  </style>
  <path id="DIAGRAM_x5F_background" d="M0 0h1456v487H0z" style="fill:#e2e2e2"/>
  <g id="DIAGRAM_x5F_text">
    <path d="M458 300h178v108H458z" class="st1"/>
    <path d="M635 301v106H459V301h176m2-2H457v110h180V299z" class="st2"/>
    <text transform="translate(467 324)"><tspan x="0" y="0" class="st3 st4">Partição impura</tspan><tspan x="0" y="20" class="st5 st6 st4">N</tspan><tspan x="9.6" y="20" class="st2 st6 st4"> </tspan><tspan x="19.2" y="20" class="st7 st6 st4">S</tspan><tspan x="28.8" y="20" class="st2 st6 st4"> </tspan><tspan x="38.41" y="20" class="st5 st6 st4">N</tspan><tspan x="0" y="40" class="st7 st6 st4">S</tspan><tspan x="9.6" y="40" class="st2 st6 st4"> </tspan><tspan x="19.2" y="40" class="st5 st6 st4">N N</tspan><tspan x="48.01" y="40" class="st2 st6 st4"> </tspan><tspan x="0" y="60" class="st5 st6 st4">N</tspan><tspan x="9.6" y="60" class="st2 st6 st4"> </tspan><tspan x="19.2" y="60" class="st7 st6 st4">S</tspan></text>
    <path d="M268 135h178v108H268z" class="st1"/>
    <path d="M445 136v106H269V136h176m2-2H267v110h180V134z" class="st2"/>
    <text transform="translate(277 159)"><tspan x="0" y="0" class="st3 st4">Base de treino</tspan><tspan x="0" y="20" class="st7 st6 st4">S</tspan><tspan x="9.6" y="20" class="st2 st6 st4"> </tspan><tspan x="19.2" y="20" class="st5 st6 st4">N N N</tspan><tspan x="67.21" y="20" class="st2 st6 st4"> </tspan><tspan x="76.81" y="20" class="st7 st6 st4">S</tspan><tspan x="86.41" y="20" class="st2 st6 st4"> </tspan><tspan x="96.02" y="20" class="st5 st6 st4">N</tspan><tspan x="0" y="40" class="st5 st6 st4">N N</tspan><tspan x="28.8" y="40" class="st2 st6 st4"> </tspan><tspan x="38.41" y="40" class="st7 st6 st4">S</tspan><tspan x="48.01" y="40" class="st2 st6 st4"> </tspan><tspan x="57.61" y="40" class="st5 st6 st4">N N</tspan><tspan x="86.41" y="40" class="st2 st6 st4"> </tspan><tspan x="96.02" y="40" class="st7 st6 st4">S</tspan><tspan x="0" y="60" class="st5 st6 st4">N</tspan><tspan x="9.6" y="60" class="st2 st6 st4"> </tspan><tspan x="19.2" y="60" class="st7 st6 st4">S</tspan><tspan x="28.8" y="60" class="st2 st6 st4"> </tspan><tspan x="38.41" y="60" class="st7 st6 st4">S</tspan><tspan x="48.01" y="60" class="st2 st6 st4"> </tspan><tspan x="57.61" y="60" class="st7 st6 st4">S</tspan><tspan x="67.21" y="60" class="st2 st6 st4"> </tspan><tspan x="76.81" y="60" class="st5 st6 st4">N N</tspan></text>
    <g class="DIAGRAM_box_x002D_text__basic">
      <path d="M77 300h178v108H77z" class="st1"/>
      <path d="M254 301v106H78V301h176m2-2H76v110h180V299z" class="st2"/>
    </g>
    <text transform="translate(86 324)"><tspan x="0" y="0" class="st3 st4">Partição impura</tspan><tspan x="0" y="20" class="st7 st6 st4">S</tspan><tspan x="9.6" y="20" class="st2 st6 st4"> </tspan><tspan x="19.2" y="20" class="st5 st6 st4">N N</tspan><tspan x="48.01" y="20" class="st2 st6 st4"> </tspan><tspan x="57.61" y="20" class="st7 st6 st4">S</tspan><tspan x="0" y="40" class="st7 st6 st4">S</tspan><tspan x="9.6" y="40" class="st2 st6 st4"> </tspan><tspan x="19.2" y="40" class="st5 st6 st4">N N</tspan><tspan x="48.01" y="40" class="st2 st6 st4"> </tspan><tspan x="57.61" y="40" class="st5 st6 st4">N</tspan><tspan x="0" y="60" class="st5 st6 st4">N</tspan><tspan x="9.6" y="60" class="st2 st6 st4"> </tspan><tspan x="19.2" y="60" class="st7 st6 st4">S</tspan></text>
    <path d="m449.71 353.98-82.71-.56c-5.5-.04-10-4.57-10-10.07V244" class="st8"/>
    <path d="m445.75 350.57 3.37 3.41-3.41 3.37 2.88.02L452 354l-3.37-3.41z" class="st2"/>
    <path d="m264.29 353.98 82.71-.57c5.5-.04 10-4.57 10-10.07V244" class="st8"/>
    <path d="m268.29 357.35-3.41-3.37 3.37-3.41-2.88.02L262 354l3.41 3.37z" class="st2"/>
    <path d="M357 253.33h100V332H357z" class="st9"/>
    <text transform="matrix(.9545 0 0 1 367 278.333)"><tspan x="0" y="0" class="st2 st10 st11">Divisão </tspan><tspan x="0" y="16.76" class="st2 st10 st11">gerada pelo </tspan><tspan x="0" y="33.52" class="st2 st10 st11">atributo </tspan><tspan x="50.5" y="33.52" class="st2 st12 st11">A</tspan></text>
    <text transform="translate(77.207 66.844)"><tspan x="0" y="0" class="st3 st13">Má divisão</tspan><tspan x="97.52" y="0" class="st2 st10 st13"> </tspan><tspan x="0" y="25" class="st2 st10 st13">partições impuras</tspan><tspan x="160.58" y="25" class="st3 st13"> </tspan></text>
    <path d="M1020 137h174v104h-174z" class="st1"/>
    <path d="M1191 140v98h-168v-98h168m6-6h-180v110h180V134z" class="st14"/>
    <text transform="translate(1027 159)"><tspan x="0" y="0" class="st3 st4">Base de treino</tspan><tspan x="0" y="20" class="st7 st6 st4">S</tspan><tspan x="9.6" y="20" class="st2 st6 st4"> </tspan><tspan x="19.2" y="20" class="st5 st6 st4">N N N</tspan><tspan x="67.21" y="20" class="st2 st6 st4"> </tspan><tspan x="76.81" y="20" class="st7 st6 st4">S</tspan><tspan x="86.41" y="20" class="st2 st6 st4"> </tspan><tspan x="96.02" y="20" class="st5 st6 st4">N</tspan><tspan x="0" y="40" class="st5 st6 st4">N N</tspan><tspan x="28.8" y="40" class="st2 st6 st4"> </tspan><tspan x="38.41" y="40" class="st7 st6 st4">S</tspan><tspan x="48.01" y="40" class="st2 st6 st4"> </tspan><tspan x="57.61" y="40" class="st5 st6 st4">N N</tspan><tspan x="86.41" y="40" class="st2 st6 st4"> </tspan><tspan x="96.02" y="40" class="st7 st6 st4">S</tspan><tspan x="0" y="60" class="st5 st6 st4">N</tspan><tspan x="9.6" y="60" class="st2 st6 st4"> </tspan><tspan x="19.2" y="60" class="st7 st6 st4">S</tspan><tspan x="28.8" y="60" class="st2 st6 st4"> </tspan><tspan x="38.41" y="60" class="st7 st6 st4">S</tspan><tspan x="48.01" y="60" class="st2 st6 st4"> </tspan><tspan x="57.61" y="60" class="st7 st6 st4">S</tspan><tspan x="67.21" y="60" class="st2 st6 st4"> </tspan><tspan x="76.81" y="60" class="st5 st6 st4">N N</tspan></text>
    <path d="M1210 302h174v104h-174z" class="st1"/>
    <path d="M1381 305v98h-168v-98h168m6-6h-180v110h180V299z" class="st14"/>
    <text transform="translate(1217 324)"><tspan x="0" y="0" class="st3 st4">Partição pura</tspan><tspan x="0" y="20" class="st7 st6 st4">S</tspan><tspan x="9.6" y="20" class="st2 st6 st4"> </tspan><tspan x="19.2" y="20" class="st7 st6 st4">S</tspan><tspan x="0" y="40" class="st7 st6 st4">S</tspan><tspan x="9.6" y="40" class="st2 st6 st4"> </tspan><tspan x="19.2" y="40" class="st7 st6 st4">S</tspan><tspan x="0" y="60" class="st7 st6 st4">S</tspan><tspan x="9.6" y="60" class="st2 st6 st4"> </tspan><tspan x="19.2" y="60" class="st7 st6 st4">S</tspan></text>
    <path d="M829 302h174v104H829z" class="st1"/>
    <path d="M1000 305v98H832v-98h168m6-6H826v110h180V299z" class="st14"/>
    <text transform="translate(836 324)"><tspan x="0" y="0" class="st3 st4">Partição pura</tspan><tspan x="0" y="20" class="st5 st6 st4">N</tspan><tspan x="9.6" y="20" class="st2 st6 st4"> </tspan><tspan x="19.2" y="20" class="st5 st6 st4">N N</tspan><tspan x="48.01" y="20" class="st2 st6 st4"> </tspan><tspan x="57.61" y="20" class="st5 st6 st4">N</tspan><tspan x="0" y="40" class="st7 st6 st4">S</tspan><tspan x="9.6" y="40" class="st2 st6 st4"> </tspan><tspan x="19.2" y="40" class="st5 st6 st4">N N</tspan><tspan x="48.01" y="40" class="st2 st6 st4"> </tspan><tspan x="57.61" y="40" class="st5 st6 st4">N</tspan><tspan x="0" y="60" class="st5 st6 st4">N</tspan><tspan x="9.6" y="60" class="st2 st6 st4"> </tspan><tspan x="19.2" y="60" class="st5 st6 st4">N N N</tspan></text>
    <path d="m1195.14 354.95-78.14-.54c-5.5-.04-10-4.57-10-10.07V244" class="st15"/>
    <path d="m1183.26 344.7 10.11 10.24-10.25 10.1 8.64.06L1202 355l-10.1-10.24z" class="st14"/>
    <path d="m1018.86 354.95 78.14-.54c5.5-.04 10-4.57 10-10.07V244" class="st15"/>
    <path d="m1030.88 365.04-10.25-10.1 10.11-10.24-8.64.06L1012 355l10.24 10.1z" class="st14"/>
    <path d="M1107 255h90v78h-90z" class="st9"/>
    <text transform="translate(1117 280)"><tspan x="0" y="0" class="st2 st10 st16">Divisão </tspan><tspan x="0" y="16" class="st2 st10 st16">gerada pelo </tspan><tspan x="0" y="32" class="st2 st10 st16">atributo </tspan><tspan x="48.21" y="32" class="st2 st12 st16">B</tspan></text>
    <text transform="translate(826.207 66.844)"><tspan x="0" y="0" class="st3 st13">Boa divisão</tspan><tspan x="104.07" y="0" class="st2 st10 st13"> </tspan><tspan x="0" y="25" class="st2 st10 st13">partições puras</tspan><tspan x="138.19" y="25" class="st3 st13"> </tspan></text>
  </g>
</svg>