<?xml version="1.0" encoding="utf-8"?>
<!-- Generator: Adobe Illustrator 27.0.0, SVG Export Plug-In . SVG Version: 6.00 Build 0)  -->
<svg version="1.1" id="Layer_1" xmlns:lucid="lucid"
	 xmlns="http://www.w3.org/2000/svg" xmlns:xlink="http://www.w3.org/1999/xlink" x="0px" y="0px" viewBox="0 0 453.3 483.8"
	 style="enable-background:new 0 0 453.3 483.8;" xml:space="preserve">
<style type="text/css">
	.st0{fill:#E6E7E8;}
	.st1{fill:#F1F2F2;}
	.st2{fill:#00C2A8;stroke:#000000;stroke-opacity:0;}
	.st3{fill:#FFFFFF;}
	.st4{fill:#FFFFFF;stroke:#009985;stroke-width:4;}
	.st5{fill:none;stroke:#333333;}
	.st6{fill:#333333;stroke:#333333;stroke-width:5.000000e-02;}
	.st7{fill:#333333;stroke:#333333;}
	.st8{fill:#333333;}
	.st9{fill:#FFFFFF;stroke:#666666;}
	.st10{stroke:#666666;}
	.st11{fill:#FFFFFF;fill-opacity:0;stroke:#000000;stroke-opacity:0;}
	.st12{fill:#E81313;}
	.st13{fill:#008A0E;}
	.st14{fill:none;}
	.st15{font-family:'Roboto-Medium';}
	.st16{font-size:18px;}
	.st17{font-family:'Roboto-Regular';}
	.st18{font-size:16px;}
	.st19{fill:url(#SVGID_1_);}
	
		.st20{fill:none;stroke:url(#SVGID_00000164474358825123431540000005223505201726662315_);stroke-width:3;stroke-linecap:round;stroke-miterlimit:10;}
	
		.st21{fill:none;stroke:url(#SVGID_00000111173291413038953470000017832337452949622917_);stroke-width:3;stroke-linecap:round;stroke-miterlimit:10;stroke-dasharray:0,9.8646;}
	
		.st22{fill:none;stroke:url(#SVGID_00000006682470973616118270000008236559325668454076_);stroke-width:3;stroke-linecap:round;stroke-miterlimit:10;}
	.st23{opacity:0.5;fill:#FFFFFF;}
</style>
<rect x="-1108.8" class="st0" width="902.3" height="483.8"/>
<polygon class="st1" points="-493.3,241.9 -787.2,4 -787.2,479.8 "/>
<g transform="translate(0 0)" lucid:page-tab-id="0_0">
	<path class="st2" d="M-461.8,51.7c-6.3,0-11.4,5.1-11.4,11.4v34.1c0,6.3,5.1,11.4,11.4,11.4h90.9c6.3,0,11.4-5.1,11.4-11.4V63
		c0-6.3-5.1-11.4-11.4-11.4H-461.8z"/>
	<g transform="matrix(1,0,0,1,568,508) translate(45.85185185185185 37.15555555555556)">
		<g id="a">
			<g transform="matrix(0.04938271604938272,0,0,0.04938271604938272,0,0)">
				<path id="r" class="st3" d="M-426.2,77.3c0,1.7-1,2.5-2.6,2.7l1.6,3.7h-1.3l-1.5-3.6h-2.7l-0.7,3.6h-1.2l1.7-8.7
					C-429.9,75.1-426.2,74.4-426.2,77.3z M-427.4,77.4c0-1.9-2.6-1.4-4.5-1.4l-0.6,3.2C-430.3,79.2-427.4,79.7-427.4,77.4"/>
			</g>
			<g transform="matrix(0.04938271604938272,0,0,0.04938271604938272,12.790123456790125,0)">
				<path id="s" class="st3" d="M-421.9,76.9c2.2-0.1,3,1.6,2.5,3.7h-4.8c-0.2,1.3,0.2,2.4,1.6,2.4c0.9,0,1.5-0.5,1.9-1.1l0.8,0.4
					c-0.5,0.9-1.3,1.6-2.8,1.6c-1.7,0-2.6-0.9-2.6-2.6C-425.4,78.8-424.3,77.1-421.9,76.9z M-420.4,79.8c0.5-2.3-2.5-2.5-3.3-1
					c-0.1,0.3-0.3,0.6-0.4,1H-420.4"/>
			</g>
			<g transform="matrix(0.04938271604938272,0,0,0.04938271604938272,22.66666666666667,0)">
				<path id="t" class="st3" d="M-416.5,78.2c0.8-1.7,4.6-1.8,4.1,1l-0.9,4.5h-1.1l0.9-4.9c0.1-1.3-1.9-1.1-2.5-0.4
					c-1,1.2-1.1,3.5-1.5,5.3h-1.1l1.3-6.7h1.1"/>
			</g>
			<g transform="matrix(0.04938271604938272,0,0,0.04938271604938272,32.543209876543216,0)">
				<path id="u" class="st3" d="M-407.1,82.8c-1.1,1.9-4.8,1.3-4.2-1.7c0.5-2.2,0.8-4,3.2-4.1c1,0,1.6,0.5,2,1.2l0.7-3.6h1.1
					l-1.8,9.2h-1.1L-407.1,82.8z M-410.2,81.5c-0.1,0.9,0.4,1.5,1.2,1.5c1.9,0,2.4-1.8,2.4-3.6c0-1-0.5-1.6-1.5-1.6
					C-409.9,77.7-410.1,79.8-410.2,81.5"/>
			</g>
			<g transform="matrix(0.04938271604938272,0,0,0.04938271604938272,42.41975308641976,0)">
				<path id="v" class="st3" d="M-399,82c-0.1,0.6,0,1.2,0.8,0.9l-0.1,0.7c-1,0.3-2.2,0-1.8-1.2h-0.1c-0.5,0.8-1.1,1.4-2.4,1.4
					c-1.2,0-1.9-0.7-1.9-1.9c0-2.4,2.5-2.4,4.8-2.4c0.4-0.9,0-2-1.1-1.9c-0.9,0-1.5,0.3-1.6,1.1l-1.1-0.2c0.3-2.4,5.6-2.5,5.1,0.5
					C-398.7,80.2-398.8,81.1-399,82z M-403.3,82c0.1,1.8,2.8,0.8,3.1-0.2c0.2-0.4,0.2-0.8,0.4-1.3C-401.5,80.5-403.4,80.3-403.3,82"
					/>
			</g>
		</g>
	</g>
	<path class="st4" d="M-420.4,140.9c2.2-2.2,5.8-2.2,8,0c0,0,0,0,0,0l6.2,6.2c2.2,2.2,2.2,5.8,0,8c0,0,0,0,0,0l-6.2,6.2
		c-2.2,2.2-5.8,2.2-8,0c0,0,0,0,0,0l-6.2-6.2c-2.2-2.2-2.2-5.8,0-8c0,0,0,0,0,0L-420.4,140.9z"/>
	<path class="st5" d="M-416.3,108.8v17.3"/>
	<path class="st6" d="M-416,108.8h-0.7v-0.4h0.7V108.8z"/>
	<path class="st7" d="M-416.3,136.7l-3.3-10.1h6.6L-416.3,136.7z"/>
	<path class="st6" d="M-516.4,207.3h-0.7l0-20.5h0.7L-516.4,207.3z M-430,151.5h-78.2l-1.3,0.1l-1.3,0.3l-1.2,0.5l-1.1,0.7l-1,0.8
		l-0.8,1l-0.7,1.1l-0.5,1.2l-0.3,1.2l0,15.2h-0.7l0-15.2l0.3-1.4l0.5-1.3l0.7-1.2l0.9-1.1l1.1-0.9l1.2-0.7l1.3-0.5l1.4-0.3l1.4-0.1
		h78.2V151.5z"/>
	<path class="st8" d="M-429.6,151.1l0,0.4h-0.4v-0.7h0.4L-429.6,151.1z"/>
	<path class="st6" d="M-429.6,151.1l0,0.4h-0.4v-0.7h0.4L-429.6,151.1z M-430,150.8v0.7h0.4l0-0.3l0-0.3L-430,150.8z"/>
	<path class="st8" d="M-516.7,217.8l-3.3-10.1h6.6L-516.7,217.8z"/>
	<path class="st6" d="M-516.7,218.9l-3.8-11.6h7.6L-516.7,218.9z M-519.5,208l2.8,8.6l2.8-8.6H-519.5z"/>
	<g transform="matrix(1,0,0,1,485.318988979046,671.5215439457942) translate(0 12.444444444444446)">
		<g id="b">
			<g transform="matrix(0.04320987654320988,0,0,0.04320987654320988,0,0)">
				<path id="w" class="st8" d="M-520.5,182.3l-0.4-2.2h-3.4l-1.3,2.2h-1.1l4.6-7.6h1.2l1.6,7.6H-520.5z M-521.1,179.3l-0.7-3.8
					l-2.1,3.8H-521.1"/>
			</g>
			<g transform="matrix(0.04320987654320988,0,0,0.04320987654320988,10.370370370370372,0)">
				<path id="x" class="st8" d="M-518.7,182.3l1.5-8h1l-1.6,8H-518.7"/>
			</g>
			<g transform="matrix(0.04320987654320988,0,0,0.04320987654320988,13.783950617283953,0)">
				<path id="y" class="st8" d="M-514.9,180.7c-0.3,0.7,0.2,1.3,1,0.9l-0.1,0.7c-1.1,0.5-2.1-0.1-1.8-1.6l0.7-3.5h-0.7l0.2-0.7h0.7
					l0.6-1.3h0.6l-0.3,1.3h1.1l-0.1,0.7h-1.1"/>
			</g>
			<g transform="matrix(0.04320987654320988,0,0,0.04320987654320988,18.10493827160494,0)">
				<path id="z" class="st8" d="M-508.3,180.9c-0.1,0.6,0,1,0.7,0.8l-0.1,0.6c-0.9,0.2-1.9,0-1.6-1.1h-0.1c-0.5,0.7-1,1.2-2.1,1.2
					c-1,0-1.7-0.6-1.7-1.6c0-2.1,2.2-2.1,4.2-2.1c0.3-0.8,0-1.7-1-1.7c-0.8,0-1.3,0.3-1.4,1l-1-0.2c0.2-2.1,4.9-2.2,4.4,0.5
					C-508,179.2-508.1,180-508.3,180.9z M-512.1,180.8c0.1,1.6,2.5,0.7,2.7-0.2c0.2-0.4,0.2-0.7,0.3-1.2
					C-510.4,179.5-512.2,179.3-512.1,180.8"/>
			</g>
		</g>
	</g>
	<path class="st6" d="M-317.9,210.1l-0.7,0l0-22.3h0.7L-317.9,210.1z M-325.4,150.8l1.4,0.3l1.3,0.5l1.2,0.7l1.1,0.9l0.9,1.1
		l0.7,1.2l0.5,1.3l0.3,1.4l0,16.4h-0.7l0-16.3l-0.3-1.2l-0.5-1.2l-0.7-1.1l-0.8-1l-1-0.8l-1.1-0.7l-1.2-0.5l-1.2-0.3l-1.3-0.1h-76
		v-0.7h76L-325.4,150.8z"/>
	<path class="st8" d="M-402.7,151.5h-0.4l0-0.4l0-0.4h0.4V151.5z"/>
	<path class="st6" d="M-402.7,151.5h-0.4l0-0.4l0-0.4h0.4V151.5z M-403.1,150.8l0,0.3l0,0.3h0.4v-0.7L-403.1,150.8z"/>
	<path class="st8" d="M-318.2,220.6l-3.3-10.1h6.6L-318.2,220.6z"/>
	<path class="st6" d="M-318.2,221.8l-3.8-11.6h7.6L-318.2,221.8z M-321,210.8l2.8,8.6l2.8-8.6H-321z"/>
	<g transform="matrix(1,0,0,1,758.7309376092423,673.119542634716) translate(0 12.444444444444446)">
		<g id="c">
			<g transform="matrix(0.04320987654320988,0,0,0.04320987654320988,0,0)">
				<path id="A" class="st8" d="M-325.3,181.1c0,2.9-3.5,2.3-6.4,2.4l1.5-7.6c2.2,0.1,5.2-0.5,5.2,1.7c0,1.2-0.7,1.7-1.8,1.8
					C-326,179.6-325.3,180.1-325.3,181.1z M-326.1,177.7c0-1.4-1.9-1-3.2-1l-0.5,2.4C-328.1,179.1-326.1,179.4-326.1,177.7z
					 M-326.3,181.1c0-1.5-2.1-1.1-3.7-1.2l-0.5,2.7C-328.6,182.6-326.3,183-326.3,181.1"/>
			</g>
			<g transform="matrix(0.04320987654320988,0,0,0.04320987654320988,10.370370370370372,0)">
				<path id="z_00000121967431135774881890000006826978372619334024_" class="st8" d="M-319.6,182c-0.1,0.6,0,1,0.7,0.8l-0.1,0.6
					c-0.9,0.2-1.9,0-1.6-1.1h-0.1c-0.5,0.7-1,1.2-2.1,1.2c-1,0-1.7-0.6-1.7-1.6c0-2.1,2.2-2.1,4.2-2.1c0.3-0.8,0-1.7-1-1.7
					c-0.8,0-1.3,0.3-1.4,1l-1-0.2c0.2-2.1,4.9-2.2,4.4,0.5C-319.3,180.4-319.4,181.2-319.6,182z M-323.4,181.9
					c0.1,1.6,2.5,0.7,2.7-0.2c0.2-0.4,0.2-0.7,0.3-1.2C-321.7,180.6-323.5,180.5-323.4,181.9"/>
			</g>
			<g transform="matrix(0.04320987654320988,0,0,0.04320987654320988,19.01234567901235,0)">
				<path id="B" class="st8" d="M-317,176.4l0.2-0.9h1l-0.2,0.9H-317z M-318.3,183.5l1.1-5.8h1l-1.1,5.8H-318.3"/>
			</g>
			<g transform="matrix(0.04320987654320988,0,0,0.04320987654320988,22.425925925925934,0)">
				<path id="C" class="st8" d="M-312.3,183.5l-1.1-2.4l-2,2.4h-1.1l2.6-3l-1.4-2.8h1l1,2.3l1.9-2.3h1.1l-2.5,2.8l1.5,3H-312.3"/>
			</g>
			<g transform="matrix(0.04320987654320988,0,0,0.04320987654320988,30.203703703703713,0)">
				<path id="z_00000109748939361428403200000003975607880184232373_" class="st8" d="M-305.5,182c-0.1,0.6,0,1,0.7,0.8l-0.1,0.6
					c-0.9,0.2-1.9,0-1.6-1.1h-0.1c-0.5,0.7-1,1.2-2.1,1.2c-1,0-1.7-0.6-1.7-1.6c0-2.1,2.2-2.1,4.2-2.1c0.3-0.8,0-1.7-1-1.7
					c-0.8,0-1.3,0.3-1.4,1l-1-0.2c0.2-2.1,4.9-2.2,4.4,0.5C-305.2,180.4-305.3,181.2-305.5,182z M-309.3,181.9
					c0.1,1.6,2.5,0.7,2.7-0.2c0.2-0.4,0.2-0.7,0.3-1.2C-307.6,180.6-309.4,180.5-309.3,181.9"/>
			</g>
		</g>
	</g>
	<path class="st9" d="M-304,236.3c0,7.8-6.4,14.2-14.2,14.2c-7.8,0-14.2-6.4-14.2-14.2s6.4-14.2,14.2-14.2
		C-310.4,222.1-304,228.5-304,236.3z"/>
	<path class="st10" d="M-309.7,236.3c0,4.7-3.8,8.5-8.5,8.5c-4.7,0-8.5-3.8-8.5-8.5s3.8-8.5,8.5-8.5
		C-313.5,227.8-309.7,231.6-309.7,236.3z"/>
	<path class="st2" d="M-461.8,216.3c-6.3,0-11.4,5.1-11.4,11.4v34.1c0,6.3,5.1,11.4,11.4,11.4h90.9c6.3,0,11.4-5.1,11.4-11.4v-34.1
		c0-6.3-5.1-11.4-11.4-11.4H-461.8z"/>
	<g transform="matrix(1,0,0,1,568,739.7352419760889) translate(49.777777777777786 37.15555555555556)">
		<g id="d">
			<g transform="matrix(0.04938271604938272,0,0,0.04938271604938272,0,0)">
				<path id="D" class="st3" d="M-431.6,248.3l1.7-8.7h1.2l-1.7,8.7H-431.6"/>
			</g>
			<g transform="matrix(0.04938271604938272,0,0,0.04938271604938272,4.938271604938272,0)">
				<path id="u_00000023987396792710018580000003267448380831584406_" class="st3" d="M-424,247.3c-1.1,1.9-4.8,1.3-4.2-1.7
					c0.5-2.2,0.8-4,3.2-4.1c1,0,1.6,0.5,2,1.2l0.7-3.6h1.1l-1.8,9.2h-1.1L-424,247.3z M-427,246.1c-0.1,0.9,0.4,1.5,1.2,1.5
					c1.9,0,2.4-1.8,2.4-3.6c0-1-0.5-1.6-1.5-1.6C-426.7,242.3-426.9,244.4-427,246.1"/>
			</g>
			<g transform="matrix(0.04938271604938272,0,0,0.04938271604938272,14.814814814814817,0)">
				<path id="v_00000127009884022697346140000007667225192212147368_" class="st3" d="M-415.8,246.6c-0.1,0.6,0,1.2,0.8,0.9
					l-0.1,0.7c-1,0.3-2.2,0-1.8-1.2h-0.1c-0.5,0.8-1.1,1.4-2.4,1.4c-1.2,0-1.9-0.7-1.9-1.9c0-2.4,2.5-2.4,4.8-2.4
					c0.4-0.9,0-2-1.1-1.9c-0.9,0-1.5,0.3-1.6,1.1l-1.1-0.2c0.3-2.4,5.6-2.5,5.1,0.5C-415.5,244.8-415.6,245.7-415.8,246.6z
					 M-420.1,246.6c0.1,1.8,2.8,0.8,3.1-0.2c0.2-0.4,0.2-0.8,0.4-1.3C-418.3,245.1-420.2,244.9-420.1,246.6"/>
			</g>
			<g transform="matrix(0.04938271604938272,0,0,0.04938271604938272,24.69135802469136,0)">
				<path id="u_00000065772730327187474460000014240183758902870417_" class="st3" d="M-409.9,247.3c-1.1,1.9-4.8,1.3-4.2-1.7
					c0.5-2.2,0.8-4,3.2-4.1c1,0,1.6,0.5,2,1.2l0.7-3.6h1.1l-1.8,9.2h-1.1L-409.9,247.3z M-413,246.1c-0.1,0.9,0.4,1.5,1.2,1.5
					c1.9,0,2.4-1.8,2.4-3.6c0-1-0.5-1.6-1.5-1.6C-412.7,242.3-412.9,244.4-413,246.1"/>
			</g>
			<g transform="matrix(0.04938271604938272,0,0,0.04938271604938272,34.567901234567906,0)">
				<path id="s_00000145772551715417725880000012747965741564438951_" class="st3" d="M-403.7,241.5c2.2-0.1,3,1.6,2.5,3.7h-4.8
					c-0.2,1.3,0.2,2.4,1.6,2.4c0.9,0,1.5-0.5,1.9-1.1l0.8,0.4c-0.5,0.9-1.3,1.6-2.8,1.6c-1.7,0-2.6-0.9-2.6-2.6
					C-407.2,243.4-406,241.7-403.7,241.5z M-402.1,244.4c0.5-2.3-2.5-2.5-3.3-1c-0.1,0.3-0.3,0.6-0.4,1H-402.1"/>
			</g>
		</g>
	</g>
	<path class="st4" d="M-420.4,305.5c2.2-2.2,5.8-2.2,8,0c0,0,0,0,0,0l6.2,6.2c2.2,2.2,2.2,5.8,0,8l-6.2,6.2c-2.2,2.2-5.8,2.2-8,0
		c0,0,0,0,0,0l-6.2-6.2c-2.2-2.2-2.2-5.8,0-8L-420.4,305.5z"/>
	<path class="st5" d="M-416.3,273.4v17.3"/>
	<path class="st6" d="M-416,273.4h-0.7v-0.4h0.7V273.4z"/>
	<path class="st7" d="M-416.3,301.3l-3.3-10.1h6.6L-416.3,301.3z"/>
	<path class="st6" d="M-465.7,366.4h-0.7l0-7.6h0.7L-465.7,366.4z M-430,316.1h-27.5l-1.3,0.1l-1.2,0.3l-1.2,0.5l-1.1,0.7l-1,0.8
		l-0.8,1l-0.7,1.1l-0.5,1.2l-0.3,1.2l0,9.4h-0.7l0-9.5l0.3-1.4l0.5-1.3l0.7-1.2l0.9-1.1l1.1-0.9l1.2-0.7l1.3-0.5l1.3-0.3l1.4-0.1
		h27.6L-430,316.1z"/>
	<path class="st8" d="M-429.6,315.7l0,0.4h-0.4v-0.7h0.4L-429.6,315.7z"/>
	<path class="st6" d="M-429.6,315.7l0,0.4h-0.4v-0.7h0.4L-429.6,315.7z M-430,315.4v0.7h0.4l0-0.3l0-0.3L-430,315.4z"/>
	<path class="st8" d="M-466.1,376.9l-3.3-10.1h6.6L-466.1,376.9z"/>
	<path class="st6" d="M-466.1,378l-3.8-11.6h7.6L-466.1,378z M-468.9,367.1l2.8,8.6l2.8-8.6H-468.9z"/>
	<g transform="matrix(1,0,0,1,518.6666666666666,895.1196423477893) translate(0.005000000000002558 12.444444444444446)">
		<g id="e">
			<g transform="matrix(0.04320987654320988,0,0,0.04320987654320988,0,0)">
				<path id="E" class="st8" d="M-494.9,337.7c0.2-0.7,0.3-1.9-0.7-1.8c-2.2,0.3-1.7,3.3-2.4,5.2h-1l0.8-4.4c0.1-1.1-1.5-0.9-2-0.3
					c-0.8,1.1-0.9,3.1-1.3,4.7h-1l1.1-5.8h0.9c0,0.3-0.2,0.7-0.1,1c0.4-1.3,3.1-1.6,3.2,0.2c0.4-0.7,0.9-1.3,1.9-1.3
					c2.8,0,0.9,4,0.7,6h-1"/>
			</g>
			<g transform="matrix(0.04320987654320988,0,0,0.04320987654320988,12.919753086419755,0)">
				<path id="F" class="st8" d="M-489.9,335.2c1.9-0.1,2.6,1.4,2.2,3.3h-4.2c-0.2,1.2,0.2,2.1,1.4,2.1c0.8,0,1.3-0.4,1.6-1l0.7,0.3
					c-0.5,0.8-1.2,1.4-2.5,1.4c-1.5,0-2.3-0.8-2.3-2.3C-493,336.8-492,335.3-489.9,335.2z M-488.6,337.7c0.4-2-2.2-2.2-2.9-0.9
					c-0.1,0.2-0.2,0.5-0.3,0.9H-488.6"/>
			</g>
			<g transform="matrix(0.04320987654320988,0,0,0.04320987654320988,21.56172839506173,0)">
				<path id="G" class="st8" d="M-485.2,336.3c0.7-1.5,4.1-1.6,3.6,0.9l-0.8,4h-1l0.8-4.3c0.1-1.2-1.6-1-2.1-0.4
					c-0.9,1.1-0.9,3.1-1.3,4.7h-1l1.1-5.8h0.9"/>
			</g>
			<g transform="matrix(0.04320987654320988,0,0,0.04320987654320988,30.203703703703713,0)">
				<path id="H" class="st8" d="M-480.2,336.6c1-2,5.1-2,4.9,0.8c-0.2,2.2-1,3.7-3.2,3.8C-480.8,341.4-481,338.4-480.2,336.6z
					 M-478.4,340.5c1.6,0,2.1-1.5,2.1-3.1c0-1-0.3-1.6-1.4-1.5c-1.6,0-2.1,1.4-2.1,3C-479.7,339.9-479.3,340.5-478.4,340.5"/>
			</g>
			<g transform="matrix(0.04320987654320988,0,0,0.04320987654320988,38.845679012345684,0)">
				<path id="I" class="st8" d="M-472.9,336.5c0.4-0.8,0.9-1.6,2-1.2l-0.2,0.8c-2.5-0.3-2.1,3.1-2.7,5.1h-1l1.1-5.8h0.9"/>
			</g>
		</g>
	</g>
	<g transform="matrix(1,0,0,1,518.6666666666666,895.1196423477893) translate(48.31364197530865 12.444444444444446)">
		<g id="f">
			<g transform="matrix(0.04320987654320988,0,0,0.04320987654320988,0,0)">
				<path id="H_00000098215265948271978140000006242983693940547989_" class="st8" d="M-467.3,336.6c1-2,5.1-2,4.9,0.8
					c-0.2,2.2-1,3.7-3.2,3.8C-467.9,341.4-468.2,338.4-467.3,336.6z M-465.5,340.5c1.6,0,2.1-1.5,2.1-3.1c0-1-0.3-1.6-1.4-1.5
					c-1.6,0-2.1,1.4-2.1,3C-466.9,339.9-466.5,340.5-465.5,340.5"/>
			</g>
			<g transform="matrix(0.04320987654320988,0,0,0.04320987654320988,8.641975308641976,0)">
				<path id="J" class="st8" d="M-460,341.2c-2.9-0.1-1-3.9-0.8-5.9h1l-0.8,4.3c-0.1,1.2,1.6,1,2.1,0.4c0.9-1,0.9-3.1,1.3-4.7h1
					l-1.1,5.8h-0.9c0-0.3,0.2-0.7,0.1-1C-458.5,340.7-458.9,341.3-460,341.2"/>
			</g>
		</g>
	</g>
	<g transform="matrix(1,0,0,1,518.6666666666666,895.1196423477893) translate(69.91858024691359 12.444444444444446)">
		<g id="g">
			<g transform="matrix(0.04320987654320988,0,0,0.04320987654320988,0,0)">
				<path id="B_00000061473694265108300050000017848871371780982925_" class="st8" d="M-451.3,334.1l0.2-0.9h1l-0.2,0.9H-451.3z
					 M-452.7,341.1l1.1-5.8h1l-1.1,5.8H-452.7"/>
			</g>
			<g transform="matrix(0.04320987654320988,0,0,0.04320987654320988,3.4135802469135808,0)">
				<path id="K" class="st8" d="M-447.3,335.2c0.9,0,1.4,0.4,1.7,1.1c0.1-0.3,0.2-0.7,0.2-1h0.9l-1.1,5.7c-0.1,2-2.4,3.1-4.3,2.1
					c-0.4-0.2-0.5-0.5-0.6-1l0.9-0.2c0.2,1.3,2.5,1,2.8-0.1c0.1-0.5,0.3-1.2,0.4-1.7c-0.4,0.6-0.9,1.1-1.9,1.1c-1.2,0-1.8-0.8-1.8-2
					C-450.1,337-449.4,335.2-447.3,335.2z M-447.2,335.9c-1.6,0-1.8,1.7-1.9,3.2c-0.1,0.8,0.3,1.4,1.1,1.4c1.5,0,2-1.5,2.1-3.1
					C-445.8,336.4-446.3,335.9-447.2,335.9"/>
			</g>
			<g transform="matrix(0.04320987654320988,0,0,0.04320987654320988,12.055555555555557,0)">
				<path id="J_00000173877418491091480250000006899566928867580059_" class="st8" d="M-442.2,341.2c-2.9-0.1-1-3.9-0.8-5.9h1
					l-0.8,4.3c-0.1,1.2,1.6,1,2.1,0.4c0.9-1,0.9-3.1,1.3-4.7h1l-1.1,5.8h-0.9c0-0.3,0.2-0.7,0.1-1
					C-440.7,340.7-441.2,341.3-442.2,341.2"/>
			</g>
			<g transform="matrix(0.04320987654320988,0,0,0.04320987654320988,20.69753086419753,0)">
				<path id="z_00000101100908638460334830000001852147976791445913_" class="st8" d="M-433.1,339.7c-0.1,0.6,0,1,0.7,0.8l-0.1,0.6
					c-0.9,0.2-1.9,0-1.6-1.1h-0.1c-0.5,0.7-1,1.2-2.1,1.2c-1,0-1.7-0.6-1.7-1.6c0-2.1,2.2-2.1,4.2-2.1c0.3-0.8,0-1.7-1-1.7
					c-0.8,0-1.3,0.3-1.4,1l-1-0.2c0.2-2.1,4.9-2.2,4.4,0.5C-432.8,338-432.9,338.8-433.1,339.7z M-436.9,339.6
					c0.1,1.6,2.5,0.7,2.7-0.2c0.2-0.4,0.2-0.7,0.3-1.2C-435.3,338.3-437,338.1-436.9,339.6"/>
			</g>
			<g transform="matrix(0.04320987654320988,0,0,0.04320987654320988,29.339506172839503,0)">
				<path id="x_00000105411553526378304790000014608415856095964300_" class="st8" d="M-431.8,341.1l1.5-8h1l-1.6,8H-431.8"/>
			</g>
		</g>
	</g>
	<g transform="matrix(1,0,0,1,518.6666666666666,895.1196423477893) translate(17.202530864197527 31.111111111111118)">
		<g id="h" transform="matrix(0.04320987654320988,0,0,0.04320987654320988,0,0)">
			<path id="z_00000026868707055167369650000015922732721051340694_" class="st8" d="M-485.2,352.9c-0.1,0.6,0,1,0.7,0.8l-0.1,0.6
				c-0.9,0.2-1.9,0-1.6-1.1h-0.1c-0.5,0.7-1,1.2-2.1,1.2c-1,0-1.7-0.6-1.7-1.6c0-2.1,2.2-2.1,4.2-2.1c0.3-0.8,0-1.7-1-1.7
				c-0.8,0-1.3,0.3-1.4,1l-1-0.2c0.2-2.1,4.9-2.2,4.4,0.5C-484.9,351.3-485.1,352.1-485.2,352.9z M-489,352.9
				c0.1,1.6,2.5,0.7,2.7-0.2c0.2-0.4,0.2-0.7,0.3-1.2C-487.4,351.5-489.1,351.4-489,352.9"/>
		</g>
	</g>
	<g transform="matrix(1,0,0,1,518.6666666666666,895.1196423477893) translate(30.165493827160493 31.111111111111118)">
		<g id="i">
			<g transform="matrix(0.04320987654320988,0,0,0.04320987654320988,0,0)">
				<path id="L" class="st8" d="M-476.5,352.7l-0.3,1.7h-1l0.3-1.7h-3.5l0.2-0.8l4.4-5.1h1.1l-1,5.1h1l-0.2,0.8H-476.5z
					 M-476.7,348.2l-3.2,3.7h2.5"/>
			</g>
			<g transform="matrix(0.04320987654320988,0,0,0.04320987654320988,8.641975308641976,0)">
				<path id="M" class="st8" d="M-474.5,351.9c0-2.8,0.8-5.2,3.5-5.2c1.5,0,2.1,1,2.1,2.5c0,2.8-0.8,5.3-3.5,5.3
					C-473.8,354.5-474.5,353.4-474.5,351.9z M-473.6,352c0,1,0.3,1.7,1.2,1.7c2.1,0,2.3-2.4,2.5-4.6c0.1-1-0.3-1.7-1.2-1.7
					C-473.2,347.5-473.6,350-473.6,352"/>
			</g>
		</g>
	</g>
	<g transform="matrix(1,0,0,1,518.6666666666666,895.1196423477893) translate(51.77043209876543 31.111111111111118)">
		<g id="j">
			<g transform="matrix(0.04320987654320988,0,0,0.04320987654320988,0,0)">
				<path id="z_00000094581462837849581030000008128619813768449946_" class="st8" d="M-460.7,352.9c-0.1,0.6,0,1,0.7,0.8l-0.1,0.6
					c-0.9,0.2-1.9,0-1.6-1.1h-0.1c-0.5,0.7-1,1.2-2.1,1.2c-1,0-1.7-0.6-1.7-1.6c0-2.1,2.2-2.1,4.2-2.1c0.3-0.8,0-1.7-1-1.7
					c-0.8,0-1.3,0.3-1.4,1l-1-0.2c0.2-2.1,4.9-2.2,4.4,0.5C-460.4,351.3-460.5,352.1-460.7,352.9z M-464.5,352.9
					c0.1,1.6,2.5,0.7,2.7-0.2c0.2-0.4,0.2-0.7,0.3-1.2C-462.8,351.5-464.6,351.4-464.5,352.9"/>
			</g>
			<g transform="matrix(0.04320987654320988,0,0,0.04320987654320988,8.641975308641976,0)">
				<path id="G_00000065062488494856735140000009687289850374935696_" class="st8" d="M-457.6,349.6c0.7-1.5,4.1-1.6,3.6,0.9l-0.8,4
					h-1l0.8-4.3c0.1-1.2-1.6-1-2.1-0.4c-0.9,1.1-0.9,3.1-1.3,4.7h-1l1.1-5.8h0.9"/>
			</g>
			<g transform="matrix(0.04320987654320988,0,0,0.04320987654320988,17.283950617283953,0)">
				<path id="H_00000094600409261011829450000003751448755239038622_" class="st8" d="M-452.6,349.9c1-2,5.1-2,4.9,0.8
					c-0.2,2.2-1,3.7-3.2,3.8C-453.2,354.6-453.5,351.7-452.6,349.9z M-450.8,353.8c1.6,0,2.1-1.5,2.1-3.1c0-1-0.3-1.6-1.4-1.5
					c-1.6,0-2.1,1.4-2.1,3C-452.1,353.1-451.7,353.8-450.8,353.8"/>
			</g>
			<g transform="matrix(0.04320987654320988,0,0,0.04320987654320988,25.925925925925927,0)">
				<path id="N" class="st8" d="M-445.7,350c0.4,1.5,3.2,0.7,3.2,2.7c0,2.4-4.4,2.4-4.8,0.5l0.8-0.3c0.2,1.2,3.1,1.3,3.1-0.1
					c-0.4-1.5-3.2-0.7-3.2-2.7c0-2.2,4.4-2.2,4.5-0.2l-0.9,0.1C-443.1,348.9-445.5,348.8-445.7,350"/>
			</g>
		</g>
	</g>
	<path class="st6" d="M-365.4,368h-0.7v-4.5h0.7V368z M-372.8,315.4l1.3,0.3l1.3,0.5l1.2,0.7l1.1,0.9l0.9,1.1l0.7,1.2l0.5,1.3
		l0.3,1.4l0,14.1h-0.7l0-14l-0.3-1.2l-0.5-1.2l-0.7-1.1l-0.8-1l-1-0.8l-1.1-0.7l-1.2-0.5l-1.2-0.3l-1.3-0.1h-28.5v-0.7h28.5
		L-372.8,315.4z"/>
	<path class="st8" d="M-402.7,316.1h-0.4l0-0.4l0-0.4h0.4V316.1z"/>
	<path class="st6" d="M-402.7,316.1h-0.4l0-0.4l0-0.4h0.4V316.1z M-403.1,315.4l0,0.3l0,0.3h0.4v-0.7L-403.1,315.4z"/>
	<path class="st8" d="M-365.7,378.5l-3.3-10.1h6.6L-365.7,378.5z"/>
	<path class="st6" d="M-365.7,379.6l-3.8-11.6h7.6L-365.7,379.6z M-368.5,368.7l2.8,8.6l2.8-8.6L-368.5,368.7z"/>
	<g transform="matrix(1,0,0,1,676.8044678110774,901.6635306770687) translate(0.005000000000002558 12.444444444444446)">
		<g id="k">
			<g transform="matrix(0.04320987654320988,0,0,0.04320987654320988,0,0)">
				<path id="E_00000138536181066373573820000002363162804596464316_" class="st8" d="M-382.6,342.4c0.2-0.7,0.3-1.9-0.7-1.8
					c-2.2,0.3-1.7,3.3-2.4,5.2h-1l0.8-4.4c0.1-1.1-1.5-0.9-2-0.3c-0.8,1.1-0.9,3.1-1.3,4.7h-1l1.1-5.8h0.9c0,0.3-0.2,0.7-0.1,1
					c0.4-1.3,3.1-1.6,3.2,0.2c0.4-0.7,0.9-1.3,1.9-1.3c2.8,0,0.9,4,0.7,6h-1"/>
			</g>
			<g transform="matrix(0.04320987654320988,0,0,0.04320987654320988,12.919753086419755,0)">
				<path id="z_00000119095805598938693030000005142136759601589919_" class="st8" d="M-376,344.3c-0.1,0.6,0,1,0.7,0.8l-0.1,0.6
					c-0.9,0.2-1.9,0-1.6-1.1h-0.1c-0.5,0.7-1,1.2-2.1,1.2c-1,0-1.7-0.6-1.7-1.6c0-2.1,2.2-2.1,4.2-2.1c0.3-0.8,0-1.7-1-1.7
					c-0.8,0-1.3,0.3-1.4,1l-1-0.2c0.2-2.1,4.9-2.2,4.4,0.5C-375.7,342.7-375.8,343.5-376,344.3z M-379.7,344.3
					c0.1,1.6,2.5,0.7,2.7-0.2c0.2-0.4,0.2-0.7,0.3-1.2C-378.1,342.9-379.8,342.8-379.7,344.3"/>
			</g>
			<g transform="matrix(0.04320987654320988,0,0,0.04320987654320988,21.56172839506173,0)">
				<path id="B_00000013885875002102662880000003039481431972501889_" class="st8" d="M-373.4,338.7l0.2-0.9h1l-0.2,0.9H-373.4z
					 M-374.7,345.8l1.1-5.8h1l-1.1,5.8H-374.7"/>
			</g>
			<g transform="matrix(0.04320987654320988,0,0,0.04320987654320988,24.97530864197531,0)">
				<path id="H_00000002386761459484029020000010671911413929579670_" class="st8" d="M-371.5,341.3c1-2,5.1-2,4.9,0.8
					c-0.2,2.2-1,3.7-3.2,3.8C-372.2,346-372.4,343.1-371.5,341.3z M-369.8,345.2c1.6,0,2.1-1.5,2.1-3.1c0-1-0.3-1.6-1.4-1.5
					c-1.6,0-2.1,1.4-2.1,3C-371.1,344.5-370.7,345.2-369.8,345.2"/>
			</g>
			<g transform="matrix(0.04320987654320988,0,0,0.04320987654320988,33.617283950617285,0)">
				<path id="I_00000028326748194376148860000018083864736362612121_" class="st8" d="M-364.3,341.2c0.4-0.8,0.9-1.6,2-1.2l-0.2,0.8
					c-2.5-0.3-2.1,3.1-2.7,5.1h-1l1.1-5.8h0.9"/>
			</g>
		</g>
	</g>
	<g transform="matrix(1,0,0,1,676.8044678110774,901.6635306770687) translate(43.08524691358025 12.444444444444446)">
		<g id="l">
			<g transform="matrix(0.04320987654320988,0,0,0.04320987654320988,0,0)">
				<path id="O" class="st8" d="M-355.5,344.9c-0.9,1.7-4.2,1.1-3.7-1.5c0.4-1.9,0.7-3.5,2.8-3.6c0.9,0,1.4,0.5,1.7,1.1
					c0.1-0.4,0.2-0.7,0.2-1h1l-1.7,8.2h-1L-355.5,344.9z M-358.2,343.8c-0.1,0.8,0.3,1.3,1.1,1.3c1.7,0,2.1-1.5,2.1-3.2
					c0-0.9-0.5-1.4-1.3-1.4C-357.9,340.5-358.1,342.4-358.2,343.8"/>
			</g>
			<g transform="matrix(0.04320987654320988,0,0,0.04320987654320988,8.641975308641976,0)">
				<path id="J_00000001647558278669827760000007789338176402014131_" class="st8" d="M-351.4,345.9c-2.9-0.1-1-3.9-0.8-5.9h1
					l-0.8,4.3c-0.1,1.2,1.6,1,2.1,0.4c0.9-1,0.9-3.1,1.3-4.7h1l-1.1,5.8h-0.9c0-0.3,0.2-0.7,0.1-1
					C-349.9,345.4-350.3,345.9-351.4,345.9"/>
			</g>
			<g transform="matrix(0.04320987654320988,0,0,0.04320987654320988,17.283950617283953,0)">
				<path id="F_00000113345309330753140610000009296361167456335749_" class="st8" d="M-343.9,339.8c1.9-0.1,2.6,1.4,2.2,3.3h-4.2
					c-0.2,1.2,0.2,2.1,1.4,2.1c0.8,0,1.3-0.4,1.6-1l0.7,0.3c-0.5,0.8-1.2,1.4-2.5,1.4c-1.5,0-2.3-0.8-2.3-2.3
					C-347,341.5-346,340-343.9,339.8z M-342.6,342.3c0.4-2-2.2-2.2-2.9-0.9c-0.1,0.2-0.2,0.5-0.3,0.9H-342.6"/>
			</g>
		</g>
	</g>
	<g transform="matrix(1,0,0,1,676.8044678110774,901.6635306770687) translate(6.853765432098768 31.111111111111118)">
		<g id="m">
			<g transform="matrix(0.04320987654320988,0,0,0.04320987654320988,0,0)">
				<path id="L_00000072958961807498152040000001869740151026519463_" class="st8" d="M-380.8,357.3l-0.3,1.7h-1l0.3-1.7h-3.5
					l0.2-0.8l4.4-5.1h1.1l-1,5.1h1l-0.2,0.8H-380.8z M-380.9,352.8l-3.2,3.7h2.5"/>
			</g>
			<g transform="matrix(0.04320987654320988,0,0,0.04320987654320988,8.641975308641976,0)">
				<path id="M_00000093856268816494697380000015510498703648122537_" class="st8" d="M-378.7,356.5c0-2.8,0.8-5.2,3.5-5.2
					c1.5,0,2.1,1,2.1,2.5c0,2.8-0.8,5.3-3.5,5.3C-378.1,359.2-378.7,358.1-378.7,356.5z M-377.8,356.7c0,1,0.3,1.7,1.2,1.7
					c2.1,0,2.3-2.4,2.5-4.6c0.1-1-0.3-1.7-1.2-1.7C-377.4,352.1-377.8,354.6-377.8,356.7"/>
			</g>
		</g>
	</g>
	<g transform="matrix(1,0,0,1,676.8044678110774,901.6635306770687) translate(28.45870370370371 31.111111111111118)">
		<g id="n">
			<g transform="matrix(0.04320987654320988,0,0,0.04320987654320988,0,0)">
				<path id="z_00000093155587612814891070000013522847210764460706_" class="st8" d="M-364.9,357.6c-0.1,0.6,0,1,0.7,0.8l-0.1,0.6
					c-0.9,0.2-1.9,0-1.6-1.1h-0.1c-0.5,0.7-1,1.2-2.1,1.2c-1,0-1.7-0.6-1.7-1.6c0-2.1,2.2-2.1,4.2-2.1c0.3-0.8,0-1.7-1-1.7
					c-0.8,0-1.3,0.3-1.4,1l-1-0.2c0.2-2.1,4.9-2.2,4.4,0.5C-364.6,355.9-364.7,356.7-364.9,357.6z M-368.7,357.5
					c0.1,1.6,2.5,0.7,2.7-0.2c0.2-0.4,0.2-0.7,0.3-1.2C-367.1,356.2-368.8,356-368.7,357.5"/>
			</g>
			<g transform="matrix(0.04320987654320988,0,0,0.04320987654320988,8.641975308641976,0)">
				<path id="G_00000086658276040639576850000016063374319139037355_" class="st8" d="M-361.8,354.2c0.7-1.5,4.1-1.6,3.6,0.9l-0.8,4
					h-1l0.8-4.3c0.1-1.2-1.6-1-2.1-0.4c-0.9,1.1-0.9,3.1-1.3,4.7h-1l1.1-5.8h0.9"/>
			</g>
			<g transform="matrix(0.04320987654320988,0,0,0.04320987654320988,17.283950617283953,0)">
				<path id="H_00000168108818812990602830000002034740853005326004_" class="st8" d="M-356.8,354.5c1-2,5.1-2,4.9,0.8
					c-0.2,2.2-1,3.7-3.2,3.8C-357.4,359.3-357.7,356.3-356.8,354.5z M-355,358.4c1.6,0,2.1-1.5,2.1-3.1c0-1-0.3-1.6-1.4-1.5
					c-1.6,0-2.1,1.4-2.1,3C-356.4,357.8-356,358.4-355,358.4"/>
			</g>
			<g transform="matrix(0.04320987654320988,0,0,0.04320987654320988,25.925925925925927,0)">
				<path id="N_00000057850639938002923160000003016399707154958773_" class="st8" d="M-349.9,354.6c0.4,1.5,3.2,0.7,3.2,2.7
					c0,2.4-4.4,2.4-4.8,0.5l0.8-0.3c0.2,1.2,3.1,1.3,3.1-0.1c-0.4-1.5-3.2-0.7-3.2-2.7c0-2.2,4.4-2.2,4.5-0.2l-0.9,0.1
					C-347.3,353.6-349.8,353.5-349.9,354.6"/>
			</g>
		</g>
	</g>
	<path class="st9" d="M-502.5,233.5c0,7.8-6.4,14.2-14.2,14.2c-7.8,0-14.2-6.4-14.2-14.2c0-7.8,6.4-14.2,14.2-14.2
		C-508.9,219.3-502.5,225.6-502.5,233.5z"/>
	<path class="st10" d="M-508.2,233.5c0,4.7-3.8,8.5-8.5,8.5c-4.7,0-8.5-3.8-8.5-8.5c0-4.7,3.8-8.5,8.5-8.5
		C-512,225-508.2,228.8-508.2,233.5z"/>
	<path class="st11" d="M-534.5,253.4c0-3.1,2.5-5.7,5.7-5.7h24.1c3.1,0,5.7,2.5,5.7,5.7v14c0,3.1-2.5,5.7-5.7,5.7h-24.1
		c-3.1,0-5.7-2.5-5.7-5.7V253.4z"/>
	<g transform="matrix(1,0,0,1,478.69244576916947,780.9810561234701) translate(3.5249999999999986 16.025)">
		<g id="o">
			<g transform="matrix(0.05,0,0,0.05,0,0)">
				<path id="P" class="st12" d="M-521.7,262.6l-4.7-7.5l0,7.5h-1v-8.8h1.4l4.7,7.6l-0.1-7.6h1.1v8.8H-521.7"/>
			</g>
			<g transform="matrix(0.05,0,0,0.05,12.950000000000001,0)">
				<path id="Q" class="st12" d="M-514.2,261.3c-0.5,0.7-1.1,1.5-2.4,1.4c-1.3,0-2.1-0.7-2.1-2c0-2.3,2.2-2.2,4.4-2.2
					c0.1-1.2-0.3-1.9-1.5-1.9c-0.9,0-1.5,0.2-1.5,1.1l-1.2-0.1c0.2-1.3,1.2-1.8,2.7-1.8c1.6,0,2.6,0.7,2.6,2.3v2.9
					c0,0.7,0.2,1.1,1,1v0.7C-513.2,262.9-514.3,262.5-514.2,261.3z M-517.5,260.7c0,0.7,0.4,1.2,1.1,1.2c1.5-0.1,2.2-1,2.1-2.6
					C-515.8,259.3-517.5,259.1-517.5,260.7z M-513.4,253.5c-0.1,0.8-0.3,1.7-1.3,1.7c-0.9,0-2.3-1.6-2.6,0h-0.6
					c0.1-0.8,0.3-1.7,1.3-1.7c1,0,2.3,1.6,2.6,0H-513.4"/>
			</g>
			<g transform="matrix(0.05,0,0,0.05,22.950000000000003,0)">
				<path id="R" class="st12" d="M-508.6,255.7c2.2,0,3,1.3,3,3.5c0,2.2-1,3.5-3.1,3.5s-2.9-1.4-3-3.5
					C-511.6,256.9-510.6,255.7-508.6,255.7z M-508.6,261.9c1.6,0,1.9-1.1,1.9-2.7c0-1.5-0.3-2.7-1.8-2.7c-1.5,0-1.9,1.1-1.9,2.7
					S-510.1,261.9-508.6,261.9"/>
			</g>
		</g>
	</g>
	<path class="st6" d="M-416,204.6h-0.7v-7.7h0.7V204.6z M-416,183.7h-0.7v-19h0.7V183.7z"/>
	<path class="st8" d="M-416.3,164.4l0.4,0v0.4h-0.7v-0.4L-416.3,164.4z"/>
	<path class="st6" d="M-416.3,164.4l0.4,0v0.4h-0.7v-0.4L-416.3,164.4z M-416.7,164.7h0.7v-0.4l-0.3,0l-0.3,0L-416.7,164.7z"/>
	<path class="st8" d="M-416.3,215.1l-3.3-10.1h6.6L-416.3,215.1z"/>
	<path class="st6" d="M-416.3,216.3l-3.8-11.6h7.6L-416.3,216.3z M-419.2,205.3l2.8,8.6l2.8-8.6L-419.2,205.3z"/>
	<g transform="matrix(1,0,0,1,618.8703703703703,685.8805105392959) translate(0 12.444444444444446)">
		<g id="p">
			<g transform="matrix(0.04320987654320988,0,0,0.04320987654320988,0,0)">
				<path id="S" class="st8" d="M-424.5,192.5l1.3-6.6c-0.2,0.5-0.5,1-0.8,1.5l-2.9,5.1h-0.7l-1.2-6.6l-1.2,6.6h-0.9l1.5-7.6h1.3
					l1.2,6.4l3.6-6.4h1.4l-1.5,7.6H-424.5"/>
			</g>
			<g transform="matrix(0.04320987654320988,0,0,0.04320987654320988,12.919753086419755,0)">
				<path id="T" class="st8" d="M-418.8,186.6c1.9-0.1,2.6,1.4,2.2,3.3h-4.2c-0.2,1.2,0.2,2.1,1.4,2.1c0.8,0,1.3-0.4,1.6-1l0.7,0.3
					c-0.5,0.8-1.2,1.4-2.5,1.4c-1.5,0-2.3-0.8-2.3-2.3C-421.8,188.2-420.8,186.7-418.8,186.6z M-417.4,189.1c0.4-2-2.2-2.2-2.9-0.9
					c-0.1,0.2-0.2,0.5-0.3,0.9H-417.4z M-419.3,186c0.3-0.7,1-1.1,1.4-1.7h1.2l0,0.2l-2,1.5H-419.3"/>
			</g>
			<g transform="matrix(0.04320987654320988,0,0,0.04320987654320988,21.56172839506173,0)">
				<path id="U" class="st8" d="M-412,191.7c-0.9,1.7-4.2,1.1-3.7-1.5c0.4-1.9,0.7-3.5,2.8-3.6c0.9,0,1.4,0.5,1.7,1.1l0.6-3.1h1
					l-1.5,8h-0.9L-412,191.7z M-414.7,190.6c-0.1,0.8,0.3,1.3,1.1,1.3c1.7,0,2.1-1.5,2.1-3.2c0-0.9-0.5-1.4-1.3-1.4
					C-414.4,187.3-414.5,189.1-414.7,190.6"/>
			</g>
			<g transform="matrix(0.04320987654320988,0,0,0.04320987654320988,30.203703703703713,0)">
				<path id="B_00000074437154526227601700000013472018514053477797_" class="st8" d="M-408.4,185.4l0.2-0.9h1l-0.2,0.9H-408.4z
					 M-409.7,192.5l1.1-5.8h1l-1.1,5.8H-409.7"/>
			</g>
			<g transform="matrix(0.04320987654320988,0,0,0.04320987654320988,33.61728395061729,0)">
				<path id="z_00000171678826209001053650000012429278929511670941_" class="st8" d="M-402.4,191.1c-0.1,0.6,0,1,0.7,0.8l-0.1,0.6
					c-0.9,0.2-1.9,0-1.6-1.1h-0.1c-0.5,0.7-1,1.2-2.1,1.2c-1,0-1.7-0.6-1.7-1.6c0-2.1,2.2-2.1,4.2-2.1c0.3-0.8,0-1.7-1-1.7
					c-0.8,0-1.3,0.3-1.4,1l-1-0.2c0.2-2.1,4.9-2.2,4.4,0.5C-402.1,189.4-402.2,190.2-402.4,191.1z M-406.2,191
					c0.1,1.6,2.5,0.7,2.7-0.2c0.2-0.4,0.2-0.7,0.3-1.2C-404.6,189.7-406.3,189.5-406.2,191"/>
			</g>
		</g>
	</g>
	<path class="st11" d="M-336,256.2c0-3.1,2.5-5.7,5.7-5.7h24.1c3.1,0,5.7,2.5,5.7,5.7v14c0,3.1-2.5,5.7-5.7,5.7h-24.1
		c-3.1,0-5.7-2.5-5.7-5.7V256.2z"/>
	<g transform="matrix(1,0,0,1,758.1537771154152,785) translate(4.550000000000001 16.025)">
		<g id="q">
			<g transform="matrix(0.05,0,0,0.05,0,0)">
				<path id="V" class="st13" d="M-322.6,258.8c-0.2-1.7-4.4-1.9-4.4,0.1c0.5,2.7,5.6,0.5,5.8,4.2c0.1,2.8-4.3,3.1-6.2,2
					c-0.6-0.4-1-0.9-1.2-1.6l1.2-0.2c0.2,2,5,2.2,5,0c0-2.8-5.5-0.5-5.8-4.2c-0.2-2.9,5.1-3,6.4-1.2c0.2,0.2,0.3,0.6,0.4,0.9"/>
			</g>
			<g transform="matrix(0.05,0,0,0.05,12,0)">
				<path id="W" class="st13" d="M-319.8,257.3v-1.1h1.1v1.1H-319.8z M-319.8,265.5v-6.7h1.1v6.7H-319.8"/>
			</g>
			<g transform="matrix(0.05,0,0,0.05,15.949999999999998,0)">
				<path id="X" class="st13" d="M-310.4,259.5c-2.4,0.1-1.3,3.7-1.6,6h-1.1v-4.3c0-1-0.2-1.8-1.2-1.7c-2.3,0.1-1.3,3.7-1.6,6h-1.1
					l0-6.7h1.1c0,0.4,0,0.9,0.1,1.1c0.4-1.6,3.5-1.8,3.8,0c0.4-0.7,1-1.2,2.1-1.3c3-0.1,1.7,4.2,2,6.9h-1.1v-4.3
					C-309.2,260.1-309.3,259.4-310.4,259.5"/>
			</g>
		</g>
	</g>
	<path class="st9" d="M-451.9,392.6c0,7.8-6.4,14.2-14.2,14.2c-7.8,0-14.2-6.4-14.2-14.2c0-7.8,6.4-14.2,14.2-14.2
		C-458.2,378.4-451.9,384.7-451.9,392.6z"/>
	<path class="st10" d="M-457.5,392.6c0,4.7-3.8,8.5-8.5,8.5c-4.7,0-8.5-3.8-8.5-8.5c0-4.7,3.8-8.5,8.5-8.5
		C-461.4,384.1-457.5,387.9-457.5,392.6z"/>
	<path class="st11" d="M-483.8,412.5c0-3.1,2.5-5.7,5.7-5.7h24.1c3.1,0,5.7,2.5,5.7,5.7v14c0,3.1-2.5,5.7-5.7,5.7h-24.1
		c-3.1,0-5.7-2.5-5.7-5.7V412.5z"/>
	<g>
		<g transform="matrix(1,0,0,1,550,1005) translate(4.550000000000001 16.025)">
			<g id="q_00000085964686739869728780000017737921994055290536_">
				<g transform="matrix(0.05,0,0,0.05,0,0)">
					<path id="V_00000061443333368702026360000015015639348161418140_" class="st13" d="M-470.5,415c-0.2-1.7-4.4-1.9-4.4,0.1
						c0.5,2.7,5.6,0.5,5.8,4.2c0.1,2.8-4.3,3.1-6.2,2c-0.6-0.4-1-0.9-1.2-1.6l1.2-0.2c0.2,2,5,2.2,5,0c0-2.8-5.5-0.5-5.8-4.2
						c-0.2-2.9,5.1-3,6.4-1.2c0.2,0.2,0.3,0.6,0.4,0.9"/>
				</g>
				<g transform="matrix(0.05,0,0,0.05,12,0)">
					<path id="W_00000005972877280532476910000010064761976569602476_" class="st13" d="M-467.7,413.5v-1.1h1.1v1.1H-467.7z
						 M-467.7,421.7V415h1.1v6.7H-467.7"/>
				</g>
				<g transform="matrix(0.05,0,0,0.05,15.949999999999998,0)">
					<path id="X_00000103257660221261938390000011429868507916446899_" class="st13" d="M-458.3,415.7c-2.4,0.1-1.3,3.7-1.6,6h-1.1
						v-4.3c0-1-0.2-1.8-1.2-1.7c-2.3,0.1-1.3,3.7-1.6,6h-1.1l0-6.7h1.1c0,0.4,0,0.9,0.1,1.1c0.4-1.6,3.5-1.8,3.8,0
						c0.4-0.7,1-1.2,2.1-1.3c3-0.1,1.7,4.2,2,6.9h-1.1v-4.3C-457,416.4-457.2,415.7-458.3,415.7"/>
				</g>
			</g>
		</g>
	</g>
	<path class="st9" d="M-351.5,392.6c0,7.8-6.4,14.2-14.2,14.2c-7.8,0-14.2-6.4-14.2-14.2c0-7.8,6.4-14.2,14.2-14.2
		C-357.9,378.4-351.5,384.7-351.5,392.6z"/>
	<path class="st10" d="M-357.2,392.6c0,4.7-3.8,8.5-8.5,8.5c-4.7,0-8.5-3.8-8.5-8.5c0-4.7,3.8-8.5,8.5-8.5
		C-361,384.1-357.2,387.9-357.2,392.6z"/>
	<path class="st11" d="M-383.5,412.5c0-3.1,2.5-5.7,5.7-5.7h24.1c3.1,0,5.7,2.5,5.7,5.7v14c0,3.1-2.5,5.7-5.7,5.7h-24.1
		c-3.1,0-5.7-2.5-5.7-5.7V412.5z"/>
	<g>
		<g transform="matrix(1,0,0,1,691.3075542308305,1005.0000000000002) translate(3.5249999999999986 16.025)">
			<g id="o_00000160877942992797888380000004090372845338157730_">
				<g transform="matrix(0.05,0,0,0.05,0,0)">
					<path id="P_00000114757485837562796420000017690079346752285070_" class="st12" d="M-370.7,421.7l-4.7-7.5l0,7.5h-1v-8.8h1.4
						l4.7,7.6l-0.1-7.6h1.1v8.8H-370.7"/>
				</g>
				<g transform="matrix(0.05,0,0,0.05,12.950000000000001,0)">
					<path id="Q_00000166676251590023016780000006727742193227330989_" class="st12" d="M-363.2,420.5c-0.5,0.7-1.1,1.5-2.4,1.4
						c-1.3,0-2.1-0.7-2.1-2c0-2.3,2.2-2.2,4.4-2.2c0.1-1.2-0.3-1.9-1.5-1.9c-0.9,0-1.5,0.2-1.5,1.1l-1.2-0.1
						c0.2-1.3,1.2-1.8,2.7-1.8c1.6,0,2.6,0.7,2.6,2.3v2.9c0,0.7,0.2,1.1,1,1v0.7C-362.2,422-363.3,421.6-363.2,420.5z M-366.5,419.8
						c0,0.7,0.4,1.2,1.1,1.2c1.5-0.1,2.2-1,2.1-2.6C-364.8,418.5-366.5,418.2-366.5,419.8z M-362.3,412.6c-0.1,0.8-0.3,1.7-1.3,1.7
						c-0.9,0-2.3-1.6-2.6,0h-0.6c0.1-0.8,0.3-1.7,1.3-1.7s2.3,1.6,2.6,0H-362.3"/>
				</g>
				<g transform="matrix(0.05,0,0,0.05,22.950000000000003,0)">
					<path id="R_00000075160048407464175730000011667724601858352278_" class="st12" d="M-357.6,414.8c2.2,0,3,1.3,3,3.5
						c0,2.2-1,3.5-3.1,3.5s-2.9-1.4-3-3.5C-360.6,416-359.6,414.8-357.6,414.8z M-357.6,421c1.6,0,1.9-1.1,1.9-2.7
						c0-1.5-0.3-2.7-1.8-2.7c-1.5,0-1.9,1.1-1.9,2.7S-359,421-357.6,421"/>
				</g>
			</g>
		</g>
	</g>
</g>
<image style="overflow:visible;" width="1022" height="1110" xlink:href="tabela-exemplo.png"  transform="matrix(0.289 0 0 0.289 -1088.4346 69.5102)">
</image>
<rect x="-1067.5" y="448.4" class="st14" width="270.4" height="39.4"/>
<text transform="matrix(1 0 0 1 -1067.4663 461.9132)" class="st15 st16">Base de dados</text>
<rect x="-525.2" y="448.4" class="st14" width="270.4" height="39.4"/>
<text transform="matrix(1 0 0 1 -525.231 461.9132)" class="st15 st16">Classificador</text>
<rect x="-767.3" y="206.8" class="st14" width="190.3" height="70.3"/>
<text transform="matrix(1 0 0 1 -767.2852 229.2933)"><tspan x="0" y="0" style="fill:#939598; font-family:'Roboto-Black'; font-size:30px;">Algoritmo de  </tspan><tspan x="0" y="36" style="fill:#939598; font-family:'Roboto-Black'; font-size:30px;">classificação</tspan></text>
<g>
	<rect x="249.5" y="103.3" class="st0" width="48.1" height="230.4"/>
	<rect x="194.8" y="333.4" class="st0" width="48.1" height="126.6"/>
	
		<rect x="222.1" y="283" transform="matrix(6.123234e-17 -1 1 6.123234e-17 -88.2465 580.6006)" class="st0" width="48.1" height="102.8"/>
	<g transform="translate(0 0)" lucid:page-tab-id="0_0">
		<path class="st2" d="M223.4,40c-7,0-12.7,5.7-12.7,12.7v38c0,7,5.7,12.7,12.7,12.7h101.3c7,0,12.7-5.7,12.7-12.7v-38
			c0-7-5.7-12.7-12.7-12.7H223.4z"/>
		<g transform="matrix(1,0,0,1,568,508) translate(45.85185185185185 37.15555555555556)">
			<g id="a_00000138574754328460513060000011149005902829347230_">
				<g transform="matrix(0.04938271604938272,0,0,0.04938271604938272,0,0)">
					<path id="r_00000108300530700978569030000001331705839673631391_" class="st3" d="M263.1,68.6c0,1.9-1.1,2.8-2.9,3l1.8,4.1
						h-1.4l-1.7-4h-3l-0.8,4h-1.3l1.9-9.7C258.9,66.1,263.1,65.4,263.1,68.6z M261.8,68.7c0-2.1-2.9-1.5-5-1.6l-0.7,3.6
						C258.6,70.7,261.8,71.2,261.8,68.7"/>
				</g>
				<g transform="matrix(0.04938271604938272,0,0,0.04938271604938272,12.790123456790125,0)">
					<path id="s_00000143612148190403696780000016085712048756022462_" class="st3" d="M267.8,68.2c2.4-0.1,3.4,1.8,2.8,4.1h-5.4
						c-0.3,1.5,0.2,2.7,1.8,2.7c1.1,0,1.7-0.5,2.1-1.3l0.9,0.4c-0.6,1-1.5,1.8-3.1,1.8c-1.9,0-2.9-1.1-2.9-2.9
						C264,70.3,265.2,68.3,267.8,68.2z M269.6,71.3c0.5-2.6-2.8-2.8-3.7-1.1c-0.2,0.3-0.3,0.7-0.4,1.1H269.6"/>
				</g>
				<g transform="matrix(0.04938271604938272,0,0,0.04938271604938272,22.66666666666667,0)">
					<path id="t_00000023253743454838850670000005137999808221272994_" class="st3" d="M273.9,69.6c0.9-1.9,5.2-2,4.5,1.1l-1,5h-1.3
						l1-5.5c0.1-1.5-2.1-1.3-2.7-0.5c-1.1,1.4-1.2,3.9-1.7,5.9h-1.3l1.4-7.4h1.2"/>
				</g>
				<g transform="matrix(0.04938271604938272,0,0,0.04938271604938272,32.543209876543216,0)">
					<path id="u_00000093165291026046968140000006340001335411530374_" class="st3" d="M284.3,74.7c-1.2,2.1-5.4,1.4-4.7-1.9
						c0.5-2.4,0.9-4.5,3.5-4.6c1.1,0,1.8,0.6,2.2,1.4l0.7-4h1.3l-2,10.2h-1.2L284.3,74.7z M280.9,73.3c-0.1,1.1,0.4,1.7,1.4,1.7
						c2.1,0,2.7-2,2.7-4c0-1.1-0.6-1.8-1.6-1.8C281.2,69.1,281.1,71.4,280.9,73.3"/>
				</g>
				<g transform="matrix(0.04938271604938272,0,0,0.04938271604938272,42.41975308641976,0)">
					<path id="v_00000159436395794232260930000017323588369437627279_" class="st3" d="M293.4,73.9c-0.2,0.7,0,1.3,0.9,1.1l-0.1,0.8
						c-1.1,0.3-2.4,0-2-1.4h-0.1c-0.6,0.9-1.3,1.6-2.7,1.6c-1.3,0-2.1-0.8-2.1-2.1c0-2.7,2.8-2.6,5.4-2.6c0.4-1,0-2.2-1.2-2.1
						c-1,0-1.6,0.4-1.8,1.2l-1.3-0.2c0.3-2.6,6.3-2.8,5.6,0.6C293.8,71.8,293.6,72.8,293.4,73.9z M288.6,73.8c0.1,2,3.1,0.9,3.5-0.2
						c0.3-0.5,0.3-0.9,0.4-1.5C290.7,72.1,288.5,71.9,288.6,73.8"/>
				</g>
			</g>
		</g>
		<path class="st4" d="M269.6,139.5c2.5-2.5,6.5-2.5,9,0c0,0,0,0,0,0l6.9,6.9c2.5,2.5,2.5,6.5,0,9c0,0,0,0,0,0l-6.9,6.9
			c-2.5,2.5-6.5,2.5-9,0c0,0,0,0,0,0l-6.9-6.9c-2.5-2.5-2.5-6.5,0-9c0,0,0,0,0,0L269.6,139.5z"/>
		<path class="st5" d="M274.1,103.7V123"/>
		<path class="st6" d="M274.5,103.7h-0.8v-0.4h0.8V103.7z"/>
		<path class="st7" d="M274.1,134.7l-3.7-11.3h7.3L274.1,134.7z"/>
		<path class="st6" d="M162.7,213.4h-0.8l0-22.9h0.8L162.7,213.4z M258.9,151.2h-87.1l-1.4,0.1l-1.4,0.3l-1.3,0.6l-1.2,0.7l-1.1,0.9
			l-0.9,1.1l-0.8,1.2l-0.6,1.3l-0.3,1.4l0,16.9H162l0-17l0.4-1.5l0.6-1.4l0.8-1.3l1-1.2l1.2-1l1.3-0.8l1.4-0.6l1.5-0.4l1.5-0.1h87.1
			V151.2z"/>
		<path class="st8" d="M259.3,150.8l0,0.4h-0.4v-0.8h0.4L259.3,150.8z"/>
		<path class="st6" d="M259.3,150.8l0,0.4h-0.5v-0.8h0.5L259.3,150.8z M258.9,150.4v0.8h0.4l0-0.4l0-0.4L258.9,150.4z"/>
		<path class="st8" d="M162.3,225.1l-3.7-11.3h7.3L162.3,225.1z"/>
		<path class="st6" d="M162.3,226.3l-4.2-13h8.4L162.3,226.3z M159.2,214.2l3.1,9.6l3.1-9.6H159.2z"/>
		<g transform="matrix(1,0,0,1,485.318988979046,671.5215439457942) translate(0 12.444444444444446)">
			<g id="b_00000131325455410156222940000000556304940354409857_">
				<g transform="matrix(0.04320987654320988,0,0,0.04320987654320988,0,0)">
					<path id="w_00000150786623512381039230000010876916561201707173_" class="st8" d="M158.1,185.6l-0.5-2.5h-3.8l-1.4,2.5h-1.3
						l5.1-8.5h1.3l1.8,8.5H158.1z M157.4,182.2l-0.8-4.2l-2.4,4.2H157.4"/>
				</g>
				<g transform="matrix(0.04320987654320988,0,0,0.04320987654320988,10.370370370370372,0)">
					<path id="x_00000109732710612369343610000015738436424031553709_" class="st8" d="M160.1,185.6l1.7-8.9h1.1l-1.7,8.9H160.1"/>
				</g>
				<g transform="matrix(0.04320987654320988,0,0,0.04320987654320988,13.783950617283953,0)">
					<path id="y_00000170250425939144394900000015703594336202982302_" class="st8" d="M164.4,183.7c-0.3,0.8,0.2,1.4,1.1,1
						l-0.1,0.8c-1.2,0.5-2.4-0.1-2.1-1.7l0.8-3.9h-0.8l0.2-0.8h0.8l0.6-1.5h0.7l-0.3,1.5h1.2l-0.1,0.8h-1.2"/>
				</g>
				<g transform="matrix(0.04320987654320988,0,0,0.04320987654320988,18.10493827160494,0)">
					<path id="z_00000041253311969101089240000007287724566167838122_" class="st8" d="M171.7,183.9c-0.1,0.6,0,1.2,0.8,0.9
						l-0.1,0.7c-1,0.3-2.1,0-1.8-1.2h-0.1c-0.5,0.8-1.1,1.4-2.3,1.4c-1.1,0-1.9-0.7-1.9-1.8c0-2.3,2.4-2.3,4.7-2.3
						c0.3-0.9,0-1.9-1.1-1.8c-0.9,0-1.4,0.3-1.6,1.1l-1.1-0.2c0.3-2.3,5.5-2.4,4.9,0.5C172,182.1,171.9,183,171.7,183.9z
						 M167.5,183.9c0.1,1.8,2.7,0.8,3-0.2c0.2-0.4,0.2-0.8,0.4-1.3C169.3,182.4,167.4,182.2,167.5,183.9"/>
				</g>
			</g>
		</g>
		<path class="st6" d="M383.8,216.5l-0.8,0l0-24.8h0.8L383.8,216.5z M375.4,150.5l1.5,0.4l1.4,0.6l1.3,0.8l1.2,1l1,1.2l0.8,1.3
			l0.6,1.4l0.4,1.5l0,18.2h-0.8l0-18.1l-0.3-1.4l-0.6-1.3l-0.7-1.2l-0.9-1.1l-1.1-0.9l-1.2-0.8l-1.3-0.6l-1.4-0.3l-1.4-0.1h-84.6
			v-0.8h84.6L375.4,150.5z"/>
		<path class="st8" d="M289.3,151.2h-0.4l0-0.4l0-0.4h0.4V151.2z"/>
		<path class="st6" d="M289.3,151.2h-0.5l0-0.4l0-0.4h0.5V151.2z M288.9,150.4l0,0.4l0,0.4h0.4v-0.8L288.9,150.4z"/>
		<path class="st8" d="M383.4,228.2l-3.7-11.3h7.3L383.4,228.2z"/>
		<path class="st6" d="M383.4,229.5l-4.2-13h8.4L383.4,229.5z M380.3,217.3l3.1,9.6l3.1-9.6H380.3z"/>
		<g transform="matrix(1,0,0,1,758.7309376092423,673.119542634716) translate(0 12.444444444444446)">
			<g id="c_00000077283315304069673770000012559649921647196554_">
				<g transform="matrix(0.04320987654320988,0,0,0.04320987654320988,0,0)">
					<path id="A_00000158706885473228448290000000733725339831973805_" class="st8" d="M375.5,184.2c0,3.2-3.9,2.6-7.1,2.6l1.6-8.5
						c2.5,0.1,5.8-0.5,5.8,1.9c0,1.3-0.8,1.8-2.1,2.1C374.7,182.5,375.5,183.1,375.5,184.2z M374.6,180.4c0-1.5-2.1-1.1-3.6-1.1
						l-0.5,2.7C372.4,182,374.6,182.3,374.6,180.4z M374.4,184.2c0-1.7-2.4-1.2-4.1-1.3l-0.6,3C371.8,185.9,374.4,186.3,374.4,184.2
						"/>
				</g>
				<g transform="matrix(0.04320987654320988,0,0,0.04320987654320988,10.370370370370372,0)">
					<path id="z_00000129165818412085374850000003874101665761035653_" class="st8" d="M381.9,185.2c-0.1,0.6,0,1.2,0.8,0.9
						l-0.1,0.7c-1,0.3-2.1,0-1.8-1.2h-0.1c-0.5,0.8-1.1,1.4-2.3,1.4c-1.1,0-1.9-0.7-1.9-1.8c0-2.3,2.4-2.3,4.7-2.3
						c0.3-0.9,0-1.9-1.1-1.8c-0.9,0-1.4,0.3-1.6,1.1l-1.1-0.2c0.3-2.3,5.5-2.4,4.9,0.5C382.2,183.4,382.1,184.3,381.9,185.2z
						 M377.7,185.1c0.1,1.8,2.7,0.8,3-0.2c0.2-0.4,0.2-0.8,0.4-1.3C379.5,183.7,377.5,183.5,377.7,185.1"/>
				</g>
				<g transform="matrix(0.04320987654320988,0,0,0.04320987654320988,19.01234567901235,0)">
					<path id="B_00000057841745229840902570000016933955362849740961_" class="st8" d="M384.8,178.9l0.2-1h1.1l-0.2,1H384.8z
						 M383.3,186.8l1.3-6.5h1.1l-1.3,6.5H383.3"/>
				</g>
				<g transform="matrix(0.04320987654320988,0,0,0.04320987654320988,22.425925925925934,0)">
					<path id="C_00000118386515037487694980000000002045471854777247_" class="st8" d="M390,186.8l-1.3-2.7l-2.3,2.7h-1.2l2.9-3.4
						l-1.6-3.1h1.1l1.2,2.5l2.1-2.5h1.3l-2.8,3.1l1.7,3.4H390"/>
				</g>
				<g transform="matrix(0.04320987654320988,0,0,0.04320987654320988,30.203703703703713,0)">
					<path id="z_00000066505790079348672570000001563478684623502490_" class="st8" d="M397.5,185.2c-0.1,0.6,0,1.2,0.8,0.9
						l-0.1,0.7c-1,0.3-2.1,0-1.8-1.2h-0.1c-0.5,0.8-1.1,1.4-2.3,1.4c-1.1,0-1.9-0.7-1.9-1.8c0-2.3,2.4-2.3,4.7-2.3
						c0.3-0.9,0-1.9-1.1-1.8c-0.9,0-1.4,0.3-1.6,1.1l-1.1-0.2c0.3-2.3,5.5-2.4,4.9,0.5C397.9,183.4,397.8,184.3,397.5,185.2z
						 M393.3,185.1c0.1,1.8,2.7,0.8,3-0.2c0.2-0.4,0.2-0.8,0.4-1.3C395.2,183.7,393.2,183.5,393.3,185.1"/>
				</g>
			</g>
		</g>
		<path class="st9" d="M399.2,245.7c0,8.7-7.1,15.8-15.8,15.8c-8.7,0-15.8-7.1-15.8-15.8c0-8.7,7.1-15.8,15.8-15.8
			C392.1,229.9,399.2,237,399.2,245.7z"/>
		<path class="st10" d="M392.9,245.7c0,5.2-4.2,9.5-9.5,9.5c-5.2,0-9.5-4.2-9.5-9.5s4.3-9.5,9.5-9.5
			C388.6,236.2,392.9,240.5,392.9,245.7z"/>
		<path class="st2" d="M223.4,223.4c-7,0-12.7,5.7-12.7,12.7v38c0,7,5.7,12.7,12.7,12.7h101.3c7,0,12.7-5.7,12.7-12.7v-38
			c0-7-5.7-12.7-12.7-12.7H223.4z"/>
		<g transform="matrix(1,0,0,1,568,739.7352419760889) translate(49.777777777777786 37.15555555555556)">
			<g id="d_00000126293615903367859500000011321278358285445786_">
				<g transform="matrix(0.04938271604938272,0,0,0.04938271604938272,0,0)">
					<path id="D_00000085950809517076718960000009755111398718003898_" class="st3" d="M257,259.1l1.9-9.7h1.3l-1.9,9.7H257"/>
				</g>
				<g transform="matrix(0.04938271604938272,0,0,0.04938271604938272,4.938271604938272,0)">
					<path id="u_00000018931720410636893140000012535014934662283954_" class="st3" d="M265.6,258c-1.2,2.1-5.4,1.4-4.7-1.9
						c0.5-2.4,0.9-4.5,3.5-4.6c1.1,0,1.8,0.6,2.2,1.4l0.7-4h1.3l-2,10.2h-1.2L265.6,258z M262.2,256.6c-0.1,1.1,0.4,1.7,1.4,1.7
						c2.1,0,2.7-2,2.7-4c0-1.1-0.6-1.8-1.6-1.8C262.5,252.4,262.3,254.7,262.2,256.6"/>
				</g>
				<g transform="matrix(0.04938271604938272,0,0,0.04938271604938272,14.814814814814817,0)">
					<path id="v_00000104703921360652878240000014839678340900771712_" class="st3" d="M274.7,257.2c-0.2,0.7,0,1.3,0.9,1.1
						l-0.1,0.8c-1.1,0.3-2.4,0-2-1.4h-0.1c-0.6,0.9-1.3,1.6-2.7,1.6c-1.3,0-2.1-0.8-2.1-2.1c0-2.7,2.8-2.6,5.4-2.6
						c0.4-1,0-2.2-1.2-2.1c-1,0-1.6,0.4-1.8,1.2l-1.3-0.2c0.3-2.6,6.3-2.8,5.6,0.6C275.1,255.2,274.9,256.2,274.7,257.2z
						 M269.9,257.1c0.1,2,3.1,0.9,3.5-0.2c0.3-0.5,0.3-0.9,0.4-1.5C271.9,255.5,269.7,255.3,269.9,257.1"/>
				</g>
				<g transform="matrix(0.04938271604938272,0,0,0.04938271604938272,24.69135802469136,0)">
					<path id="u_00000066513430950645515370000007801670462583171999_" class="st3" d="M281.2,258c-1.2,2.1-5.4,1.4-4.7-1.9
						c0.5-2.4,0.9-4.5,3.5-4.6c1.1,0,1.8,0.6,2.2,1.4l0.7-4h1.3l-2,10.2h-1.2L281.2,258z M277.8,256.6c-0.1,1.1,0.4,1.7,1.4,1.7
						c2.1,0,2.7-2,2.7-4c0-1.1-0.6-1.8-1.6-1.8C278.1,252.4,277.9,254.7,277.8,256.6"/>
				</g>
				<g transform="matrix(0.04938271604938272,0,0,0.04938271604938272,34.567901234567906,0)">
					<path id="s_00000178919737820327759280000006189470958806013579_" class="st3" d="M288.2,251.5c2.4-0.1,3.4,1.8,2.8,4.1h-5.4
						c-0.3,1.5,0.2,2.7,1.8,2.7c1.1,0,1.7-0.5,2.1-1.3l0.9,0.4c-0.6,1-1.5,1.8-3.1,1.8c-1.9,0-2.9-1.1-2.9-2.9
						C284.3,253.6,285.6,251.7,288.2,251.5z M289.9,254.7c0.5-2.6-2.8-2.8-3.7-1.1c-0.2,0.3-0.3,0.7-0.4,1.1H289.9"/>
				</g>
			</g>
		</g>
		<path class="st4" d="M269.6,322.8c2.5-2.5,6.5-2.5,9,0c0,0,0,0,0,0l6.9,6.9c2.5,2.5,2.5,6.5,0,8.9l-6.9,6.9c-2.5,2.5-6.5,2.5-9,0
			c0,0,0,0,0,0l-6.9-6.9c-2.5-2.5-2.5-6.5,0-8.9L269.6,322.8z"/>
		<path class="st5" d="M274.1,287.1v19.3"/>
		<path class="st6" d="M274.5,287.1h-0.8v-0.4h0.8V287.1z"/>
		<path class="st7" d="M274.1,318.1l-3.7-11.3h7.3L274.1,318.1z"/>
		<path class="st6" d="M219.1,390.6h-0.8l0-8.4h0.8L219.1,390.6z M258.9,334.5h-30.7l-1.4,0.1l-1.4,0.3l-1.3,0.6l-1.2,0.7l-1.1,0.9
			l-0.9,1.1l-0.8,1.2l-0.6,1.3l-0.3,1.4l0,10.4h-0.8l0-10.5l0.4-1.5l0.6-1.4l0.8-1.3l1-1.2l1.2-1l1.3-0.8l1.4-0.6l1.5-0.4l1.5-0.1
			h30.7L258.9,334.5z"/>
		<path class="st8" d="M259.3,334.1l0,0.4h-0.4v-0.8h0.4L259.3,334.1z"/>
		<path class="st6" d="M259.3,334.1l0,0.4h-0.5v-0.8h0.5L259.3,334.1z M258.9,333.8v0.8h0.4l0-0.4l0-0.4L258.9,333.8z"/>
		<path class="st8" d="M218.7,402.3L215,391h7.3L218.7,402.3z"/>
		<path class="st6" d="M218.7,403.6l-4.2-13h8.4L218.7,403.6z M215.6,391.4l3.1,9.6l3.1-9.6H215.6z"/>
		<g transform="matrix(1,0,0,1,518.6666666666666,895.1196423477893) translate(0.005000000000002558 12.444444444444446)">
			<g id="e_00000036944737497172192890000002020744913730310291_">
				<g transform="matrix(0.04320987654320988,0,0,0.04320987654320988,0,0)">
					<path id="E_00000030471817554840949930000000511990627730945423_" class="st8" d="M186.6,358.7c0.2-0.8,0.3-2.1-0.8-2
						c-2.5,0.3-1.9,3.7-2.6,5.8h-1.1l0.9-4.9c0.1-1.3-1.7-1-2.2-0.3c-0.9,1.3-1,3.5-1.4,5.2h-1.1l1.2-6.5h1c0,0.3-0.2,0.8-0.1,1.1
						c0.4-1.5,3.5-1.8,3.6,0.2c0.4-0.8,1-1.4,2.1-1.4c3.1,0,1,4.4,0.8,6.6h-1.1"/>
				</g>
				<g transform="matrix(0.04320987654320988,0,0,0.04320987654320988,12.919753086419755,0)">
					<path id="F_00000121267950057466116680000004810100870797026224_" class="st8" d="M192.1,355.8c2.1-0.1,2.9,1.6,2.5,3.6h-4.7
						c-0.2,1.3,0.2,2.4,1.5,2.3c0.9,0,1.5-0.5,1.8-1.1l0.8,0.4c-0.5,0.9-1.3,1.5-2.7,1.5c-1.7,0-2.6-0.9-2.6-2.6
						C188.7,357.7,189.8,356,192.1,355.8z M193.6,358.6c0.5-2.3-2.4-2.5-3.2-1c-0.1,0.3-0.3,0.6-0.4,1H193.6"/>
				</g>
				<g transform="matrix(0.04320987654320988,0,0,0.04320987654320988,21.56172839506173,0)">
					<path id="G_00000010310215255410335290000012295925366558067630_" class="st8" d="M197.4,357.1c0.8-1.6,4.5-1.8,4,1l-0.9,4.4
						h-1.1l0.9-4.8c0.1-1.3-1.8-1.1-2.4-0.4c-1,1.2-1,3.4-1.5,5.2h-1.1l1.2-6.5h1"/>
				</g>
				<g transform="matrix(0.04320987654320988,0,0,0.04320987654320988,30.203703703703713,0)">
					<path id="H_00000135676110451988872420000015151647980414131349_" class="st8" d="M203,357.5c1.1-2.2,5.7-2.2,5.4,0.9
						c-0.2,2.4-1.1,4.1-3.5,4.2C202.3,362.8,202,359.5,203,357.5z M205,361.8c1.8,0,2.3-1.6,2.3-3.4c0-1.1-0.4-1.7-1.5-1.7
						c-1.8,0-2.3,1.6-2.3,3.3C203.5,361.1,203.9,361.8,205,361.8"/>
				</g>
				<g transform="matrix(0.04320987654320988,0,0,0.04320987654320988,38.845679012345684,0)">
					<path id="I_00000013166112720157111190000008974242370000435127_" class="st8" d="M211.1,357.3c0.4-0.9,1-1.7,2.3-1.4l-0.2,0.9
						c-2.8-0.4-2.3,3.4-3,5.6H209l1.2-6.5h1"/>
				</g>
			</g>
		</g>
		<g transform="matrix(1,0,0,1,518.6666666666666,895.1196423477893) translate(48.31364197530865 12.444444444444446)">
			<g id="f_00000103974242248888842820000017297143187782114950_">
				<g transform="matrix(0.04320987654320988,0,0,0.04320987654320988,0,0)">
					<path id="H_00000061436927644107754740000008359309790540387997_" class="st8" d="M217.3,357.5c1.1-2.2,5.7-2.2,5.4,0.9
						c-0.2,2.4-1.1,4.1-3.5,4.2C216.6,362.8,216.3,359.5,217.3,357.5z M219.3,361.8c1.8,0,2.3-1.6,2.3-3.4c0-1.1-0.4-1.7-1.5-1.7
						c-1.8,0-2.3,1.6-2.3,3.3C217.8,361.1,218.3,361.8,219.3,361.8"/>
				</g>
				<g transform="matrix(0.04320987654320988,0,0,0.04320987654320988,8.641975308641976,0)">
					<path id="J_00000059289068620108793720000010181142037732580533_" class="st8" d="M225.4,362.6c-3.2-0.1-1.1-4.3-0.9-6.6h1.1
						l-0.9,4.8c-0.1,1.3,1.8,1.1,2.4,0.4c1-1.2,1-3.5,1.5-5.2h1.1l-1.2,6.5h-1c0-0.3,0.2-0.8,0.1-1.1
						C227.1,362,226.6,362.6,225.4,362.6"/>
				</g>
			</g>
		</g>
		<g transform="matrix(1,0,0,1,518.6666666666666,895.1196423477893) translate(69.91858024691359 12.444444444444446)">
			<g id="g_00000044893926504595843050000009945438058124354980_">
				<g transform="matrix(0.04320987654320988,0,0,0.04320987654320988,0,0)">
					<path id="B_00000111901520529216711220000013347605198933232313_" class="st8" d="M235.1,354.6l0.2-1h1.1l-0.2,1H235.1z
						 M233.6,362.5l1.3-6.5h1.1l-1.3,6.5H233.6"/>
				</g>
				<g transform="matrix(0.04320987654320988,0,0,0.04320987654320988,3.4135802469135808,0)">
					<path id="K_00000021120540784995714910000008216755120802872713_" class="st8" d="M239.6,355.8c1,0,1.6,0.5,1.9,1.2
						c0.1-0.4,0.2-0.8,0.3-1.1h1l-1.3,6.3c-0.1,2.3-2.7,3.5-4.8,2.3c-0.4-0.2-0.6-0.6-0.7-1.1l1-0.2c0.2,1.4,2.8,1.1,3.1-0.1
						c0.1-0.5,0.3-1.3,0.4-1.9c-0.4,0.7-1,1.2-2.1,1.2c-1.4,0-2.1-0.9-2.1-2.2C236.5,357.9,237.3,355.8,239.6,355.8z M239.8,356.7
						c-1.8,0-2,1.8-2.1,3.6c-0.1,0.9,0.3,1.5,1.2,1.5c1.7,0,2.2-1.7,2.3-3.5C241.2,357.2,240.7,356.7,239.8,356.7"/>
				</g>
				<g transform="matrix(0.04320987654320988,0,0,0.04320987654320988,12.055555555555557,0)">
					<path id="J_00000044173288188269108890000015088065361130052773_" class="st8" d="M245.2,362.6c-3.2-0.1-1.1-4.3-0.9-6.6h1.1
						l-0.9,4.8c-0.1,1.3,1.8,1.1,2.4,0.4c1-1.2,1-3.5,1.5-5.2h1.1l-1.2,6.5h-1c0-0.3,0.2-0.8,0.1-1.1
						C246.9,362,246.4,362.6,245.2,362.6"/>
				</g>
				<g transform="matrix(0.04320987654320988,0,0,0.04320987654320988,20.69753086419753,0)">
					<path id="z_00000053512691107387538470000009240183961453472698_" class="st8" d="M255.4,360.8c-0.1,0.6,0,1.2,0.8,0.9
						l-0.1,0.7c-1,0.3-2.1,0-1.8-1.2h-0.1c-0.5,0.8-1.1,1.4-2.3,1.4c-1.1,0-1.9-0.7-1.9-1.8c0-2.3,2.4-2.3,4.7-2.3
						c0.3-0.9,0-1.9-1.1-1.8c-0.9,0-1.4,0.3-1.6,1.1l-1.1-0.2c0.3-2.3,5.5-2.4,4.9,0.5C255.8,359,255.6,359.9,255.4,360.8z
						 M251.2,360.8c0.1,1.8,2.7,0.8,3-0.2c0.2-0.4,0.2-0.8,0.4-1.3C253,359.3,251.1,359.1,251.2,360.8"/>
				</g>
				<g transform="matrix(0.04320987654320988,0,0,0.04320987654320988,29.339506172839503,0)">
					<path id="x_00000181788583293236370040000013213758316181596807_" class="st8" d="M256.8,362.5l1.7-8.9h1.1l-1.7,8.9H256.8"/>
				</g>
			</g>
		</g>
		<g transform="matrix(1,0,0,1,518.6666666666666,895.1196423477893) translate(17.202530864197527 31.111111111111118)">
			
				<g id="h_00000017488676080391328910000005932619544379237022_" transform="matrix(0.04320987654320988,0,0,0.04320987654320988,0,0)">
				<path id="z_00000083077858274635969010000017687177228894617999_" class="st8" d="M197.3,375.6c-0.1,0.6,0,1.2,0.8,0.9l-0.1,0.7
					c-1,0.3-2.1,0-1.8-1.2h-0.1c-0.5,0.8-1.1,1.4-2.3,1.4c-1.1,0-1.9-0.7-1.9-1.8c0-2.3,2.4-2.3,4.7-2.3c0.3-0.9,0-1.9-1.1-1.8
					c-0.9,0-1.4,0.3-1.6,1.1l-1.1-0.2c0.3-2.3,5.5-2.4,4.9,0.5C197.7,373.8,197.5,374.7,197.3,375.6z M193.1,375.5
					c0.1,1.8,2.7,0.8,3-0.2c0.2-0.4,0.2-0.8,0.4-1.3C194.9,374.1,193,373.9,193.1,375.5"/>
			</g>
		</g>
		<g transform="matrix(1,0,0,1,518.6666666666666,895.1196423477893) translate(30.165493827160493 31.111111111111118)">
			<g id="i_00000062892077068367776050000003455174370481299075_">
				<g transform="matrix(0.04320987654320988,0,0,0.04320987654320988,0,0)">
					<path id="L_00000115513813971761142420000008302055885559287995_" class="st8" d="M207,375.3l-0.4,1.9h-1.1l0.4-1.9H202
						l0.2-0.9l4.9-5.7h1.2l-1.1,5.7h1.1l-0.2,0.9H207z M206.9,370.3l-3.6,4.2h2.8"/>
				</g>
				<g transform="matrix(0.04320987654320988,0,0,0.04320987654320988,8.641975308641976,0)">
					<path id="M_00000012457930239947124670000009464714247623003559_" class="st8" d="M209.3,374.4c0-3.1,0.9-5.8,3.9-5.8
						c1.6,0,2.3,1.1,2.3,2.8c0,3.1-0.9,5.9-3.9,5.9C210.1,377.4,209.3,376.2,209.3,374.4z M210.4,374.6c0,1.1,0.4,1.9,1.4,1.9
						c2.4,0,2.6-2.7,2.7-5.1c0.1-1.1-0.3-1.9-1.3-1.9C210.8,369.5,210.4,372.3,210.4,374.6"/>
				</g>
			</g>
		</g>
		<g transform="matrix(1,0,0,1,518.6666666666666,895.1196423477893) translate(51.77043209876543 31.111111111111118)">
			<g id="j_00000121257319920718883520000015184673361555050682_">
				<g transform="matrix(0.04320987654320988,0,0,0.04320987654320988,0,0)">
					<path id="z_00000090291851388041190160000010089197433685299616_" class="st8" d="M224.7,375.6c-0.1,0.6,0,1.2,0.8,0.9
						l-0.1,0.7c-1,0.3-2.1,0-1.8-1.2h-0.1c-0.5,0.8-1.1,1.4-2.3,1.4c-1.1,0-1.9-0.7-1.9-1.8c0-2.3,2.4-2.3,4.7-2.3
						c0.3-0.9,0-1.9-1.1-1.8c-0.9,0-1.4,0.3-1.6,1.1l-1.1-0.2c0.3-2.3,5.5-2.4,4.9,0.5C225,373.8,224.9,374.7,224.7,375.6z
						 M220.5,375.5c0.1,1.8,2.7,0.8,3-0.2c0.2-0.4,0.2-0.8,0.4-1.3C222.3,374.1,220.4,373.9,220.5,375.5"/>
				</g>
				<g transform="matrix(0.04320987654320988,0,0,0.04320987654320988,8.641975308641976,0)">
					<path id="G_00000065075773289679468490000000269131060349539459_" class="st8" d="M228.2,371.8c0.8-1.6,4.5-1.8,4,1l-0.9,4.4
						h-1.1l0.9-4.8c0.1-1.3-1.8-1.1-2.4-0.4c-1,1.2-1,3.4-1.5,5.2h-1.1l1.2-6.5h1"/>
				</g>
				<g transform="matrix(0.04320987654320988,0,0,0.04320987654320988,17.283950617283953,0)">
					<path id="H_00000001651819691530721570000003652295607974992298_" class="st8" d="M233.7,372.2c1.1-2.2,5.7-2.2,5.4,0.9
						c-0.2,2.4-1.1,4.1-3.5,4.2C233,377.5,232.8,374.2,233.7,372.2z M235.7,376.6c1.8,0,2.3-1.6,2.3-3.4c0-1.1-0.4-1.7-1.5-1.7
						c-1.8,0-2.3,1.6-2.3,3.3C234.2,375.8,234.7,376.6,235.7,376.6"/>
				</g>
				<g transform="matrix(0.04320987654320988,0,0,0.04320987654320988,25.925925925925927,0)">
					<path id="N_00000176012939852191941870000014539419568691996598_" class="st8" d="M241.4,372.3c0.4,1.7,3.6,0.8,3.6,3
						c0,2.6-4.9,2.7-5.4,0.6l0.9-0.3c0.2,1.4,3.5,1.4,3.5-0.1c-0.4-1.7-3.6-0.8-3.6-3c0-2.4,4.9-2.4,5.1-0.3l-1,0.1
						C244.3,371.1,241.6,371.1,241.4,372.3"/>
				</g>
			</g>
		</g>
		<path class="st6" d="M330.9,392.4h-0.8v-5h0.8V392.4z M322.5,333.9l1.5,0.4l1.4,0.6l1.3,0.8l1.2,1l1,1.2l0.8,1.3l0.6,1.4l0.4,1.5
			l0,15.7H330l0-15.6l-0.3-1.4l-0.6-1.3l-0.7-1.2l-0.9-1.1l-1.1-0.9l-1.2-0.7l-1.3-0.6l-1.4-0.3l-1.4-0.1h-31.7v-0.8H321
			L322.5,333.9z"/>
		<path class="st8" d="M289.3,334.5h-0.4l0-0.4l0-0.4h0.4V334.5z"/>
		<path class="st6" d="M289.3,334.5h-0.5l0-0.4l0-0.4h0.5V334.5z M288.9,333.8l0,0.4l0,0.4h0.4v-0.7L288.9,333.8z"/>
		<path class="st8" d="M330.5,404.1l-3.7-11.3h7.3L330.5,404.1z"/>
		<path class="st6" d="M330.5,405.3l-4.2-13h8.4L330.5,405.3z M327.4,393.2l3.1,9.6l3.1-9.6L327.4,393.2z"/>
		<g transform="matrix(1,0,0,1,676.8044678110774,901.6635306770687) translate(0.005000000000002558 12.444444444444446)">
			<g id="k_00000134953157069483180150000002219694242518647707_">
				<g transform="matrix(0.04320987654320988,0,0,0.04320987654320988,0,0)">
					<path id="E_00000166642765146122807050000018227238501027209610_" class="st8" d="M311.7,363.9c0.2-0.8,0.3-2.1-0.8-2
						c-2.5,0.3-1.9,3.7-2.6,5.8h-1.1l0.9-4.9c0.1-1.3-1.7-1-2.2-0.3c-0.9,1.3-1,3.5-1.4,5.2h-1.1l1.2-6.5h1c0,0.3-0.2,0.8-0.1,1.1
						c0.4-1.5,3.5-1.8,3.6,0.2c0.4-0.8,1-1.4,2.1-1.4c3.1,0,1,4.4,0.8,6.6h-1.1"/>
				</g>
				<g transform="matrix(0.04320987654320988,0,0,0.04320987654320988,12.919753086419755,0)">
					<path id="z_00000122688278976537918650000016138866130384532141_" class="st8" d="M319.1,366c-0.1,0.6,0,1.2,0.8,0.9l-0.1,0.7
						c-1,0.3-2.1,0-1.8-1.2h-0.1c-0.5,0.8-1.1,1.4-2.3,1.4c-1.1,0-1.9-0.7-1.9-1.8c0-2.3,2.4-2.3,4.7-2.3c0.3-0.9,0-1.9-1.1-1.8
						c-0.9,0-1.4,0.3-1.6,1.1l-1.1-0.2c0.3-2.3,5.5-2.4,4.9,0.5C319.4,364.2,319.3,365.1,319.1,366z M314.9,365.9
						c0.1,1.8,2.7,0.8,3-0.2c0.2-0.4,0.2-0.8,0.4-1.3C316.7,364.5,314.8,364.3,314.9,365.9"/>
				</g>
				<g transform="matrix(0.04320987654320988,0,0,0.04320987654320988,21.56172839506173,0)">
					<path id="B_00000039124176825533735370000012733522440881709229_" class="st8" d="M322,359.8l0.2-1h1.1l-0.2,1H322z
						 M320.5,367.7l1.3-6.5h1.1l-1.3,6.5H320.5"/>
				</g>
				<g transform="matrix(0.04320987654320988,0,0,0.04320987654320988,24.97530864197531,0)">
					<path id="H_00000107556804541946964760000013941716565975149980_" class="st8" d="M324,362.6c1.1-2.2,5.7-2.2,5.4,0.9
						c-0.2,2.4-1.1,4.1-3.5,4.2C323.3,367.9,323,364.6,324,362.6z M326,367c1.8,0,2.3-1.6,2.3-3.4c0-1.1-0.4-1.7-1.5-1.7
						c-1.8,0-2.3,1.6-2.3,3.3C324.5,366.3,324.9,367,326,367"/>
				</g>
				<g transform="matrix(0.04320987654320988,0,0,0.04320987654320988,33.617283950617285,0)">
					<path id="I_00000151544868961431639260000018084680644207970182_" class="st8" d="M332.1,362.5c0.4-0.9,1-1.7,2.3-1.4l-0.2,0.9
						c-2.8-0.4-2.3,3.4-3,5.6H330l1.2-6.5h1"/>
				</g>
			</g>
		</g>
		<g transform="matrix(1,0,0,1,676.8044678110774,901.6635306770687) translate(43.08524691358025 12.444444444444446)">
			<g id="l_00000049206378753264958040000004688176256746299545_">
				<g transform="matrix(0.04320987654320988,0,0,0.04320987654320988,0,0)">
					<path id="O_00000055701845899896337940000003058144028797030316_" class="st8" d="M341.8,366.7c-1,1.8-4.7,1.2-4.1-1.7
						c0.4-2.1,0.8-3.9,3.1-4c1,0,1.6,0.5,1.9,1.2c0.1-0.4,0.2-0.8,0.3-1.2h1.1l-1.8,9.2h-1.1L341.8,366.7z M338.8,365.5
						c-0.1,0.9,0.3,1.5,1.2,1.5c1.8,0,2.4-1.7,2.4-3.5c0-1-0.5-1.6-1.4-1.6C339.1,361.8,339,363.8,338.8,365.5"/>
				</g>
				<g transform="matrix(0.04320987654320988,0,0,0.04320987654320988,8.641975308641976,0)">
					<path id="J_00000016054185435002073540000001568461509388986045_" class="st8" d="M346.4,367.8c-3.2-0.1-1.1-4.3-0.9-6.6h1.1
						l-0.9,4.8c-0.1,1.3,1.8,1.1,2.4,0.4c1-1.2,1-3.5,1.5-5.2h1.1l-1.2,6.5h-1c0-0.3,0.2-0.8,0.1-1.1
						C348.1,367.2,347.6,367.8,346.4,367.8"/>
				</g>
				<g transform="matrix(0.04320987654320988,0,0,0.04320987654320988,17.283950617283953,0)">
					<path id="F_00000173148157727911041480000009741636017172229269_" class="st8" d="M354.7,361c2.1-0.1,2.9,1.6,2.5,3.6h-4.7
						c-0.2,1.3,0.2,2.4,1.5,2.3c0.9,0,1.5-0.5,1.8-1.1l0.8,0.4c-0.5,0.9-1.3,1.5-2.7,1.5c-1.7,0-2.6-0.9-2.6-2.6
						C351.4,362.8,352.5,361.2,354.7,361z M356.3,363.8c0.5-2.3-2.4-2.5-3.2-1c-0.1,0.3-0.3,0.6-0.4,1H356.3"/>
				</g>
			</g>
		</g>
		<g transform="matrix(1,0,0,1,676.8044678110774,901.6635306770687) translate(6.853765432098768 31.111111111111118)">
			<g id="m_00000155130641103730865470000014674330289857032087_">
				<g transform="matrix(0.04320987654320988,0,0,0.04320987654320988,0,0)">
					<path id="L_00000042712049227989981380000005918496379894665861_" class="st8" d="M313.7,380.5l-0.4,1.9h-1.1l0.4-1.9h-3.9
						l0.2-0.9l4.9-5.7h1.2l-1.1,5.7h1.1l-0.2,0.9H313.7z M313.6,375.5l-3.6,4.2h2.8"/>
				</g>
				<g transform="matrix(0.04320987654320988,0,0,0.04320987654320988,8.641975308641976,0)">
					<path id="M_00000181083602534840391210000009357451468673108627_" class="st8" d="M316,379.6c0-3.1,0.9-5.8,3.9-5.8
						c1.6,0,2.3,1.1,2.3,2.8c0,3.1-0.9,5.9-3.9,5.9C316.7,382.6,316,381.4,316,379.6z M317,379.8c0,1.1,0.4,1.9,1.4,1.9
						c2.4,0,2.6-2.7,2.7-5.1c0.1-1.1-0.3-1.9-1.3-1.9C317.4,374.7,317,377.5,317,379.8"/>
				</g>
			</g>
		</g>
		<g transform="matrix(1,0,0,1,676.8044678110774,901.6635306770687) translate(28.45870370370371 31.111111111111118)">
			<g id="n_00000116957865638624521300000017373674815572461699_">
				<g transform="matrix(0.04320987654320988,0,0,0.04320987654320988,0,0)">
					<path id="z_00000075161200131852595730000015634567516959628167_" class="st8" d="M331.3,380.8c-0.1,0.6,0,1.2,0.8,0.9
						l-0.1,0.7c-1,0.3-2.1,0-1.8-1.2h-0.1c-0.5,0.8-1.1,1.4-2.3,1.4c-1.1,0-1.9-0.7-1.9-1.8c0-2.3,2.4-2.3,4.7-2.3
						c0.3-0.9,0-1.9-1.1-1.8c-0.9,0-1.4,0.3-1.6,1.1l-1.1-0.2c0.3-2.3,5.5-2.4,4.9,0.5C331.7,379,331.6,379.9,331.3,380.8z
						 M327.1,380.7c0.1,1.8,2.7,0.8,3-0.2c0.2-0.4,0.2-0.8,0.4-1.3C329,379.2,327,379.1,327.1,380.7"/>
				</g>
				<g transform="matrix(0.04320987654320988,0,0,0.04320987654320988,8.641975308641976,0)">
					<path id="G_00000165227748727168551030000014120604276667524277_" class="st8" d="M334.8,377c0.8-1.6,4.5-1.8,4,1l-0.9,4.4
						h-1.1l0.9-4.8c0.1-1.3-1.8-1.1-2.4-0.4c-1,1.2-1,3.4-1.5,5.2h-1.1l1.2-6.5h1"/>
				</g>
				<g transform="matrix(0.04320987654320988,0,0,0.04320987654320988,17.283950617283953,0)">
					<path id="H_00000099639518513299531850000002631382096748509330_" class="st8" d="M340.4,377.4c1.1-2.2,5.7-2.2,5.4,0.9
						c-0.2,2.4-1.1,4.1-3.5,4.2C339.7,382.7,339.4,379.4,340.4,377.4z M342.4,381.7c1.8,0,2.3-1.6,2.3-3.4c0-1.1-0.4-1.7-1.5-1.7
						c-1.8,0-2.3,1.6-2.3,3.3C340.9,381,341.3,381.7,342.4,381.7"/>
				</g>
				<g transform="matrix(0.04320987654320988,0,0,0.04320987654320988,25.925925925925927,0)">
					<path id="N_00000039841968105807723180000000265978549113890203_" class="st8" d="M348.1,377.5c0.4,1.7,3.6,0.8,3.6,3
						c0,2.6-4.9,2.7-5.4,0.6l0.9-0.3c0.2,1.4,3.5,1.4,3.5-0.1c-0.4-1.7-3.6-0.8-3.6-3c0-2.4,4.9-2.4,5.1-0.3l-1,0.1
						C351,376.3,348.2,376.2,348.1,377.5"/>
				</g>
			</g>
		</g>
		<path class="st9" d="M178.1,242.6c0,8.7-7.1,15.8-15.8,15.8c-8.7,0-15.8-7.1-15.8-15.8c0-8.7,7.1-15.8,15.8-15.8
			C171,226.7,178.1,233.8,178.1,242.6z"/>
		<path class="st10" d="M171.8,242.6c0,5.2-4.3,9.5-9.5,9.5c-5.2,0-9.5-4.2-9.5-9.5s4.2-9.5,9.5-9.5
			C167.5,233.1,171.8,237.3,171.8,242.6z"/>
		<path class="st11" d="M142.5,264.7c0-3.5,2.8-6.3,6.3-6.3h26.9c3.5,0,6.3,2.8,6.3,6.3v15.6c0,3.5-2.8,6.3-6.3,6.3h-26.9
			c-3.5,0-6.3-2.8-6.3-6.3V264.7z"/>
		<g transform="matrix(1,0,0,1,478.69244576916947,780.9810561234701) translate(3.5249999999999986 16.025)">
			<g id="o_00000129886072778435514980000009150503828655774099_">
				<g transform="matrix(0.05,0,0,0.05,0,0)">
					<path id="P_00000181771023773509247130000015481471653617003946_" class="st12" d="M156.8,275l-5.2-8.3l0,8.3h-1.1v-9.8h1.5
						l5.3,8.4l-0.1-8.4h1.2v9.8H156.8"/>
				</g>
				<g transform="matrix(0.05,0,0,0.05,12.950000000000001,0)">
					<path id="Q_00000050626813841082111100000013407596181302153857_" class="st12" d="M165.1,273.6c-0.6,0.8-1.2,1.6-2.7,1.6
						c-1.4,0-2.3-0.8-2.3-2.3c0-2.5,2.5-2.5,4.9-2.5c0.1-1.4-0.4-2.1-1.6-2.1c-0.9,0-1.6,0.3-1.7,1.2l-1.3-0.1
						c0.2-1.5,1.3-2.1,3-2.1c1.8,0,2.8,0.8,2.8,2.5v3.2c0,0.8,0.3,1.3,1.1,1.1v0.8C166.2,275.3,165,274.9,165.1,273.6z M161.4,272.9
						c0,0.8,0.5,1.3,1.3,1.3c1.6-0.1,2.5-1.1,2.4-2.9C163.3,271.4,161.4,271.1,161.4,272.9z M166,264.8c-0.1,0.9-0.4,1.9-1.4,1.9
						c-1,0-2.6-1.7-2.9,0H161c0.2-0.9,0.3-1.9,1.4-1.9c1.1,0,2.5,1.7,2.9,0H166"/>
				</g>
				<g transform="matrix(0.05,0,0,0.05,22.950000000000003,0)">
					<path id="R_00000174590107614966263800000007742486826678846136_" class="st12" d="M171.4,267.3c2.5,0,3.4,1.5,3.4,3.9
						c0,2.5-1.1,3.9-3.4,3.9c-2.3,0-3.3-1.5-3.3-3.9C168,268.6,169.1,267.3,171.4,267.3z M171.3,274.2c1.7,0,2.1-1.2,2.1-3
						c0-1.7-0.3-3-2-3s-2.1,1.3-2.1,3S169.7,274.2,171.3,274.2"/>
				</g>
			</g>
		</g>
		<path class="st6" d="M274.5,210.4h-0.8v-8.5h0.8V210.4z M274.5,187.1h-0.8V166h0.8V187.1z"/>
		<path class="st8" d="M274.1,165.6l0.4,0v0.4h-0.8v-0.4L274.1,165.6z"/>
		<path class="st6" d="M274.1,165.6l0.4,0v0.5h-0.8v-0.5L274.1,165.6z M273.7,166h0.8v-0.4l-0.4,0l-0.4,0L273.7,166z"/>
		<path class="st8" d="M274.1,222.1l-3.7-11.3h7.3L274.1,222.1z"/>
		<path class="st6" d="M274.1,223.4l-4.2-13h8.4L274.1,223.4z M271,211.2l3.1,9.6l3.1-9.6L271,211.2z"/>
		<g transform="matrix(1,0,0,1,618.8703703703703,685.8805105392959) translate(0 12.444444444444446)">
			<g id="p_00000032625143425060079880000008924628777579875242_">
				<g transform="matrix(0.04320987654320988,0,0,0.04320987654320988,0,0)">
					<path id="S_00000109026957619057618010000015293543807840293798_" class="st8" d="M264.9,196.9l1.5-7.4
						c-0.3,0.5-0.6,1.2-0.9,1.7l-3.3,5.7h-0.8l-1.4-7.4l-1.4,7.4h-1l1.6-8.5h1.4l1.3,7.1l4-7.1h1.5l-1.6,8.5H264.9"/>
				</g>
				<g transform="matrix(0.04320987654320988,0,0,0.04320987654320988,12.919753086419755,0)">
					<path id="T_00000155833894002845321900000007119567424642530477_" class="st8" d="M271.4,190.3c2.1-0.1,2.9,1.6,2.5,3.6h-4.7
						c-0.2,1.3,0.2,2.4,1.5,2.3c0.9,0,1.5-0.5,1.8-1.1l0.8,0.4c-0.5,0.9-1.3,1.5-2.7,1.5c-1.7,0-2.6-0.9-2.6-2.6
						C268,192.1,269.1,190.4,271.4,190.3z M272.9,193.1c0.5-2.3-2.4-2.5-3.2-1c-0.1,0.3-0.3,0.6-0.4,1H272.9z M270.8,189.7
						c0.3-0.8,1.1-1.2,1.5-1.8h1.3l0,0.2l-2.3,1.7H270.8"/>
				</g>
				<g transform="matrix(0.04320987654320988,0,0,0.04320987654320988,21.56172839506173,0)">
					<path id="U_00000090282655966399223090000017857348773678889380_" class="st8" d="M279,196c-1,1.8-4.7,1.2-4.1-1.7
						c0.4-2.1,0.8-3.9,3.1-4c1,0,1.6,0.5,1.9,1.2l0.6-3.5h1.1l-1.7,8.9h-1L279,196z M276,194.8c-0.1,0.9,0.3,1.5,1.2,1.5
						c1.8,0,2.4-1.7,2.4-3.5c0-1-0.5-1.6-1.4-1.6C276.3,191.1,276.1,193.1,276,194.8"/>
				</g>
				<g transform="matrix(0.04320987654320988,0,0,0.04320987654320988,30.203703703703713,0)">
					<path id="B_00000142167178985251385400000005939736318961552302_" class="st8" d="M283,189l0.2-1h1.1l-0.2,1H283z M281.5,196.9
						l1.3-6.5h1.1l-1.3,6.5H281.5"/>
				</g>
				<g transform="matrix(0.04320987654320988,0,0,0.04320987654320988,33.61728395061729,0)">
					<path id="z_00000036939620282611331050000007217744982298159242_" class="st8" d="M289.6,195.3c-0.1,0.6,0,1.2,0.8,0.9
						l-0.1,0.7c-1,0.3-2.1,0-1.8-1.2h-0.1c-0.5,0.8-1.1,1.4-2.3,1.4c-1.1,0-1.9-0.7-1.9-1.8c0-2.3,2.4-2.3,4.7-2.3
						c0.3-0.9,0-1.9-1.1-1.8c-0.9,0-1.4,0.3-1.6,1.1l-1.1-0.2c0.3-2.3,5.5-2.4,4.9,0.5C289.9,193.5,289.8,194.4,289.6,195.3z
						 M285.4,195.2c0.1,1.8,2.7,0.8,3-0.2c0.2-0.4,0.2-0.8,0.4-1.3C287.2,193.8,285.3,193.6,285.4,195.2"/>
				</g>
			</g>
		</g>
		<path class="st11" d="M363.6,267.9c0-3.5,2.8-6.3,6.3-6.3h26.9c3.5,0,6.3,2.8,6.3,6.3v15.6c0,3.5-2.8,6.3-6.3,6.3h-26.9
			c-3.5,0-6.3-2.8-6.3-6.3V267.9z"/>
		<g transform="matrix(1,0,0,1,758.1537771154152,785) translate(4.550000000000001 16.025)">
			<g id="q_00000171701902489993927850000014195892953371765419_">
				<g transform="matrix(0.05,0,0,0.05,0,0)">
					<path id="V_00000011002687524441787000000012667081675423444632_" class="st13" d="M378.5,270.7c-0.2-1.9-4.9-2.1-4.9,0.1
						c0.6,3,6.3,0.6,6.4,4.7c0.1,3.1-4.8,3.4-6.9,2.2c-0.7-0.4-1.1-1-1.3-1.8l1.3-0.3c0.2,2.2,5.6,2.5,5.6,0c0-3.1-6.1-0.6-6.4-4.7
						c-0.2-3.2,5.7-3.3,7.1-1.3c0.2,0.3,0.3,0.6,0.4,1"/>
				</g>
				<g transform="matrix(0.05,0,0,0.05,12,0)">
					<path id="W_00000029755222756832554360000003473506542797816487_" class="st13" d="M381.6,269.1v-1.2h1.3v1.2H381.6z
						 M381.6,278.2v-7.5h1.3v7.5H381.6"/>
				</g>
				<g transform="matrix(0.05,0,0,0.05,15.949999999999998,0)">
					<path id="X_00000013150842446278332420000001788252559243074481_" class="st13" d="M392.1,271.5c-2.7,0.1-1.5,4.2-1.7,6.7h-1.2
						v-4.8c0-1.1-0.2-2-1.4-1.9c-2.6,0.2-1.5,4.1-1.7,6.7h-1.2l0-7.5h1.2c0,0.4,0,0.9,0.1,1.3c0.4-1.7,3.9-2,4.2,0
						c0.4-0.8,1.1-1.4,2.3-1.4c3.4-0.1,1.9,4.7,2.2,7.7h-1.2v-4.8C393.5,272.3,393.3,271.5,392.1,271.5"/>
				</g>
			</g>
		</g>
		<path class="st9" d="M234.5,419.8c0,8.7-7.1,15.8-15.8,15.8c-8.7,0-15.8-7.1-15.8-15.8c0-8.7,7.1-15.8,15.8-15.8
			C227.4,404,234.5,411,234.5,419.8z"/>
		<path class="st10" d="M228.2,419.8c0,5.2-4.2,9.5-9.5,9.5c-5.2,0-9.5-4.2-9.5-9.5s4.2-9.5,9.5-9.5
			C223.9,410.3,228.2,414.5,228.2,419.8z"/>
		<path class="st11" d="M198.9,441.9c0-3.5,2.8-6.3,6.3-6.3h26.9c3.5,0,6.3,2.8,6.3,6.3v15.6c0,3.5-2.8,6.3-6.3,6.3h-26.9
			c-3.5,0-6.3-2.8-6.3-6.3V441.9z"/>
		<g>
			<g transform="matrix(1,0,0,1,550,1005) translate(4.550000000000001 16.025)">
				<g id="q_00000085221654947771564600000013993401681500717756_">
					<g transform="matrix(0.05,0,0,0.05,0,0)">
						<path id="V_00000002386212183434169920000010372572313603382414_" class="st13" d="M213.8,444.8c-0.2-1.9-4.9-2.1-4.9,0.1
							c0.6,3,6.3,0.6,6.4,4.7c0.1,3.1-4.8,3.4-6.9,2.2c-0.7-0.4-1.1-1-1.3-1.8l1.3-0.3c0.2,2.2,5.6,2.5,5.6,0c0-3.1-6.1-0.6-6.4-4.7
							c-0.2-3.2,5.7-3.3,7.1-1.3c0.2,0.3,0.3,0.6,0.4,1"/>
					</g>
					<g transform="matrix(0.05,0,0,0.05,12,0)">
						<path id="W_00000098924771608444630980000011806827650846000785_" class="st13" d="M216.9,443.1v-1.2h1.3v1.2H216.9z
							 M216.9,452.2v-7.5h1.3v7.5H216.9"/>
					</g>
					<g transform="matrix(0.05,0,0,0.05,15.949999999999998,0)">
						<path id="X_00000161631153175414192740000007690913218921790126_" class="st13" d="M227.4,445.6c-2.7,0.1-1.5,4.2-1.7,6.7
							h-1.2v-4.8c0-1.1-0.2-2-1.4-1.9c-2.6,0.2-1.5,4.1-1.7,6.7h-1.2l0-7.5h1.2c0,0.4,0,0.9,0.1,1.3c0.4-1.7,3.9-2,4.2,0
							c0.4-0.8,1.1-1.4,2.3-1.4c3.4-0.1,1.9,4.7,2.2,7.7h-1.2v-4.8C228.8,446.3,228.6,445.5,227.4,445.6"/>
					</g>
				</g>
			</g>
		</g>
		<path class="st9" d="M346.3,419.8c0,8.7-7.1,15.8-15.8,15.8c-8.7,0-15.8-7.1-15.8-15.8c0-8.7,7.1-15.8,15.8-15.8
			C339.2,404,346.3,411,346.3,419.8z"/>
		<path class="st10" d="M340,419.8c0,5.2-4.2,9.5-9.5,9.5c-5.2,0-9.5-4.2-9.5-9.5s4.3-9.5,9.5-9.5C335.7,410.3,340,414.5,340,419.8z
			"/>
		<path class="st11" d="M310.7,441.9c0-3.5,2.8-6.3,6.3-6.3h26.9c3.5,0,6.3,2.8,6.3,6.3v15.6c0,3.5-2.8,6.3-6.3,6.3H317
			c-3.5,0-6.3-2.8-6.3-6.3V441.9z"/>
		<g>
			<g transform="matrix(1,0,0,1,691.3075542308305,1005.0000000000002) translate(3.5249999999999986 16.025)">
				<g id="o_00000167389468114033699320000015821650526955331203_">
					<g transform="matrix(0.05,0,0,0.05,0,0)">
						<path id="P_00000005963733810432978140000005121746400891900846_" class="st12" d="M325,452.2l-5.2-8.3l0,8.3h-1.1v-9.8h1.5
							l5.3,8.4l-0.1-8.4h1.2v9.8H325"/>
					</g>
					<g transform="matrix(0.05,0,0,0.05,12.950000000000001,0)">
						<path id="Q_00000031180007347912560320000002586324219585033124_" class="st12" d="M333.3,450.8c-0.6,0.8-1.2,1.6-2.7,1.6
							c-1.4,0-2.3-0.8-2.3-2.3c0-2.5,2.5-2.5,4.9-2.5c0.1-1.4-0.4-2.1-1.6-2.1c-0.9,0-1.6,0.3-1.7,1.2l-1.3-0.1
							c0.2-1.5,1.3-2.1,3-2.1c1.8,0,2.8,0.8,2.8,2.5v3.2c0,0.8,0.3,1.3,1.1,1.1v0.8C334.4,452.6,333.2,452.1,333.3,450.8z
							 M329.6,450.1c0,0.8,0.5,1.3,1.3,1.3c1.6-0.1,2.5-1.1,2.4-2.9C331.5,448.6,329.6,448.3,329.6,450.1z M334.2,442
							c-0.1,0.9-0.4,1.9-1.4,1.9c-1,0-2.6-1.7-2.9,0h-0.6c0.2-0.9,0.3-1.9,1.4-1.9c1.1,0,2.5,1.7,2.9,0H334.2"/>
					</g>
					<g transform="matrix(0.05,0,0,0.05,22.950000000000003,0)">
						<path id="R_00000056416045172330339560000010779611155986867868_" class="st12" d="M339.6,444.6c2.5,0,3.4,1.5,3.4,3.9
							c0,2.5-1.1,3.9-3.4,3.9s-3.3-1.5-3.3-3.9C336.2,445.9,337.3,444.6,339.6,444.6z M339.5,451.4c1.7,0,2.1-1.2,2.1-3
							c0-1.7-0.3-3-2-3s-2.1,1.3-2.1,3S337.9,451.4,339.5,451.4"/>
					</g>
				</g>
			</g>
		</g>
	</g>
</g>
<rect x="80.7" y="43.3" class="st14" width="130.8" height="63.9"/>
<text transform="matrix(1 0 0 1 80.6663 56.7884)"><tspan x="0" y="0" class="st15 st16">George</tspan><tspan x="0" y="21" class="st17 st18">renda média</tspan><tspan x="0" y="42" class="st17 st18">idade 28</tspan></text>
<rect x="80.7" y="397.8" class="st14" width="104.5" height="63.9"/>
<text transform="matrix(1 0 0 1 80.6663 411.3042)"><tspan x="0" y="0" class="st15 st16">George </tspan><tspan x="0" y="21" class="st17 st18">utiliza trans</tspan><tspan x="82.7" y="21" class="st17 st18">-</tspan><tspan x="0" y="42" class="st17 st18">porte público</tspan></text>
<g>
	<linearGradient id="SVGID_1_" gradientUnits="userSpaceOnUse" x1="94.6661" y1="377.6224" x2="94.6661" y2="121.142">
		<stop  offset="0" style="stop-color:#FFFFFF"/>
		<stop  offset="1" style="stop-color:#000000"/>
	</linearGradient>
	<line class="st19" x1="94.7" y1="121.1" x2="94.7" y2="377.6"/>
	<g>
		
			<linearGradient id="SVGID_00000000939843623448009310000009448719136080875418_" gradientUnits="userSpaceOnUse" x1="94.6661" y1="119.642" x2="94.6661" y2="379.1223">
			<stop  offset="0" style="stop-color:#FFFFFF"/>
			<stop  offset="1" style="stop-color:#000000"/>
		</linearGradient>
		
			<line style="fill:none;stroke:url(#SVGID_00000000939843623448009310000009448719136080875418_);stroke-width:3;stroke-linecap:round;stroke-miterlimit:10;" x1="94.7" y1="121.1" x2="94.7" y2="121.1"/>
		
			<linearGradient id="SVGID_00000018942429578476512090000002676696781220812702_" gradientUnits="userSpaceOnUse" x1="94.6661" y1="119.642" x2="94.6661" y2="379.1224">
			<stop  offset="0" style="stop-color:#FFFFFF"/>
			<stop  offset="1" style="stop-color:#000000"/>
		</linearGradient>
		
			<line style="fill:none;stroke:url(#SVGID_00000018942429578476512090000002676696781220812702_);stroke-width:3;stroke-linecap:round;stroke-miterlimit:10;stroke-dasharray:0,9.8646;" x1="94.7" y1="131" x2="94.7" y2="372.7"/>
		
			<linearGradient id="SVGID_00000154392575679147665190000006096218307974829735_" gradientUnits="userSpaceOnUse" x1="94.6661" y1="119.642" x2="94.6661" y2="379.1224">
			<stop  offset="0" style="stop-color:#FFFFFF"/>
			<stop  offset="1" style="stop-color:#000000"/>
		</linearGradient>
		
			<line style="fill:none;stroke:url(#SVGID_00000154392575679147665190000006096218307974829735_);stroke-width:3;stroke-linecap:round;stroke-miterlimit:10;" x1="94.7" y1="377.6" x2="94.7" y2="377.6"/>
	</g>
</g>
<rect x="132.9" y="123.4" class="st23" width="72.6" height="167.7"/>
<rect x="205.5" y="123.4" transform="matrix(-1 -1.224647e-16 1.224647e-16 -1 455.0032 289.4479)" class="st23" width="44.1" height="42.6"/>
<rect x="297.6" y="313.2" class="st23" width="72.3" height="167.7"/>
<rect x="344.8" y="132.4" class="st23" width="72.6" height="167.7"/>
<rect x="297.6" y="132.4" transform="matrix(-1 -1.224647e-16 1.224647e-16 -1 642.384 311.357)" class="st23" width="47.2" height="46.5"/>
</svg>
